;TYPE=PLATED
;Layer: PTH_Through_Via
;EasyEDA Pro Client v3.2.121, 2026-05-25 16:48:00
;Gerber Generator version 0.3
M48
METRIC,LZ,0000.00000
;Hole size 1 = 0.30500 METRIC
T01C0.30500
;Hole size 2 = 0.50800 METRIC
T02C0.50800
;Hole size 3 = 0.63500 METRIC
T03C0.63500
%
G05
G90
T01
X-0.72009Y-17.73673
X0.813Y-17.739
X-1.1936Y-20.406
X1.8036Y-20.2028
X-10.2Y0.918
X-10.2Y-0.357
X-17.8308Y-6.7564
X-16.1036Y4.826
X-10.2108Y11.0744
X-10.2108Y12.3444
X0.31013Y0.45187
X5.13613Y-4.32333
X-3.29667Y-7.26277
T02
X6.70681Y-7.60541
X1.75813Y-11.98885
T03
X22.5552Y-6.8072
X-6.2484Y14.8844
X-18.0848Y14.9352
X-2.90017Y9.83932
X-1.50012Y9.83932
X-0.10008Y9.83932
X-2.90017Y8.43928
X-1.50012Y8.43928
X-0.10008Y8.43928
X-2.90017Y7.03923
X-1.50012Y7.03923
X-0.10008Y7.03923
M30