G04 Layer: TopLayer*
G04 EasyEDA Pro v3.2.121, 2026-05-25 16:47:59*
G04 Gerber Generator version 0.3*
G04 Scale: 100 percent, Rotated: No, Reflected: No*
G04 Dimensions in millimeters*
G04 Leading zeros omitted, absolute positions, 4 integers and 5 decimals*
G04 Generated by one-click*
%FSLAX45Y45*%
%MOMM*%
%AMPolygonMacro1*4,1,8,0.00001,-0.64994,0.00001,-0.65009,-0.29999,-0.65009,-0.29999,0.64994,-0.00001,0.64994,-0.00001,0.65009,0.29999,0.65009,0.29999,-0.64994,0.00001,-0.64994,0*%
%AMPolygonMacro2*4,1,8,-0.00001,0.64999,0.00001,0.64999,0.30001,0.64999,0.30001,-0.64999,0.00001,-0.64999,-0.00001,-0.64999,-0.30001,-0.64999,-0.30001,0.64999,-0.00001,0.64999,0*%
%AMPolygonMacro3*4,1,8,0.00001,-0.64999,-0.00001,-0.64999,-0.30001,-0.64999,-0.30001,0.64999,-0.00001,0.64999,0.00001,0.64999,0.30001,0.64999,0.30001,-0.64999,0.00001,-0.64999,0*%
%AMPolygonMacro4*4,1,8,0.00004,-0.64997,0.00004,-0.65,-0.29999,-0.65,-0.29999,0.64997,-0.00004,0.64997,-0.00004,0.65,0.29999,0.65,0.29999,-0.64997,0.00004,-0.64997,0*%
%ADD10C,0.2032*%
%ADD11C,0.254*%
%ADD12C,1.8*%
%ADD13R,0.8X0.9*%
%ADD14R,0.9X0.8*%
%ADD15R,1.8054X1.8*%
%ADD16R,1.8X1.8*%
%ADD17R,0.88001X0.95999*%
%ADD18R,2.0X2.0*%
%ADD19C,2.0*%
%ADD20R,0.8X0.8*%
%ADD21R,1.0X0.8*%
%ADD22R,0.6X1.07*%
%ADD23R,0.80648X0.86401*%
%ADD24R,1.20752X1.70101*%
%ADD25R,0.86401X0.80648*%
%ADD26C,1.0*%
%ADD27R,1.23X1.85999*%
%ADD28R,0.6X1.2*%
%ADD29R,3.29999X2.4*%
%ADD30R,1.5X0.9*%
%ADD31R,0.9X1.5*%
%ADD32R,0.9X0.9*%
%ADD33R,1.157X0.48999*%
%ADD34R,1.175X0.48999*%
%ADD35R,0.3X1.3*%
%ADD36PolygonMacro1*%
%ADD37PolygonMacro2*%
%ADD38PolygonMacro3*%
%ADD39PolygonMacro4*%
%ADD40O,1.2X1.8*%
%ADD41O,1.2X2.0*%
%ADD42R,1.7X1.7*%
%ADD43C,1.7*%
%ADD44R,0.9X1.37*%
%ADD45C,0.508*%
%ADD46C,0.889*%
%ADD47C,1.143*%
%ADD48C,0.381*%
%ADD49C,0.762*%
G75*


G04 Copper Start*
G36*
G01X930735Y1756895D02*
G01X930735Y2335565D01*
G01X1023100Y2296606D01*
G01X1113839Y2253995D01*
G01X1202808Y2207801D01*
G01X1289864Y2158097D01*
G01X1374869Y2104962D01*
G01X1457689Y2048481D01*
G01X1538191Y1988743D01*
G01X1616248Y1925843D01*
G01X1691736Y1859882D01*
G01X1764534Y1790964D01*
G01X1834527Y1719199D01*
G01X1901603Y1644700D01*
G01X1965656Y1567587D01*
G01X2026584Y1487981D01*
G01X2084290Y1406010D01*
G01X2138683Y1321804D01*
G01X2189676Y1235497D01*
G01X2237187Y1147225D01*
G01X2281142Y1057129D01*
G01X2321470Y965353D01*
G01X2358108Y872042D01*
G01X2390997Y777345D01*
G01X2420085Y681412D01*
G01X2445325Y584395D01*
G01X2466677Y486450D01*
G01X2484109Y387731D01*
G01X2497591Y288396D01*
G01X2507102Y188602D01*
G01X2512628Y88509D01*
G01X2514159Y-11725D01*
G01X2511693Y-111941D01*
G01X2505234Y-211979D01*
G01X2505234Y-211979D01*
G01X2494792Y-311679D01*
G01X2480384Y-410885D01*
G01X2462033Y-509436D01*
G01X2439768Y-607178D01*
G01X2413623Y-703955D01*
G01X2383642Y-799613D01*
G01X2349872Y-893999D01*
G01X2312365Y-986964D01*
G01X2271183Y-1078360D01*
G01X2226389Y-1168042D01*
G01X2178056Y-1255867D01*
G01X2126261Y-1341695D01*
G01X2071085Y-1425390D01*
G01X2012617Y-1506819D01*
G01X1950949Y-1585853D01*
G01X1886179Y-1662365D01*
G01X1818411Y-1736235D01*
G01X1747752Y-1807345D01*
G01X1674314Y-1875581D01*
G01X1598215Y-1940835D01*
G01X1519575Y-2003004D01*
G01X1438519Y-2061988D01*
G01X1355176Y-2117695D01*
G01X1269678Y-2170034D01*
G01X1182162Y-2218924D01*
G01X1092767Y-2264286D01*
G01X1001634Y-2306049D01*
G01X908909Y-2344145D01*
G01X814740Y-2378514D01*
G01X719274Y-2409103D01*
G01X622666Y-2435861D01*
G01X525067Y-2458747D01*
G01X525067Y-2458747D01*
G01X529680Y-2446136D01*
G01X532484Y-2433004D01*
G01X533425Y-2419609D01*
G01X533425Y-2359609D01*
G01X531584Y-2340916D01*
G01X526132Y-2322942D01*
G01X517278Y-2306377D01*
G01X505362Y-2291858D01*
G01X490843Y-2279942D01*
G01X474278Y-2271088D01*
G01X456304Y-2265636D01*
G01X437611Y-2263795D01*
G01X418919Y-2265636D01*
G01X400945Y-2271088D01*
G01X384380Y-2279942D01*
G01X369861Y-2291858D01*
G01X357945Y-2306377D01*
G01X349091Y-2322942D01*
G01X343638Y-2340916D01*
G01X341797Y-2359609D01*
G01X341797Y-2419609D01*
G01X343607Y-2438142D01*
G01X348967Y-2455976D01*
G01X357676Y-2472436D01*
G01X369404Y-2486900D01*
G01X278609Y-2498701D01*
G01X187445Y-2507189D01*
G01X96032Y-2512351D01*
G01X4492Y-2514182D01*
G01X-87054Y-2512678D01*
G01X-178485Y-2507843D01*
G01X-269679Y-2499681D01*
G01X-360516Y-2488204D01*
G01X-360516Y-2488204D01*
G01X-348249Y-2473587D01*
G01X-339122Y-2456830D01*
G01X-333497Y-2438596D01*
G01X-331597Y-2419609D01*
G01X-331597Y-2359609D01*
G01X-333438Y-2340916D01*
G01X-338891Y-2322942D01*
G01X-347745Y-2306377D01*
G01X-359660Y-2291858D01*
G01X-374180Y-2279942D01*
G01X-390745Y-2271088D01*
G01X-408719Y-2265636D01*
G01X-427411Y-2263795D01*
G01X-446103Y-2265636D01*
G01X-464078Y-2271088D01*
G01X-480642Y-2279942D01*
G01X-495162Y-2291858D01*
G01X-507077Y-2306377D01*
G01X-515932Y-2322942D01*
G01X-521384Y-2340916D01*
G01X-523225Y-2359609D01*
G01X-523225Y-2419609D01*
G01X-522157Y-2433872D01*
G01X-518978Y-2447818D01*
G01X-513759Y-2461135D01*
G01X-611471Y-2438695D01*
G01X-708210Y-2412378D01*
G01X-803824Y-2382225D01*
G01X-898160Y-2348285D01*
G01X-991067Y-2310610D01*
G01X-1082398Y-2269261D01*
G01X-1172009Y-2224304D01*
G01X-1259755Y-2175810D01*
G01X-1345499Y-2123856D01*
G01X-1429103Y-2068525D01*
G01X-1510435Y-2009905D01*
G01X-1589365Y-1948089D01*
G01X-1608741Y-1931626D01*
G01X-523225Y-1931626D01*
G01X-523225Y-2011626D01*
G01X-521335Y-2030562D01*
G01X-515741Y-2048750D01*
G01X-506662Y-2065475D01*
G01X-494457Y-2080075D01*
G01X-479607Y-2091975D01*
G01X-462698Y-2100705D01*
G01X-444398Y-2105922D01*
G01X-425427Y-2107420D01*
G01X-406535Y-2105138D01*
G01X-388466Y-2099168D01*
G01X-371933Y-2089745D01*
G01X-357589Y-2077240D01*
G01X-345999Y-2062147D01*
G01X-335248Y-2074924D01*
G01X-321885Y-2084936D01*
G01X-306603Y-2091665D01*
G01X-290195Y-2094761D01*
G01X-273511Y-2094065D01*
G01X-257418Y-2089611D01*
G01X-242750Y-2081631D01*
G01X-230268Y-2070540D01*
G01X-220620Y-2056911D01*
G01X-214306Y-2041453D01*
G01X-211653Y-2024967D01*
G01X-212799Y-2008309D01*
G01X-204897Y-2008309D01*
G01X-194892Y-2007266D01*
G01X-185841Y-2008296D01*
G01X-191040Y-2022565D01*
G01X-193213Y-2037596D01*
G01X-192268Y-2052753D01*
G01X-188245Y-2067398D01*
G01X-181314Y-2080911D01*
G01X-171768Y-2092722D01*
G01X-160009Y-2102333D01*
G01X-146534Y-2109338D01*
G01X-131912Y-2113440D01*
G01X-116760Y-2114468D01*
G01X-101718Y-2112377D01*
G01X-87420Y-2107257D01*
G01X-74471Y-2099322D01*
G01X-63417Y-2088908D01*
G01X-58400Y-2089114D01*
G01X17800Y-2089114D01*
G01X29742Y-2087938D01*
G01X41226Y-2084454D01*
G01X51809Y-2078798D01*
G01X61085Y-2071185D01*
G01X73785Y-2058485D01*
G01X81398Y-2049209D01*
G01X87054Y-2038626D01*
G01X90538Y-2027142D01*
G01X91714Y-2015200D01*
G01X91714Y-2008305D01*
G01X95106Y-2008305D01*
G01X105087Y-2007267D01*
G01X107522Y-2007715D01*
G01X106531Y-2023831D01*
G01X109064Y-2039778D01*
G01X114999Y-2054794D01*
G01X124053Y-2068163D01*
G01X135794Y-2079247D01*
G01X149662Y-2087518D01*
G01X164994Y-2092579D01*
G01X181060Y-2094191D01*
G01X197093Y-2092275D01*
G01X212327Y-2086924D01*
G01X226035Y-2078392D01*
G01X237564Y-2067088D01*
G01X247114Y-2077075D01*
G01X258368Y-2085093D01*
G01X270927Y-2090856D01*
G01X284344Y-2094161D01*
G01X298142Y-2094890D01*
G01X311833Y-2093016D01*
G01X324929Y-2088607D01*
G01X336965Y-2081820D01*
G01X347513Y-2072894D01*
G01X356199Y-2062147D01*
G01X367789Y-2077240D01*
G01X382134Y-2089745D01*
G01X398666Y-2099168D01*
G01X416735Y-2105138D01*
G01X435627Y-2107420D01*
G01X454598Y-2105922D01*
G01X472899Y-2100705D01*
G01X489807Y-2091975D01*
G01X504657Y-2080075D01*
G01X516862Y-2065475D01*
G01X525941Y-2048750D01*
G01X531535Y-2030562D01*
G01X533425Y-2011626D01*
G01X533425Y-1931626D01*
G01X531718Y-1913618D01*
G01X526656Y-1896251D01*
G01X518420Y-1880145D01*
G01X507304Y-1865875D01*
G01X493703Y-1853948D01*
G01X478104Y-1844789D01*
G01X461061Y-1838726D01*
G01X443182Y-1835975D01*
G01X425105Y-1836632D01*
G01X407473Y-1840676D01*
G01X390916Y-1847961D01*
G01X390916Y-1829782D01*
G01X389163Y-1818715D01*
G01X384076Y-1808732D01*
G01X376153Y-1800808D01*
G01X366169Y-1795721D01*
G01X355102Y-1793968D01*
G01X319044Y-1793968D01*
G01X319044Y-1715616D01*
G01X378206Y-1656454D01*
G01X378206Y-1729540D01*
G01X379959Y-1740607D01*
G01X385046Y-1750591D01*
G01X392969Y-1758514D01*
G01X402953Y-1763601D01*
G01X414020Y-1765354D01*
G01X500420Y-1765354D01*
G01X511488Y-1763601D01*
G01X521471Y-1758514D01*
G01X529395Y-1750591D01*
G01X534482Y-1740607D01*
G01X536234Y-1729540D01*
G01X536234Y-1648893D01*
G01X534740Y-1638656D01*
G01X530382Y-1629273D01*
G01X523524Y-1621527D01*
G01X530294Y-1617092D01*
G01X536233Y-1611594D01*
G01X536487Y-1611594D01*
G01X544196Y-1620979D01*
G01X554001Y-1628148D01*
G01X565282Y-1632647D01*
G01X577329Y-1634194D01*
G01X665330Y-1634194D01*
G01X677886Y-1632541D01*
G01X689587Y-1627694D01*
G01X699634Y-1619984D01*
G01X707344Y-1609937D01*
G01X712191Y-1598236D01*
G01X713844Y-1585680D01*
G01X713844Y-1489680D01*
G01X712602Y-1478773D01*
G01X708940Y-1468425D01*
G01X703044Y-1459164D01*
G01X695218Y-1451466D01*
G01X695218Y-1405107D01*
G01X698654Y-1395051D01*
G01X699818Y-1384487D01*
G01X699818Y-1277487D01*
G01X732782Y-1277487D01*
G01X732782Y-1384487D01*
G01X734435Y-1397044D01*
G01X739282Y-1408744D01*
G01X746992Y-1418792D01*
G01X757039Y-1426502D01*
G01X768740Y-1431348D01*
G01X781296Y-1433001D01*
G01X841296Y-1433001D01*
G01X851861Y-1431837D01*
G01X861918Y-1428400D01*
G01X870986Y-1422856D01*
G01X870986Y-1450322D01*
G01X862551Y-1458066D01*
G01X856167Y-1467572D01*
G01X852188Y-1478309D01*
G01X850836Y-1489680D01*
G01X850836Y-1585680D01*
G01X852489Y-1598236D01*
G01X857336Y-1609937D01*
G01X865046Y-1619984D01*
G01X875093Y-1627694D01*
G01X886794Y-1632541D01*
G01X899350Y-1634194D01*
G01X987351Y-1634194D01*
G01X997784Y-1633058D01*
G01X1007729Y-1629706D01*
G01X1016720Y-1624294D01*
G01X1098735Y-1624294D01*
G01X1104263Y-1634379D01*
G01X1112011Y-1642880D01*
G01X1121542Y-1649317D01*
G01X1132320Y-1653331D01*
G01X1143740Y-1654694D01*
G01X1233740Y-1654694D01*
G01X1246296Y-1653041D01*
G01X1257997Y-1648194D01*
G01X1268045Y-1640485D01*
G01X1275754Y-1630437D01*
G01X1280601Y-1618736D01*
G01X1282254Y-1606180D01*
G01X1282254Y-1469180D01*
G01X1280601Y-1456624D01*
G01X1275754Y-1444923D01*
G01X1268045Y-1434875D01*
G01X1257997Y-1427166D01*
G01X1246296Y-1422319D01*
G01X1233740Y-1420666D01*
G01X1143740Y-1420666D01*
G01X1132320Y-1422029D01*
G01X1121542Y-1426043D01*
G01X1112011Y-1432480D01*
G01X1104263Y-1440981D01*
G01X1098735Y-1451066D01*
G01X1018814Y-1451066D01*
G01X1018814Y-1451066D01*
G01X1018814Y-1366547D01*
G01X1017394Y-1352128D01*
G01X1013188Y-1338262D01*
G01X1006357Y-1325483D01*
G01X997165Y-1314282D01*
G01X961605Y-1278722D01*
G01X950404Y-1269530D01*
G01X937626Y-1262700D01*
G01X923760Y-1258494D01*
G01X909340Y-1257073D01*
G01X885306Y-1257073D01*
G01X877819Y-1245555D01*
G01X867404Y-1236598D01*
G01X854895Y-1230918D01*
G01X841296Y-1228973D01*
G01X781296Y-1228973D01*
G01X768740Y-1230626D01*
G01X757039Y-1235473D01*
G01X746992Y-1243183D01*
G01X739282Y-1253230D01*
G01X734435Y-1264931D01*
G01X732782Y-1277487D01*
G01X699818Y-1277487D01*
G01X698165Y-1264931D01*
G01X693318Y-1253230D01*
G01X685609Y-1243183D01*
G01X675561Y-1235473D01*
G01X663860Y-1230626D01*
G01X651304Y-1228973D01*
G01X591304Y-1228973D01*
G01X578748Y-1230626D01*
G01X567047Y-1235473D01*
G01X557000Y-1243183D01*
G01X549290Y-1253230D01*
G01X544443Y-1264931D01*
G01X542790Y-1277487D01*
G01X542790Y-1384487D01*
G01X543954Y-1395051D01*
G01X547390Y-1405107D01*
G01X547390Y-1451506D01*
G01X541327Y-1457161D01*
G01X536316Y-1463766D01*
G01X534575Y-1463766D01*
G01X524555Y-1456135D01*
G01X512909Y-1451341D01*
G01X500420Y-1449706D01*
G01X414020Y-1449706D01*
G01X400576Y-1451606D01*
G01X388186Y-1457156D01*
G01X377818Y-1465923D01*
G01X363710Y-1470088D01*
G01X350706Y-1476964D01*
G01X339321Y-1486278D01*
G01X256230Y-1569370D01*
G01X256230Y-1426671D01*
G01X254812Y-1415028D01*
G01X250641Y-1404065D01*
G01X243962Y-1394424D01*
G01X243962Y-1389021D01*
G01X247684Y-1384594D01*
G01X257679Y-1389696D01*
G01X268762Y-1391454D01*
G01X348762Y-1391454D01*
G01X359829Y-1389701D01*
G01X369813Y-1384614D01*
G01X377736Y-1376691D01*
G01X382823Y-1366707D01*
G01X384576Y-1355640D01*
G01X384576Y-1265640D01*
G01X382823Y-1254573D01*
G01X377736Y-1244589D01*
G01X369813Y-1236666D01*
G01X359829Y-1231579D01*
G01X348762Y-1229826D01*
G01X268762Y-1229826D01*
G01X263330Y-1230241D01*
G01X267130Y-1216311D01*
G01X268726Y-1201960D01*
G01X268082Y-1187535D01*
G01X265212Y-1173384D01*
G01X260185Y-1159849D01*
G01X253122Y-1147255D01*
G01X253794Y-1139210D01*
G01X253794Y-1019210D01*
G01X252141Y-1006654D01*
G01X247294Y-994953D01*
G01X239585Y-984905D01*
G01X229537Y-977196D01*
G01X217836Y-972349D01*
G01X205280Y-970696D01*
G01X145280Y-970696D01*
G01X132972Y-972283D01*
G01X121468Y-976942D01*
G01X111524Y-984366D01*
G01X103788Y-994071D01*
G01X96337Y-988281D01*
G01X87633Y-984639D01*
G01X78280Y-983396D01*
G01X18280Y-983396D01*
G01X8927Y-984639D01*
G01X223Y-988281D01*
G01X-7228Y-994071D01*
G01X-14964Y-984366D01*
G01X-24908Y-976942D01*
G01X-36411Y-972283D01*
G01X-48720Y-970696D01*
G01X-108720Y-970696D01*
G01X-121028Y-972283D01*
G01X-132532Y-976942D01*
G01X-142476Y-984366D01*
G01X-150212Y-994071D01*
G01X-157663Y-988281D01*
G01X-166367Y-984639D01*
G01X-175720Y-983396D01*
G01X-235720Y-983396D01*
G01X-246787Y-985149D01*
G01X-256771Y-990236D01*
G01X-264694Y-998159D01*
G01X-269781Y-1008143D01*
G01X-271534Y-1019210D01*
G01X-271534Y-1139210D01*
G01X-269781Y-1150277D01*
G01X-264694Y-1160261D01*
G01X-256771Y-1168184D01*
G01X-246787Y-1173271D01*
G01X-235720Y-1175024D01*
G01X-175720Y-1175024D01*
G01X-166367Y-1173781D01*
G01X-157663Y-1170139D01*
G01X-150212Y-1164349D01*
G01X-145565Y-1170770D01*
G01X-139934Y-1176349D01*
G01X-139934Y-1192687D01*
G01X-150000Y-1198009D01*
G01X-158548Y-1205530D01*
G01X-165107Y-1214836D01*
G01X-165107Y-1214836D01*
G01X-172853Y-1207978D01*
G01X-182236Y-1203620D01*
G01X-192473Y-1202126D01*
G01X-273120Y-1202126D01*
G01X-284187Y-1203878D01*
G01X-294171Y-1208965D01*
G01X-302094Y-1216889D01*
G01X-307181Y-1226872D01*
G01X-308934Y-1237940D01*
G01X-308934Y-1324340D01*
G01X-307181Y-1335407D01*
G01X-302094Y-1345391D01*
G01X-294171Y-1353314D01*
G01X-284187Y-1358401D01*
G01X-273120Y-1360154D01*
G01X-192473Y-1360154D01*
G01X-182236Y-1358660D01*
G01X-172853Y-1354302D01*
G01X-165107Y-1347444D01*
G01X-157446Y-1357937D01*
G01X-147275Y-1366020D01*
G01X-135323Y-1371115D01*
G01X-122447Y-1372854D01*
G01X-41800Y-1372854D01*
G01X-29243Y-1371201D01*
G01X-17543Y-1366355D01*
G01X-7495Y-1358645D01*
G01X215Y-1348597D01*
G01X5061Y-1336897D01*
G01X6714Y-1324340D01*
G01X6714Y-1237940D01*
G01X5064Y-1225394D01*
G01X225Y-1213701D01*
G01X-7473Y-1203658D01*
G01X-17506Y-1195947D01*
G01X-17506Y-1176349D01*
G01X-11875Y-1170770D01*
G01X-7228Y-1164349D01*
G01X223Y-1170139D01*
G01X8927Y-1173781D01*
G01X18280Y-1175024D01*
G01X78280Y-1175024D01*
G01X86204Y-1174136D01*
G01X83314Y-1189606D01*
G01X83074Y-1205341D01*
G01X85492Y-1220891D01*
G01X90498Y-1235811D01*
G01X84895Y-1244912D01*
G01X81421Y-1255018D01*
G01X80244Y-1265640D01*
G01X80244Y-1355640D01*
G01X81651Y-1367242D01*
G01X85793Y-1378171D01*
G01X73467Y-1380072D01*
G01X62034Y-1385052D01*
G01X52248Y-1392783D01*
G01X44756Y-1402752D01*
G01X40053Y-1414303D01*
G01X38450Y-1426671D01*
G01X38450Y-1596772D01*
G01X38993Y-1604010D01*
G01X40610Y-1611086D01*
G01X-41687Y-1611086D01*
G01X-40071Y-1604010D01*
G01X-39528Y-1596772D01*
G01X-39528Y-1426671D01*
G01X-41181Y-1414114D01*
G01X-46027Y-1402414D01*
G01X-53737Y-1392366D01*
G01X-63785Y-1384656D01*
G01X-75485Y-1379810D01*
G01X-88042Y-1378157D01*
G01X-208793Y-1378157D01*
G01X-221350Y-1379810D01*
G01X-233050Y-1384656D01*
G01X-243098Y-1392366D01*
G01X-250808Y-1402414D01*
G01X-255654Y-1414114D01*
G01X-257307Y-1426671D01*
G01X-257307Y-1596772D01*
G01X-255434Y-1610123D01*
G01X-249959Y-1622444D01*
G01X-249959Y-1645028D01*
G01X-287839Y-1682909D01*
G01X-297031Y-1694109D01*
G01X-303861Y-1706888D01*
G01X-308068Y-1720754D01*
G01X-309488Y-1735174D01*
G01X-309488Y-1793981D01*
G01X-314906Y-1793984D01*
G01X-344894Y-1793984D01*
G01X-355961Y-1795737D01*
G01X-365945Y-1800824D01*
G01X-373868Y-1808747D01*
G01X-378955Y-1818731D01*
G01X-380708Y-1829798D01*
G01X-380708Y-1847966D01*
G01X-397266Y-1840678D01*
G01X-414898Y-1836633D01*
G01X-432976Y-1835974D01*
G01X-450855Y-1838725D01*
G01X-467899Y-1844787D01*
G01X-483500Y-1853945D01*
G01X-497101Y-1865872D01*
G01X-508218Y-1880143D01*
G01X-516455Y-1896250D01*
G01X-521517Y-1913617D01*
G01X-523225Y-1931626D01*
G01X-1608741Y-1931626D01*
G01X-1665768Y-1883175D01*
G01X-1739522Y-1815267D01*
G01X-1810510Y-1744473D01*
G01X-1878619Y-1670904D01*
G01X-1943741Y-1594679D01*
G01X-2005772Y-1515918D01*
G01X-2064614Y-1434747D01*
G01X-2120173Y-1351294D01*
G01X-2172361Y-1265693D01*
G01X-2221095Y-1178079D01*
G01X-2266296Y-1088592D01*
G01X-2307895Y-997373D01*
G01X-2345823Y-904569D01*
G01X-2380021Y-810327D01*
G01X-2410435Y-714796D01*
G01X-2437016Y-618128D01*
G01X-2459722Y-520478D01*
G01X-2478517Y-422000D01*
G01X-2493371Y-322851D01*
G01X-2503135Y-233481D01*
G01X-2109081Y-233481D01*
G01X-2109081Y-256358D01*
G01X-2105315Y-278923D01*
G01X-2097887Y-300560D01*
G01X-2086999Y-320679D01*
G01X-2072948Y-338732D01*
G01X-2056117Y-354226D01*
G01X-2036965Y-366739D01*
G01X-2016015Y-375928D01*
G01X-1993839Y-381544D01*
G01X-1971040Y-383433D01*
G01X-1948241Y-381544D01*
G01X-1926065Y-375928D01*
G01X-1905115Y-366739D01*
G01X-1885963Y-354226D01*
G01X-1869132Y-338732D01*
G01X-1855081Y-320679D01*
G01X-1844193Y-300560D01*
G01X-1836765Y-278923D01*
G01X-1832999Y-256358D01*
G01X-1832999Y-233481D01*
G01X-1836765Y-210916D01*
G01X-1844193Y-189279D01*
G01X-1855081Y-169160D01*
G01X-1869132Y-151107D01*
G01X-1885963Y-135613D01*
G01X-1905115Y-123100D01*
G01X-1926065Y-113911D01*
G01X-1948241Y-108295D01*
G01X-1971040Y-106406D01*
G01X-1971040Y-106406D01*
G01X-1993839Y-108295D01*
G01X-2016015Y-113911D01*
G01X-2036965Y-123100D01*
G01X-2056117Y-135613D01*
G01X-2072948Y-151107D01*
G01X-2086999Y-169160D01*
G01X-2097887Y-189279D01*
G01X-2105315Y-210916D01*
G01X-2109081Y-233481D01*
G01X-2503135Y-233481D01*
G01X-2504260Y-223189D01*
G01X-2504260Y-223189D01*
G01X-2504260Y-223189D01*
G01X-2511167Y-123171D01*
G01X-2514081Y-22958D01*
G01X-2512998Y77291D01*
G01X-2507918Y177418D01*
G01X-2499827Y266518D01*
G01X-2109081Y266518D01*
G01X-2109081Y243641D01*
G01X-2105315Y221076D01*
G01X-2097887Y199439D01*
G01X-2086999Y179320D01*
G01X-2072948Y161267D01*
G01X-2056117Y145773D01*
G01X-2036965Y133260D01*
G01X-2016015Y124071D01*
G01X-1993839Y118455D01*
G01X-1971040Y116566D01*
G01X-1948241Y118455D01*
G01X-1926065Y124071D01*
G01X-1905115Y133260D01*
G01X-1885963Y145773D01*
G01X-1869132Y161267D01*
G01X-1855081Y179320D01*
G01X-1844193Y199439D01*
G01X-1836765Y221076D01*
G01X-1832999Y243641D01*
G01X-1832999Y266518D01*
G01X-1836765Y289083D01*
G01X-1844193Y310720D01*
G01X-1855081Y330839D01*
G01X-1869132Y348892D01*
G01X-1885963Y364386D01*
G01X-1905115Y376899D01*
G01X-1926065Y386088D01*
G01X-1948241Y391704D01*
G01X-1971040Y393593D01*
G01X-1971040Y393593D01*
G01X-1993839Y391704D01*
G01X-2016015Y386088D01*
G01X-2036965Y376899D01*
G01X-2056117Y364386D01*
G01X-2072948Y348892D01*
G01X-2086999Y330839D01*
G01X-2097887Y310720D01*
G01X-2105315Y289083D01*
G01X-2109081Y266518D01*
G01X-2499827Y266518D01*
G01X-2498851Y277263D01*
G01X-2485810Y376667D01*
G01X-2468817Y475471D01*
G01X-2447898Y573520D01*
G01X-2423087Y670657D01*
G01X-2419942Y681198D01*
G01X-2333794Y681198D01*
G01X-2333794Y601198D01*
G01X-2332141Y588641D01*
G01X-2327294Y576941D01*
G01X-2319584Y566893D01*
G01X-2309537Y559183D01*
G01X-2297836Y554337D01*
G01X-2285280Y552684D01*
G01X-2195280Y552684D01*
G01X-2181894Y554567D01*
G01X-2169547Y560071D01*
G01X-2159198Y568768D01*
G01X-2151650Y579984D01*
G01X-2088675Y579984D01*
G01X-2074952Y565930D01*
G01X-2058714Y554878D01*
G01X-2040606Y547267D01*
G01X-2021348Y543401D01*
G01X-2001705Y543431D01*
G01X-1982460Y547358D01*
G01X-1964375Y555026D01*
G01X-1948172Y566128D01*
G01X-1934493Y580225D01*
G01X-1558226Y580225D01*
G01X-1553073Y570040D01*
G01X-1545683Y561340D01*
G01X-1552666Y553243D01*
G01X-1557706Y543814D01*
G01X-1568934Y543814D01*
G01X-1583056Y551286D01*
G01X-1598453Y555549D01*
G01X-1614407Y556403D01*
G01X-1630171Y553809D01*
G01X-1645010Y547889D01*
G01X-1658231Y538918D01*
G01X-1669214Y527315D01*
G01X-1677448Y513624D01*
G01X-1682547Y498483D01*
G01X-1684274Y482600D01*
G01X-1682547Y466717D01*
G01X-1677448Y451576D01*
G01X-1669214Y437885D01*
G01X-1658231Y426282D01*
G01X-1645010Y417311D01*
G01X-1630171Y411391D01*
G01X-1614407Y408797D01*
G01X-1598453Y409651D01*
G01X-1583056Y413914D01*
G01X-1568934Y421386D01*
G01X-1557706Y421386D01*
G01X-1552666Y411957D01*
G01X-1545683Y403860D01*
G01X-1554069Y393597D01*
G01X-1559364Y381449D01*
G01X-1561174Y368320D01*
G01X-1561174Y281920D01*
G01X-1559266Y268447D01*
G01X-1553691Y256034D01*
G01X-1544888Y245658D01*
G01X-1533550Y238134D01*
G01X-1533550Y162865D01*
G01X-1547308Y149909D01*
G01X-1558338Y134565D01*
G01X-1566235Y117397D01*
G01X-1570709Y99036D01*
G01X-1571595Y80160D01*
G01X-1568860Y61461D01*
G01X-1562605Y43629D01*
G01X-1553061Y27319D01*
G01X-1540577Y13131D01*
G01X-1525615Y1588D01*
G01X-1508723Y-6885D01*
G01X-1524146Y-15947D01*
G01X-1537355Y-28009D01*
G01X-1547777Y-42548D01*
G01X-1554958Y-58931D01*
G01X-1558586Y-76447D01*
G01X-1558505Y-94335D01*
G01X-1554716Y-111817D01*
G01X-1547386Y-128134D01*
G01X-1536832Y-142577D01*
G01X-1523513Y-154518D01*
G01X-1508008Y-163438D01*
G01X-1490991Y-168951D01*
G01X-1473200Y-170815D01*
G01X-1473200Y-170815D01*
G01X-1455409Y-168951D01*
G01X-1438392Y-163438D01*
G01X-1422887Y-154518D01*
G01X-1409568Y-142577D01*
G01X-1399014Y-128134D01*
G01X-1391684Y-111817D01*
G01X-1387895Y-94335D01*
G01X-1387814Y-76447D01*
G01X-1391442Y-58931D01*
G01X-1398623Y-42548D01*
G01X-1409045Y-28009D01*
G01X-1422254Y-15947D01*
G01X-1437677Y-6885D01*
G01X-1420955Y1482D01*
G01X-1406116Y12858D01*
G01X-1393693Y26832D01*
G01X-1384134Y42902D01*
G01X-1377784Y60489D01*
G01X-1374872Y78959D01*
G01X-1375501Y97646D01*
G01X-1379650Y115878D01*
G01X-1387169Y132998D01*
G01X-1397787Y148388D01*
G01X-1411122Y161495D01*
G01X-1411122Y238134D01*
G01X-1403599Y242597D01*
G01X-1397000Y248338D01*
G01X-1386826Y240247D01*
G01X-1374869Y235147D01*
G01X-1361987Y233406D01*
G01X-1281340Y233406D01*
G01X-1268783Y235059D01*
G01X-1257083Y239905D01*
G01X-1247035Y247615D01*
G01X-1239325Y257663D01*
G01X-1234479Y269363D01*
G01X-1232826Y281920D01*
G01X-1232826Y368320D01*
G01X-1234566Y381198D01*
G01X-1239663Y393152D01*
G01X-1247750Y403325D01*
G01X-1247750Y404395D01*
G01X-1239663Y414568D01*
G01X-1234566Y426522D01*
G01X-1232826Y439400D01*
G01X-1232826Y525800D01*
G01X-1234566Y538678D01*
G01X-1239663Y550632D01*
G01X-1247750Y560805D01*
G01X-1247750Y561875D01*
G01X-1243786Y566166D01*
G01X-1168400Y566166D01*
G01X-1153980Y567586D01*
G01X-1140114Y571792D01*
G01X-1127336Y578623D01*
G01X-1116135Y587815D01*
G01X-1050029Y653921D01*
G01X-1001515Y653921D01*
G01X-1003075Y646965D01*
G01X-1003598Y639855D01*
G01X-1003598Y549855D01*
G01X-1002673Y540425D01*
G01X-999932Y531355D01*
G01X-1003279Y518414D01*
G01X-1016000Y518414D01*
G01X-1027942Y517238D01*
G01X-1039426Y513754D01*
G01X-1050009Y508098D01*
G01X-1059285Y500485D01*
G01X-1211685Y348085D01*
G01X-1219298Y338809D01*
G01X-1224954Y328226D01*
G01X-1228438Y316742D01*
G01X-1229614Y304800D01*
G01X-1229614Y-289604D01*
G01X-1402899Y-462890D01*
G01X-1589414Y-462890D01*
G01X-1596938Y-451552D01*
G01X-1607314Y-442749D01*
G01X-1619727Y-437174D01*
G01X-1633200Y-435266D01*
G01X-1719600Y-435266D01*
G01X-1732157Y-436919D01*
G01X-1743857Y-441765D01*
G01X-1753905Y-449475D01*
G01X-1761615Y-459523D01*
G01X-1766461Y-471223D01*
G01X-1768114Y-483780D01*
G01X-1768114Y-564427D01*
G01X-1766373Y-577309D01*
G01X-1761273Y-589266D01*
G01X-1753182Y-599440D01*
G01X-1758776Y-605836D01*
G01X-1774050Y-602280D01*
G01X-1789732Y-602026D01*
G01X-1805114Y-605087D01*
G01X-1819503Y-611324D01*
G01X-1832253Y-620456D01*
G01X-1842789Y-632073D01*
G01X-1850637Y-645652D01*
G01X-1855444Y-660580D01*
G01X-1856992Y-676187D01*
G01X-1855213Y-691769D01*
G01X-1850186Y-706625D01*
G01X-1842138Y-720086D01*
G01X-1831431Y-731546D01*
G01X-1818547Y-740489D01*
G01X-1804067Y-746512D01*
G01X-1788641Y-749344D01*
G01X-1772966Y-748859D01*
G01X-1757745Y-745076D01*
G01X-1750051Y-752867D01*
G01X-1740806Y-758734D01*
G01X-1730480Y-762378D01*
G01X-1719600Y-763614D01*
G01X-1633200Y-763614D01*
G01X-1620643Y-761961D01*
G01X-1608943Y-757115D01*
G01X-1598895Y-749405D01*
G01X-1591185Y-739357D01*
G01X-1586339Y-727657D01*
G01X-1584686Y-715100D01*
G01X-1584686Y-634453D01*
G01X-1586427Y-621571D01*
G01X-1591527Y-609614D01*
G01X-1599618Y-599440D01*
G01X-1593877Y-592841D01*
G01X-1589414Y-585318D01*
G01X-1377544Y-585318D01*
G01X-1365601Y-584141D01*
G01X-1354118Y-580658D01*
G01X-1343535Y-575001D01*
G01X-1334259Y-567389D01*
G01X-1156135Y-389264D01*
G01X-1156135Y-643120D01*
G01X-1167532Y-650632D01*
G01X-1176385Y-661021D01*
G01X-1181994Y-673466D01*
G01X-1183914Y-686980D01*
G01X-1183914Y-767627D01*
G01X-1182173Y-780509D01*
G01X-1177073Y-792466D01*
G01X-1168982Y-802640D01*
G01X-1174598Y-809067D01*
G01X-1179001Y-816379D01*
G01X-1186427Y-807401D01*
G01X-1195780Y-800452D01*
G01X-1206520Y-795933D01*
G01X-1197367Y-790569D01*
G01X-1190187Y-782758D01*
G01X-1185610Y-773186D01*
G01X-1184039Y-762693D01*
G01X-1184039Y-682694D01*
G01X-1185792Y-671626D01*
G01X-1190879Y-661643D01*
G01X-1198802Y-653719D01*
G01X-1208786Y-648632D01*
G01X-1219853Y-646880D01*
G01X-1299853Y-646880D01*
G01X-1310920Y-648632D01*
G01X-1320904Y-653719D01*
G01X-1328827Y-661643D01*
G01X-1333914Y-671626D01*
G01X-1335667Y-682694D01*
G01X-1335667Y-762693D01*
G01X-1334093Y-773191D01*
G01X-1329512Y-782767D01*
G01X-1322325Y-790579D01*
G01X-1313164Y-795942D01*
G01X-1324643Y-800900D01*
G01X-1334474Y-808627D01*
G01X-1342003Y-818611D01*
G01X-1346730Y-830187D01*
G01X-1348341Y-842587D01*
G01X-1348341Y-922586D01*
G01X-1346688Y-935143D01*
G01X-1341842Y-946843D01*
G01X-1334132Y-956891D01*
G01X-1324084Y-964601D01*
G01X-1312384Y-969447D01*
G01X-1299827Y-971100D01*
G01X-1219827Y-971100D01*
G01X-1206555Y-969250D01*
G01X-1194295Y-963838D01*
G01X-1183983Y-955279D01*
G01X-1176407Y-944225D01*
G01X-1168656Y-953623D01*
G01X-1158809Y-960793D01*
G01X-1147485Y-965285D01*
G01X-1135400Y-966814D01*
G01X-1049000Y-966814D01*
G01X-1035926Y-965019D01*
G01X-1023820Y-959768D01*
G01X-1013577Y-951449D01*
G01X-1005954Y-940677D01*
G01X-1000316Y-948368D01*
G01X-993282Y-954808D01*
G01X-985124Y-959748D01*
G01X-982179Y-973452D01*
G01X-976193Y-986127D01*
G01X-967482Y-997108D01*
G01X-937345Y-1027245D01*
G01X-928069Y-1034858D01*
G01X-917486Y-1040514D01*
G01X-906002Y-1043998D01*
G01X-894060Y-1045174D01*
G01X-452100Y-1045174D01*
G01X-440158Y-1043998D01*
G01X-428674Y-1040514D01*
G01X-418091Y-1034858D01*
G01X-408815Y-1027245D01*
G01X-373255Y-991685D01*
G01X-366036Y-982990D01*
G01X-360538Y-973117D01*
G01X-356949Y-962401D01*
G01X-346353Y-957056D01*
G01X-337373Y-949298D01*
G01X-330545Y-939592D01*
G01X-326277Y-928518D01*
G01X-324826Y-916740D01*
G01X-324826Y-836093D01*
G01X-326567Y-823211D01*
G01X-331667Y-811254D01*
G01X-339758Y-801080D01*
G01X-338355Y-799679D01*
G01X-322840Y-799875D01*
G01X-307626Y-796829D01*
G01X-293383Y-790673D01*
G01X-280739Y-781679D01*
G01X-270251Y-770244D01*
G01X-262382Y-756872D01*
G01X-257477Y-742151D01*
G01X-255754Y-726731D01*
G01X-257288Y-711291D01*
G01X-262011Y-696511D01*
G01X-269716Y-683043D01*
G01X-280062Y-671480D01*
G01X-284309Y-668380D01*
G01X-216034Y-668380D01*
G01X-216034Y-908380D01*
G01X-214281Y-919447D01*
G01X-209194Y-929431D01*
G01X-201271Y-937354D01*
G01X-191287Y-942441D01*
G01X-180220Y-944194D01*
G01X149780Y-944194D01*
G01X160847Y-942441D01*
G01X170831Y-937354D01*
G01X178754Y-929431D01*
G01X183841Y-919447D01*
G01X185594Y-908380D01*
G01X185594Y-668380D01*
G01X185594Y-668380D01*
G01X183841Y-657313D01*
G01X178754Y-647329D01*
G01X170831Y-639406D01*
G01X160847Y-634319D01*
G01X149780Y-632566D01*
G01X-180220Y-632566D01*
G01X-191287Y-634319D01*
G01X-201271Y-639406D01*
G01X-209194Y-647329D01*
G01X-214281Y-657313D01*
G01X-216034Y-668380D01*
G01X-284309Y-668380D01*
G01X-292595Y-662332D01*
G01X-306761Y-656002D01*
G01X-321937Y-652768D01*
G01X-337453Y-652774D01*
G01X-345685Y-645559D01*
G01X-355326Y-640374D01*
G01X-355326Y-567654D01*
G01X-283170Y-567654D01*
G01X-278707Y-580039D01*
G01X-271078Y-590768D01*
G01X-260845Y-599051D01*
G01X-248763Y-604278D01*
G01X-235720Y-606064D01*
G01X-175720Y-606064D01*
G01X-163526Y-604506D01*
G01X-152115Y-599934D01*
G01X-142220Y-592640D01*
G01X-132325Y-599934D01*
G01X-120914Y-604506D01*
G01X-108720Y-606064D01*
G01X-48720Y-606064D01*
G01X-36526Y-604506D01*
G01X-25115Y-599934D01*
G01X-15220Y-592640D01*
G01X-5325Y-599934D01*
G01X6086Y-604506D01*
G01X18280Y-606064D01*
G01X78280Y-606064D01*
G01X90474Y-604506D01*
G01X101885Y-599934D01*
G01X111780Y-592640D01*
G01X121675Y-599934D01*
G01X133086Y-604506D01*
G01X145280Y-606064D01*
G01X205280Y-606064D01*
G01X217563Y-604483D01*
G01X229046Y-599844D01*
G01X238981Y-592448D01*
G01X246719Y-582778D01*
G01X251756Y-571464D01*
G01X280484Y-571464D01*
G01X286786Y-577766D01*
G01X286786Y-647041D01*
G01X278570Y-654773D01*
G01X272362Y-664193D01*
G01X268498Y-674792D01*
G01X267186Y-685998D01*
G01X267186Y-765997D01*
G01X268495Y-777191D01*
G01X272351Y-787780D01*
G01X278546Y-797193D01*
G01X286746Y-804924D01*
G01X281644Y-814919D01*
G01X279886Y-826002D01*
G01X279886Y-906002D01*
G01X281639Y-917069D01*
G01X286726Y-927053D01*
G01X294649Y-934976D01*
G01X304633Y-940063D01*
G01X315700Y-941816D01*
G01X405700Y-941816D01*
G01X416767Y-940063D01*
G01X426751Y-934976D01*
G01X434674Y-927053D01*
G01X439761Y-917069D01*
G01X441514Y-906002D01*
G01X441514Y-826002D01*
G01X439756Y-814919D01*
G01X434654Y-804924D01*
G01X440391Y-799912D01*
G01X586465Y-799912D01*
G01X596302Y-816309D01*
G01X609286Y-830347D01*
G01X624867Y-841432D01*
G01X642386Y-849095D01*
G01X642386Y-1009853D01*
G01X638950Y-1019909D01*
G01X637786Y-1030472D01*
G01X637786Y-1137472D01*
G01X639439Y-1150029D01*
G01X644286Y-1161729D01*
G01X651996Y-1171777D01*
G01X662043Y-1179487D01*
G01X673744Y-1184333D01*
G01X686300Y-1185986D01*
G01X746300Y-1185986D01*
G01X758732Y-1184367D01*
G01X770333Y-1179615D01*
G01X780330Y-1172050D01*
G01X788054Y-1162175D01*
G01X792990Y-1150651D01*
G01X794808Y-1138247D01*
G01X963780Y-1138247D01*
G01X974847Y-1136494D01*
G01X984831Y-1131407D01*
G01X992754Y-1123484D01*
G01X997841Y-1113500D01*
G01X999594Y-1102433D01*
G01X999594Y-922434D01*
G01X997841Y-911366D01*
G01X992754Y-901383D01*
G01X984831Y-893459D01*
G01X974847Y-888372D01*
G01X963780Y-886620D01*
G01X935157Y-886620D01*
G01X952985Y-876081D01*
G01X969042Y-863002D01*
G01X982969Y-847675D01*
G01X994456Y-830443D01*
G01X1003245Y-811691D01*
G01X1009140Y-791838D01*
G01X1012009Y-771328D01*
G01X1011788Y-750620D01*
G01X1008482Y-730176D01*
G01X1002165Y-710453D01*
G01X992978Y-691893D01*
G01X981127Y-674909D01*
G01X992692Y-679626D01*
G01X1005078Y-681234D01*
G01X1085078Y-681234D01*
G01X1095953Y-679999D01*
G01X1106276Y-676358D01*
G01X1100247Y-685688D01*
G01X1096498Y-696144D01*
G01X1095226Y-707180D01*
G01X1095226Y-844180D01*
G01X1096879Y-856736D01*
G01X1101726Y-868437D01*
G01X1109436Y-878485D01*
G01X1119483Y-886194D01*
G01X1131184Y-891041D01*
G01X1143740Y-892694D01*
G01X1233740Y-892694D01*
G01X1247079Y-890824D01*
G01X1259390Y-885358D01*
G01X1269724Y-876718D01*
G01X1277284Y-865570D01*
G01X1281487Y-852772D01*
G01X1290603Y-858402D01*
G01X1300732Y-861893D01*
G01X1311380Y-863076D01*
G01X1401380Y-863076D01*
G01X1411679Y-861971D01*
G01X1421508Y-858704D01*
G01X1427595Y-869677D01*
G01X1435605Y-879335D01*
G01X1476245Y-919975D01*
G01X1486483Y-928377D01*
G01X1498164Y-934621D01*
G01X1510839Y-938466D01*
G01X1524020Y-939764D01*
G01X1550126Y-939764D01*
G01X1559485Y-942698D01*
G01X1569243Y-943690D01*
G01X1684943Y-943690D01*
G01X1697499Y-942036D01*
G01X1709200Y-937190D01*
G01X1719248Y-929480D01*
G01X1726957Y-919433D01*
G01X1731804Y-907732D01*
G01X1733457Y-895176D01*
G01X1733457Y-846176D01*
G01X1750563Y-846176D01*
G01X1750563Y-895176D01*
G01X1752216Y-907732D01*
G01X1757062Y-919433D01*
G01X1764772Y-929480D01*
G01X1774820Y-937190D01*
G01X1786520Y-942036D01*
G01X1799077Y-943690D01*
G01X1916577Y-943690D01*
G01X1929133Y-942036D01*
G01X1940834Y-937190D01*
G01X1950882Y-929480D01*
G01X1958591Y-919433D01*
G01X1963438Y-907732D01*
G01X1965091Y-895176D01*
G01X1965091Y-846176D01*
G01X1963438Y-833620D01*
G01X1958591Y-821919D01*
G01X1950882Y-811872D01*
G01X1940834Y-804162D01*
G01X1929133Y-799315D01*
G01X1916577Y-797662D01*
G01X1799077Y-797662D01*
G01X1799077Y-797662D01*
G01X1786520Y-799315D01*
G01X1774820Y-804162D01*
G01X1764772Y-811872D01*
G01X1757062Y-821919D01*
G01X1752216Y-833620D01*
G01X1750563Y-846176D01*
G01X1733457Y-846176D01*
G01X1731763Y-833467D01*
G01X1726797Y-821645D01*
G01X1718909Y-811536D01*
G01X1720757Y-800180D01*
G01X1720757Y-751180D01*
G01X1718909Y-739824D01*
G01X1726797Y-729715D01*
G01X1731763Y-717893D01*
G01X1733457Y-705184D01*
G01X1733457Y-656184D01*
G01X1731804Y-643628D01*
G01X1726957Y-631927D01*
G01X1719248Y-621880D01*
G01X1709200Y-614170D01*
G01X1697499Y-609323D01*
G01X1684943Y-607670D01*
G01X1569243Y-607670D01*
G01X1557746Y-609052D01*
G01X1546904Y-613120D01*
G01X1517416Y-613120D01*
G01X1504235Y-614418D01*
G01X1491560Y-618263D01*
G01X1479879Y-624507D01*
G01X1469641Y-632909D01*
G01X1437194Y-665356D01*
G01X1437194Y-594558D01*
G01X1435441Y-583490D01*
G01X1430354Y-573507D01*
G01X1422431Y-565583D01*
G01X1412447Y-560496D01*
G01X1401380Y-558744D01*
G01X1311380Y-558744D01*
G01X1300313Y-560496D01*
G01X1290329Y-565583D01*
G01X1282406Y-573507D01*
G01X1277319Y-583490D01*
G01X1275566Y-594558D01*
G01X1275566Y-674557D01*
G01X1276075Y-680574D01*
G01X1277588Y-686420D01*
G01X1270130Y-675096D01*
G01X1259830Y-666279D01*
G01X1247493Y-660656D01*
G01X1254712Y-652838D01*
G01X1259315Y-643243D01*
G01X1260896Y-632720D01*
G01X1260896Y-542720D01*
G01X1259144Y-531653D01*
G01X1254057Y-521669D01*
G01X1246133Y-513746D01*
G01X1236150Y-508659D01*
G01X1225082Y-506906D01*
G01X1145083Y-506906D01*
G01X1133999Y-508664D01*
G01X1124004Y-513766D01*
G01X1118527Y-507581D01*
G01X1112080Y-502415D01*
G01X1120187Y-491464D01*
G01X1127933Y-498322D01*
G01X1137316Y-502680D01*
G01X1147553Y-504174D01*
G01X1228200Y-504174D01*
G01X1239267Y-502421D01*
G01X1249251Y-497334D01*
G01X1257174Y-489411D01*
G01X1262261Y-479427D01*
G01X1264014Y-468360D01*
G01X1264014Y-381960D01*
G01X1262261Y-370892D01*
G01X1257174Y-360909D01*
G01X1249251Y-352985D01*
G01X1239267Y-347898D01*
G01X1228200Y-346146D01*
G01X1147553Y-346146D01*
G01X1137316Y-347640D01*
G01X1127933Y-351998D01*
G01X1120187Y-358856D01*
G01X1112526Y-348363D01*
G01X1102355Y-340280D01*
G01X1090403Y-335185D01*
G01X1077527Y-333446D01*
G01X996880Y-333446D01*
G01X983866Y-335224D01*
G01X971806Y-340428D01*
G01X961584Y-348676D01*
G01X953949Y-359364D01*
G01X943470Y-350136D01*
G01X930798Y-344275D01*
G01X916980Y-342266D01*
G01X830580Y-342266D01*
G01X816782Y-344269D01*
G01X804124Y-350114D01*
G01X793651Y-359317D01*
G01X786228Y-371119D01*
G01X555040Y-371119D01*
G01X540918Y-363648D01*
G01X525520Y-359385D01*
G01X509567Y-358530D01*
G01X493802Y-361124D01*
G01X478963Y-367045D01*
G01X465743Y-376016D01*
G01X454759Y-387618D01*
G01X446525Y-401309D01*
G01X441426Y-416450D01*
G01X439699Y-432333D01*
G01X441426Y-448216D01*
G01X446525Y-463357D01*
G01X454759Y-477049D01*
G01X465743Y-488651D01*
G01X478963Y-497622D01*
G01X493802Y-503543D01*
G01X509567Y-506137D01*
G01X525520Y-505282D01*
G01X540918Y-501019D01*
G01X555040Y-493547D01*
G01X787402Y-493547D01*
G01X791662Y-500394D01*
G01X796998Y-506440D01*
G01X788907Y-516614D01*
G01X783807Y-528571D01*
G01X782066Y-541453D01*
G01X782066Y-622100D01*
G01X783155Y-632325D01*
G01X786376Y-642091D01*
G01X791582Y-650959D01*
G01X777703Y-662671D01*
G01X765475Y-676098D01*
G01X755109Y-691009D01*
G01X746783Y-707148D01*
G01X734098Y-692566D01*
G01X718671Y-680922D01*
G01X701170Y-672719D01*
G01X682351Y-668313D01*
G01X668307Y-659451D01*
G01X652639Y-653949D01*
G01X636138Y-652084D01*
G01X440391Y-652084D01*
G01X434614Y-647041D01*
G01X434614Y-547150D01*
G01X433194Y-532730D01*
G01X428988Y-518864D01*
G01X422157Y-506086D01*
G01X412965Y-494885D01*
G01X363365Y-445285D01*
G01X352164Y-436093D01*
G01X339386Y-429262D01*
G01X325520Y-425056D01*
G01X311100Y-423636D01*
G01X251756Y-423636D01*
G01X246719Y-412322D01*
G01X238981Y-402652D01*
G01X229046Y-395256D01*
G01X217563Y-390617D01*
G01X205280Y-389036D01*
G01X145280Y-389036D01*
G01X133086Y-390594D01*
G01X121675Y-395166D01*
G01X111780Y-402459D01*
G01X109494Y-400411D01*
G01X109494Y-397220D01*
G01X108318Y-385278D01*
G01X104834Y-373794D01*
G01X99177Y-363211D01*
G01X91565Y-353935D01*
G01X29279Y-291649D01*
G01X103420Y-291649D01*
G01X112850Y-290724D01*
G01X121920Y-287983D01*
G01X130990Y-290724D01*
G01X140420Y-291649D01*
G01X230420Y-291649D01*
G01X239850Y-290724D01*
G01X248920Y-287983D01*
G01X257990Y-290724D01*
G01X267420Y-291649D01*
G01X357420Y-291649D01*
G01X366850Y-290724D01*
G01X375920Y-287983D01*
G01X384990Y-290724D01*
G01X394420Y-291649D01*
G01X484420Y-291649D01*
G01X493850Y-290724D01*
G01X502920Y-287983D01*
G01X511990Y-290724D01*
G01X521420Y-291649D01*
G01X611420Y-291649D01*
G01X622797Y-290296D01*
G01X633539Y-286313D01*
G01X640888Y-288064D01*
G01X648420Y-288652D01*
G01X738420Y-288652D01*
G01X750976Y-286999D01*
G01X762677Y-282152D01*
G01X772724Y-274443D01*
G01X780434Y-264395D01*
G01X785281Y-252694D01*
G01X786934Y-240138D01*
G01X786934Y-132996D01*
G01X794925Y-133659D01*
G01X944924Y-133659D01*
G01X957846Y-131906D01*
G01X969834Y-126775D01*
G01X980022Y-118637D01*
G01X987675Y-108079D01*
G01X1063842Y-108079D01*
G01X1074075Y-116361D01*
G01X1086157Y-121588D01*
G01X1099200Y-123374D01*
G01X1185600Y-123374D01*
G01X1198478Y-121634D01*
G01X1210432Y-116537D01*
G01X1220605Y-108450D01*
G01X1289686Y-108450D01*
G01X1289686Y-136200D01*
G01X1291339Y-148756D01*
G01X1296186Y-160457D01*
G01X1303896Y-170504D01*
G01X1313943Y-178214D01*
G01X1325644Y-183061D01*
G01X1338200Y-184714D01*
G01X1352654Y-184714D01*
G01X1336579Y-200097D01*
G01X1323231Y-217899D01*
G01X1312968Y-237642D01*
G01X1306067Y-258795D01*
G01X1302713Y-280791D01*
G01X1302994Y-303039D01*
G01X1306905Y-324943D01*
G01X1314340Y-345915D01*
G01X1325099Y-365391D01*
G01X1338894Y-382848D01*
G01X1355354Y-397820D01*
G01X1374038Y-409902D01*
G01X1394444Y-418772D01*
G01X1416025Y-424191D01*
G01X1438200Y-426014D01*
G01X1460376Y-424191D01*
G01X1481956Y-418772D01*
G01X1502362Y-409902D01*
G01X1521046Y-397820D01*
G01X1537506Y-382848D01*
G01X1551301Y-365390D01*
G01X1562060Y-345914D01*
G01X1569495Y-324943D01*
G01X1573406Y-303039D01*
G01X1573687Y-280791D01*
G01X1570333Y-258795D01*
G01X1563432Y-237641D01*
G01X1553169Y-217899D01*
G01X1539821Y-200097D01*
G01X1523745Y-184714D01*
G01X1538200Y-184714D01*
G01X1550756Y-183061D01*
G01X1562457Y-178214D01*
G01X1572504Y-170504D01*
G01X1580214Y-160457D01*
G01X1585061Y-148756D01*
G01X1586714Y-136200D01*
G01X1586714Y63800D01*
G01X1585061Y76356D01*
G01X1582035Y83662D01*
G01X1720135Y83662D01*
G01X1722324Y64306D01*
G01X1728279Y45760D01*
G01X1737766Y28748D01*
G01X1750415Y13935D01*
G01X1765732Y1900D01*
G01X1783117Y-6885D01*
G01X1767694Y-15947D01*
G01X1754485Y-28009D01*
G01X1744063Y-42548D01*
G01X1736882Y-58931D01*
G01X1733254Y-76447D01*
G01X1733335Y-94335D01*
G01X1737124Y-111817D01*
G01X1744454Y-128134D01*
G01X1755008Y-142577D01*
G01X1768327Y-154518D01*
G01X1783832Y-163438D01*
G01X1800849Y-168951D01*
G01X1818640Y-170815D01*
G01X1818640Y-170815D01*
G01X1836431Y-168951D01*
G01X1853448Y-163438D01*
G01X1868953Y-154518D01*
G01X1882272Y-142577D01*
G01X1892826Y-128134D01*
G01X1900156Y-111817D01*
G01X1903945Y-94335D01*
G01X1904026Y-76447D01*
G01X1900398Y-58931D01*
G01X1893217Y-42548D01*
G01X1882795Y-28009D01*
G01X1869586Y-15947D01*
G01X1854163Y-6885D01*
G01X1871548Y1900D01*
G01X1886865Y13935D01*
G01X1899514Y28748D01*
G01X1909001Y45760D01*
G01X1914956Y64306D01*
G01X1917145Y83662D01*
G01X1915483Y103069D01*
G01X1910035Y121771D01*
G01X1901013Y139034D01*
G01X1888772Y154186D01*
G01X1873788Y166632D01*
G01X1856649Y175887D01*
G01X1838023Y181589D01*
G01X1818640Y183515D01*
G01X1799257Y181589D01*
G01X1780631Y175887D01*
G01X1763492Y166632D01*
G01X1748508Y154186D01*
G01X1736267Y139034D01*
G01X1727245Y121771D01*
G01X1721797Y103069D01*
G01X1720135Y83662D01*
G01X1582035Y83662D01*
G01X1580214Y88057D01*
G01X1572504Y98104D01*
G01X1562457Y105814D01*
G01X1550756Y110661D01*
G01X1538200Y112314D01*
G01X1338200Y112314D01*
G01X1325644Y110661D01*
G01X1313943Y105814D01*
G01X1303896Y98104D01*
G01X1296186Y88057D01*
G01X1291339Y76356D01*
G01X1289686Y63800D01*
G01X1289686Y39378D01*
G01X1220605Y39378D01*
G01X1219182Y40800D01*
G01X1227273Y50974D01*
G01X1232373Y62931D01*
G01X1234114Y75813D01*
G01X1234114Y156460D01*
G01X1233139Y166140D01*
G01X1230251Y175431D01*
G01X1225568Y183959D01*
G01X1272676Y231067D01*
G01X1887084Y231067D01*
G01X1986046Y132104D01*
G01X1986046Y-594553D01*
G01X1975894Y-599554D01*
G01X1967177Y-606770D01*
G01X1857827Y-606770D01*
G01X1846325Y-607670D01*
G01X1799077Y-607670D01*
G01X1786520Y-609323D01*
G01X1774820Y-614170D01*
G01X1764772Y-621880D01*
G01X1757062Y-631927D01*
G01X1752216Y-643628D01*
G01X1750563Y-656184D01*
G01X1750563Y-705184D01*
G01X1752216Y-717740D01*
G01X1757062Y-729441D01*
G01X1764772Y-739488D01*
G01X1774820Y-747198D01*
G01X1786520Y-752044D01*
G01X1799077Y-753698D01*
G01X1846325Y-753698D01*
G01X1857827Y-754598D01*
G01X1967971Y-754598D01*
G01X1973306Y-759204D01*
G01X1968204Y-769199D01*
G01X1966446Y-780282D01*
G01X1966446Y-860282D01*
G01X1968199Y-871349D01*
G01X1973286Y-881333D01*
G01X1981209Y-889256D01*
G01X1991193Y-894343D01*
G01X2002260Y-896096D01*
G01X2092260Y-896096D01*
G01X2103327Y-894343D01*
G01X2113311Y-889256D01*
G01X2121234Y-881333D01*
G01X2126321Y-871349D01*
G01X2128074Y-860282D01*
G01X2128074Y-780282D01*
G01X2126316Y-769199D01*
G01X2121214Y-759204D01*
G01X2126512Y-754634D01*
G01X2180011Y-754634D01*
G01X2194642Y-767084D01*
G01X2211286Y-776679D01*
G01X2229392Y-783103D01*
G01X2248361Y-786141D01*
G01X2267567Y-785695D01*
G01X2286375Y-781779D01*
G01X2304163Y-774522D01*
G01X2320343Y-764164D01*
G01X2334380Y-751048D01*
G01X2345810Y-735607D01*
G01X2354256Y-718351D01*
G01X2359438Y-699852D01*
G01X2361184Y-680720D01*
G01X2359438Y-661588D01*
G01X2354256Y-643089D01*
G01X2345810Y-625833D01*
G01X2334380Y-610392D01*
G01X2320343Y-597276D01*
G01X2304163Y-586918D01*
G01X2286375Y-579661D01*
G01X2267567Y-575745D01*
G01X2248361Y-575299D01*
G01X2229392Y-578337D01*
G01X2211286Y-584761D01*
G01X2194642Y-594356D01*
G01X2180011Y-606806D01*
G01X2127378Y-606806D01*
G01X2118647Y-599567D01*
G01X2108474Y-594553D01*
G01X2108474Y157460D01*
G01X2107298Y169402D01*
G01X2103814Y180886D01*
G01X2098158Y191469D01*
G01X2090545Y200745D01*
G01X1955724Y335565D01*
G01X1946448Y343178D01*
G01X1935865Y348835D01*
G01X1924382Y352318D01*
G01X1912439Y353495D01*
G01X1247321Y353495D01*
G01X1235378Y352318D01*
G01X1223895Y348835D01*
G01X1213312Y343178D01*
G01X1204036Y335565D01*
G01X1099715Y231245D01*
G01X1092574Y222665D01*
G01X1087110Y212930D01*
G01X1083505Y202365D01*
G01X1072706Y197101D01*
G01X1063532Y189345D01*
G01X1056545Y179572D01*
G01X1052173Y168382D01*
G01X1050686Y156460D01*
G01X1050686Y75813D01*
G01X1052427Y62931D01*
G01X1057527Y50974D01*
G01X1065618Y40800D01*
G01X1064556Y39749D01*
G01X993393Y39749D01*
G01X993438Y41855D01*
G01X993438Y131855D01*
G01X992513Y141285D01*
G01X989772Y150355D01*
G01X992513Y159425D01*
G01X993438Y168855D01*
G01X993438Y258855D01*
G01X992513Y268285D01*
G01X989772Y277355D01*
G01X992513Y286425D01*
G01X993438Y295855D01*
G01X993438Y385855D01*
G01X992513Y395285D01*
G01X989772Y404355D01*
G01X992513Y413425D01*
G01X993438Y422855D01*
G01X993438Y512855D01*
G01X992513Y522285D01*
G01X989772Y531355D01*
G01X992513Y540425D01*
G01X993438Y549855D01*
G01X993438Y639855D01*
G01X992513Y649285D01*
G01X989772Y658355D01*
G01X992513Y667425D01*
G01X993438Y676855D01*
G01X993438Y766855D01*
G01X992513Y776285D01*
G01X989772Y785355D01*
G01X992513Y794425D01*
G01X993438Y803855D01*
G01X993438Y893855D01*
G01X992513Y903285D01*
G01X989772Y912355D01*
G01X992513Y921425D01*
G01X993438Y930855D01*
G01X993438Y1020855D01*
G01X992513Y1030285D01*
G01X989772Y1039355D01*
G01X992347Y1047621D01*
G01X993629Y1047621D01*
G01X1032075Y1009175D01*
G01X1042889Y1000568D01*
G01X1055358Y994606D01*
G01X1068846Y991594D01*
G01X1068846Y967460D01*
G01X1070499Y954904D01*
G01X1075346Y943203D01*
G01X1083056Y933156D01*
G01X1093103Y925446D01*
G01X1104804Y920599D01*
G01X1117360Y918946D01*
G01X1287360Y918946D01*
G01X1299916Y920599D01*
G01X1311617Y925446D01*
G01X1321664Y933156D01*
G01X1329374Y943203D01*
G01X1334221Y954904D01*
G01X1335874Y967460D01*
G01X1335874Y1137460D01*
G01X1334221Y1150016D01*
G01X1329374Y1161717D01*
G01X1321664Y1171764D01*
G01X1311617Y1179474D01*
G01X1299916Y1184321D01*
G01X1287360Y1185974D01*
G01X1259884Y1185974D01*
G01X1278947Y1197096D01*
G01X1295917Y1211207D01*
G01X1310330Y1227921D01*
G01X1321793Y1246781D01*
G01X1329993Y1267271D01*
G01X1334705Y1288833D01*
G01X1335801Y1310876D01*
G01X1333250Y1332798D01*
G01X1327123Y1354001D01*
G01X1317587Y1373905D01*
G01X1304902Y1391965D01*
G01X1289415Y1407690D01*
G01X1271549Y1420648D01*
G01X1251793Y1430486D01*
G01X1230686Y1436935D01*
G01X1208805Y1439818D01*
G01X1230494Y1442968D01*
G01X1251258Y1449984D01*
G01X1270412Y1460636D01*
G01X1287327Y1474573D01*
G01X1301445Y1491336D01*
G01X1312303Y1510375D01*
G01X1319542Y1531062D01*
G01X1322925Y1552716D01*
G01X1322341Y1574625D01*
G01X1317807Y1596068D01*
G01X1309475Y1616339D01*
G01X1297617Y1634771D01*
G01X1282624Y1650757D01*
G01X1264990Y1663772D01*
G01X1245295Y1673387D01*
G01X1224187Y1679286D01*
G01X1202360Y1681274D01*
G01X1180534Y1679286D01*
G01X1159425Y1673387D01*
G01X1139730Y1663772D01*
G01X1122096Y1650757D01*
G01X1107103Y1634771D01*
G01X1095246Y1616339D01*
G01X1086913Y1596068D01*
G01X1082380Y1574625D01*
G01X1081795Y1552716D01*
G01X1085178Y1531062D01*
G01X1092417Y1510375D01*
G01X1103275Y1491336D01*
G01X1117393Y1474573D01*
G01X1134308Y1460636D01*
G01X1153462Y1449984D01*
G01X1174226Y1442968D01*
G01X1195915Y1439818D01*
G01X1172877Y1436678D01*
G01X1150733Y1429588D01*
G01X1130155Y1418765D01*
G01X1111766Y1404535D01*
G01X1096125Y1387331D01*
G01X1083706Y1367674D01*
G01X1075360Y1367674D01*
G01X1063418Y1366498D01*
G01X1051934Y1363014D01*
G01X1041351Y1357358D01*
G01X1032075Y1349745D01*
G01X993433Y1311102D01*
G01X993438Y1311855D01*
G01X993438Y1401855D01*
G01X992513Y1411285D01*
G01X989772Y1420355D01*
G01X992513Y1429425D01*
G01X993438Y1438855D01*
G01X993438Y1528855D01*
G01X991941Y1540815D01*
G01X987542Y1552037D01*
G01X980511Y1561828D01*
G01X980738Y1565855D01*
G01X980738Y1655855D01*
G01X978986Y1666922D01*
G01X973899Y1676906D01*
G01X965975Y1684829D01*
G01X955992Y1689916D01*
G01X944924Y1691669D01*
G01X794925Y1691669D01*
G01X783858Y1689916D01*
G01X773874Y1684829D01*
G01X765951Y1676906D01*
G01X760864Y1666922D01*
G01X759111Y1655855D01*
G01X759111Y1565855D01*
G01X759338Y1561828D01*
G01X752308Y1552037D01*
G01X747908Y1540815D01*
G01X746411Y1528855D01*
G01X746411Y1438855D01*
G01X747336Y1429425D01*
G01X750077Y1420355D01*
G01X747336Y1411285D01*
G01X746411Y1401855D01*
G01X746411Y1311855D01*
G01X747336Y1302425D01*
G01X750077Y1293355D01*
G01X747336Y1284285D01*
G01X746411Y1274855D01*
G01X746411Y1184855D01*
G01X747336Y1175425D01*
G01X750077Y1166355D01*
G01X747336Y1157285D01*
G01X746411Y1147855D01*
G01X746411Y1057855D01*
G01X747336Y1048425D01*
G01X750077Y1039355D01*
G01X747336Y1030285D01*
G01X746411Y1020855D01*
G01X746411Y930855D01*
G01X747336Y921425D01*
G01X750077Y912355D01*
G01X747336Y903285D01*
G01X746411Y893855D01*
G01X746411Y803855D01*
G01X747336Y794425D01*
G01X750077Y785355D01*
G01X747336Y776285D01*
G01X746411Y766855D01*
G01X746411Y676855D01*
G01X747336Y667425D01*
G01X750077Y658355D01*
G01X747336Y649285D01*
G01X746411Y639855D01*
G01X746411Y549855D01*
G01X747336Y540425D01*
G01X750077Y531355D01*
G01X747336Y522285D01*
G01X746411Y512855D01*
G01X746411Y422855D01*
G01X747336Y413425D01*
G01X750077Y404355D01*
G01X747336Y395285D01*
G01X746411Y385855D01*
G01X746411Y295855D01*
G01X747336Y286425D01*
G01X750077Y277355D01*
G01X747336Y268285D01*
G01X746411Y258855D01*
G01X746411Y168855D01*
G01X747336Y159425D01*
G01X750077Y150355D01*
G01X747336Y141285D01*
G01X746411Y131855D01*
G01X746411Y41855D01*
G01X747336Y32425D01*
G01X750077Y23355D01*
G01X747336Y14285D01*
G01X746411Y4855D01*
G01X746411Y-42287D01*
G01X738420Y-41624D01*
G01X648420Y-41624D01*
G01X637043Y-42977D01*
G01X626301Y-46960D01*
G01X618952Y-45210D01*
G01X611420Y-44621D01*
G01X521420Y-44621D01*
G01X511990Y-45547D01*
G01X502920Y-48287D01*
G01X493850Y-45547D01*
G01X484420Y-44621D01*
G01X394420Y-44621D01*
G01X384990Y-45547D01*
G01X375920Y-48287D01*
G01X366850Y-45547D01*
G01X357420Y-44621D01*
G01X267420Y-44621D01*
G01X257990Y-45547D01*
G01X248920Y-48287D01*
G01X239850Y-45547D01*
G01X230420Y-44621D01*
G01X140420Y-44621D01*
G01X130990Y-45547D01*
G01X121920Y-48287D01*
G01X112850Y-45547D01*
G01X103420Y-44621D01*
G01X13420Y-44621D01*
G01X3990Y-45547D01*
G01X-5080Y-48287D01*
G01X-14150Y-45547D01*
G01X-23580Y-44621D01*
G01X-113580Y-44621D01*
G01X-123010Y-45547D01*
G01X-132080Y-48287D01*
G01X-141150Y-45547D01*
G01X-150580Y-44621D01*
G01X-240580Y-44621D01*
G01X-250010Y-45547D01*
G01X-259080Y-48287D01*
G01X-268150Y-45547D01*
G01X-277580Y-44621D01*
G01X-367580Y-44621D01*
G01X-377010Y-45547D01*
G01X-386080Y-48287D01*
G01X-395150Y-45547D01*
G01X-404580Y-44621D01*
G01X-494580Y-44621D01*
G01X-504010Y-45547D01*
G01X-513080Y-48287D01*
G01X-522150Y-45547D01*
G01X-531580Y-44621D01*
G01X-621580Y-44621D01*
G01X-631010Y-45547D01*
G01X-640080Y-48287D01*
G01X-649150Y-45547D01*
G01X-658580Y-44621D01*
G01X-748580Y-44621D01*
G01X-756571Y-45284D01*
G01X-756571Y4855D01*
G01X-757496Y14285D01*
G01X-760237Y23355D01*
G01X-757496Y32425D01*
G01X-756571Y41855D01*
G01X-756571Y131855D01*
G01X-757496Y141285D01*
G01X-760237Y150355D01*
G01X-757496Y159425D01*
G01X-756571Y168855D01*
G01X-756571Y258855D01*
G01X-757496Y268285D01*
G01X-760237Y277355D01*
G01X-757496Y286425D01*
G01X-756571Y295855D01*
G01X-756571Y385855D01*
G01X-757496Y395285D01*
G01X-760237Y404355D01*
G01X-757496Y413425D01*
G01X-756571Y422855D01*
G01X-756571Y512855D01*
G01X-757496Y522285D01*
G01X-760237Y531355D01*
G01X-757496Y540425D01*
G01X-756571Y549855D01*
G01X-756571Y639855D01*
G01X-757496Y649285D01*
G01X-760237Y658355D01*
G01X-757496Y667425D01*
G01X-756571Y676855D01*
G01X-756571Y746201D01*
G01X-41564Y31195D01*
G01X-36862Y15926D01*
G01X-28989Y2024D01*
G01X-18312Y-9862D01*
G01X-5330Y-19175D01*
G01X9349Y-25481D01*
G01X25040Y-28486D01*
G01X41011Y-28048D01*
G01X56514Y-24189D01*
G01X70827Y-17089D01*
G01X83278Y-7078D01*
G01X93289Y5373D01*
G01X100389Y19686D01*
G01X104248Y35189D01*
G01X104686Y51160D01*
G01X101681Y66851D01*
G01X95375Y81530D01*
G01X86062Y94512D01*
G01X74176Y105189D01*
G01X60274Y113062D01*
G01X45005Y117764D01*
G01X-734450Y897220D01*
G01X-746347Y906489D01*
G01X-760149Y912569D01*
G01X-757474Y921539D01*
G01X-756571Y930855D01*
G01X-756571Y1020855D01*
G01X-756865Y1023852D01*
G01X-375911Y1023852D01*
G01X-375911Y933853D01*
G01X-374729Y924729D01*
G01X-371263Y916207D01*
G01X-365739Y908850D01*
G01X-371263Y901493D01*
G01X-374729Y892971D01*
G01X-375911Y883848D01*
G01X-375911Y793848D01*
G01X-374729Y784724D01*
G01X-371263Y776203D01*
G01X-365739Y768845D01*
G01X-371263Y761488D01*
G01X-374729Y752966D01*
G01X-375911Y743843D01*
G01X-375911Y653843D01*
G01X-374158Y642776D01*
G01X-369071Y632792D01*
G01X-361148Y624869D01*
G01X-351164Y619782D01*
G01X-340097Y618029D01*
G01X-250097Y618029D01*
G01X-240974Y619211D01*
G01X-232452Y622678D01*
G01X-225095Y628201D01*
G01X-217738Y622678D01*
G01X-209216Y619211D01*
G01X-200092Y618029D01*
G01X-200092Y618029D01*
G01X-110092Y618029D01*
G01X-100969Y619211D01*
G01X-92447Y622678D01*
G01X-85090Y628201D01*
G01X-77733Y622678D01*
G01X-69211Y619211D01*
G01X-60088Y618029D01*
G01X29912Y618029D01*
G01X40979Y619782D01*
G01X50963Y624869D01*
G01X58886Y632792D01*
G01X63973Y642776D01*
G01X65726Y653843D01*
G01X65726Y743843D01*
G01X64545Y752966D01*
G01X61078Y761488D01*
G01X55554Y768845D01*
G01X61078Y776203D01*
G01X64545Y784724D01*
G01X65726Y793848D01*
G01X65726Y883848D01*
G01X64545Y892971D01*
G01X61078Y901493D01*
G01X55554Y908850D01*
G01X61078Y916207D01*
G01X64545Y924729D01*
G01X65726Y933853D01*
G01X65726Y1023852D01*
G01X63973Y1034920D01*
G01X58886Y1044903D01*
G01X50963Y1052827D01*
G01X40979Y1057914D01*
G01X29912Y1059666D01*
G01X-60088Y1059666D01*
G01X-69211Y1058485D01*
G01X-77733Y1055018D01*
G01X-85090Y1049494D01*
G01X-92447Y1055018D01*
G01X-100969Y1058485D01*
G01X-110092Y1059666D01*
G01X-200092Y1059666D01*
G01X-209216Y1058485D01*
G01X-217738Y1055018D01*
G01X-225095Y1049494D01*
G01X-232452Y1055018D01*
G01X-240974Y1058485D01*
G01X-250097Y1059666D01*
G01X-340097Y1059666D01*
G01X-351164Y1057914D01*
G01X-361148Y1052827D01*
G01X-369071Y1044903D01*
G01X-374158Y1034920D01*
G01X-375911Y1023852D01*
G01X-756865Y1023852D01*
G01X-757496Y1030285D01*
G01X-760237Y1039355D01*
G01X-757496Y1048425D01*
G01X-756571Y1057855D01*
G01X-756571Y1147855D01*
G01X-757496Y1157285D01*
G01X-760237Y1166355D01*
G01X-757496Y1175425D01*
G01X-756571Y1184855D01*
G01X-756571Y1274855D01*
G01X-757496Y1284285D01*
G01X-760237Y1293355D01*
G01X-757496Y1302425D01*
G01X-756571Y1311855D01*
G01X-756571Y1401855D01*
G01X-758391Y1415021D01*
G01X-700831Y1415021D01*
G01X-686281Y1402476D01*
G01X-669701Y1392772D01*
G01X-651638Y1386231D01*
G01X-632689Y1383068D01*
G01X-613480Y1383388D01*
G01X-594647Y1387181D01*
G01X-576812Y1394322D01*
G01X-560565Y1404573D01*
G01X-546443Y1417597D01*
G01X-534911Y1432963D01*
G01X-526353Y1450162D01*
G01X-521050Y1468627D01*
G01X-519178Y1487747D01*
G01X-520799Y1506890D01*
G01X-525859Y1525422D01*
G01X-534191Y1542733D01*
G01X-545520Y1558248D01*
G01X-559470Y1571456D01*
G01X-575582Y1581920D01*
G01X-593322Y1589294D01*
G01X-612103Y1593334D01*
G01X-631306Y1593906D01*
G01X-650295Y1590992D01*
G01X-668442Y1584688D01*
G01X-685148Y1575203D01*
G01X-699861Y1562849D01*
G01X-769397Y1562849D01*
G01X-769271Y1565855D01*
G01X-769271Y1655855D01*
G01X-771024Y1666922D01*
G01X-776111Y1676906D01*
G01X-784034Y1684829D01*
G01X-794018Y1689916D01*
G01X-805085Y1691669D01*
G01X-955084Y1691669D01*
G01X-966152Y1689916D01*
G01X-976135Y1684829D01*
G01X-984059Y1676906D01*
G01X-989146Y1666922D01*
G01X-990898Y1655855D01*
G01X-990898Y1565855D01*
G01X-990868Y1564372D01*
G01X-1009029Y1564372D01*
G01X-1014766Y1569384D01*
G01X-1009664Y1579379D01*
G01X-1007906Y1590462D01*
G01X-1007906Y1670462D01*
G01X-1009659Y1681529D01*
G01X-1014746Y1691513D01*
G01X-1022669Y1699436D01*
G01X-1032653Y1704523D01*
G01X-1043720Y1706276D01*
G01X-1133720Y1706276D01*
G01X-1144787Y1704523D01*
G01X-1154771Y1699436D01*
G01X-1162694Y1691513D01*
G01X-1167781Y1681529D01*
G01X-1169534Y1670462D01*
G01X-1169534Y1590462D01*
G01X-1167776Y1579379D01*
G01X-1162674Y1569384D01*
G01X-1168411Y1564372D01*
G01X-1191909Y1564372D01*
G01X-1197646Y1569384D01*
G01X-1192544Y1579379D01*
G01X-1190786Y1590462D01*
G01X-1190786Y1670462D01*
G01X-1192539Y1681529D01*
G01X-1197626Y1691513D01*
G01X-1205549Y1699436D01*
G01X-1215533Y1704523D01*
G01X-1226600Y1706276D01*
G01X-1316600Y1706276D01*
G01X-1327667Y1704523D01*
G01X-1337651Y1699436D01*
G01X-1345574Y1691513D01*
G01X-1350661Y1681529D01*
G01X-1352414Y1670462D01*
G01X-1352414Y1590462D01*
G01X-1350656Y1579379D01*
G01X-1345554Y1569384D01*
G01X-1351291Y1564372D01*
G01X-1374789Y1564372D01*
G01X-1380526Y1569384D01*
G01X-1375424Y1579379D01*
G01X-1373666Y1590462D01*
G01X-1373666Y1670462D01*
G01X-1375419Y1681529D01*
G01X-1380506Y1691513D01*
G01X-1388429Y1699436D01*
G01X-1398413Y1704523D01*
G01X-1409480Y1706276D01*
G01X-1499480Y1706276D01*
G01X-1510547Y1704523D01*
G01X-1520531Y1699436D01*
G01X-1528454Y1691513D01*
G01X-1533541Y1681529D01*
G01X-1535294Y1670462D01*
G01X-1535294Y1590462D01*
G01X-1533536Y1579379D01*
G01X-1528434Y1569384D01*
G01X-1534171Y1564372D01*
G01X-1730090Y1564372D01*
G01X-1744209Y1577390D01*
G01X-1760451Y1587638D01*
G01X-1778280Y1594776D01*
G01X-1797107Y1598570D01*
G01X-1816309Y1598894D01*
G01X-1835252Y1595736D01*
G01X-1853311Y1589202D01*
G01X-1869889Y1579507D01*
G01X-1884439Y1566972D01*
G01X-1896479Y1552010D01*
G01X-1905612Y1535116D01*
G01X-1911537Y1516848D01*
G01X-1914057Y1497809D01*
G01X-1913089Y1478628D01*
G01X-1908666Y1459940D01*
G01X-1900933Y1442361D01*
G01X-1890146Y1426472D01*
G01X-1876662Y1412797D01*
G01X-1860924Y1401790D01*
G01X-1843455Y1393812D01*
G01X-1824830Y1389129D01*
G01X-1805665Y1387893D01*
G01X-1786593Y1390148D01*
G01X-1768244Y1395817D01*
G01X-1751224Y1404713D01*
G01X-1736096Y1416544D01*
G01X-1534171Y1416544D01*
G01X-1529921Y1412682D01*
G01X-1536742Y1402980D01*
G01X-1541004Y1391912D01*
G01X-1542454Y1380140D01*
G01X-1542454Y1293740D01*
G01X-1540981Y1281874D01*
G01X-1536650Y1270729D01*
G01X-1529725Y1260982D01*
G01X-1520627Y1253225D01*
G01X-1509907Y1247928D01*
G01X-1517534Y1240044D01*
G01X-1522416Y1230220D01*
G01X-1524096Y1219380D01*
G01X-1524096Y1129380D01*
G01X-1522343Y1118313D01*
G01X-1517256Y1108329D01*
G01X-1509333Y1100406D01*
G01X-1499349Y1095319D01*
G01X-1488282Y1093566D01*
G01X-1408282Y1093566D01*
G01X-1397199Y1095324D01*
G01X-1387204Y1100426D01*
G01X-1379230Y1092023D01*
G01X-1369492Y1085750D01*
G01X-1369492Y1036486D01*
G01X-1381874Y1034645D01*
G01X-1393374Y1029697D01*
G01X-1403224Y1021971D01*
G01X-1410770Y1011981D01*
G01X-1415508Y1000394D01*
G01X-1417123Y987979D01*
G01X-1417123Y805615D01*
G01X-1419679Y805615D01*
G01X-1431622Y804438D01*
G01X-1443105Y800955D01*
G01X-1453688Y795298D01*
G01X-1462964Y787685D01*
G01X-1511405Y739245D01*
G01X-1517957Y731504D01*
G01X-1530297Y728475D01*
G01X-1541426Y722346D01*
G01X-1550583Y713537D01*
G01X-1557138Y702653D01*
G01X-1934493Y702653D01*
G01X-1946487Y715296D01*
G01X-1960521Y725628D01*
G01X-1976157Y733325D01*
G01X-1960734Y742387D01*
G01X-1947525Y754449D01*
G01X-1937103Y768988D01*
G01X-1929922Y785371D01*
G01X-1926481Y801980D01*
G01X-1841404Y801980D01*
G01X-1839652Y790913D01*
G01X-1834565Y780929D01*
G01X-1826641Y773006D01*
G01X-1816658Y767919D01*
G01X-1805590Y766166D01*
G01X-1682591Y766166D01*
G01X-1671524Y767919D01*
G01X-1661540Y773006D01*
G01X-1653617Y780929D01*
G01X-1648530Y790913D01*
G01X-1646777Y801980D01*
G01X-1646777Y987979D01*
G01X-1648530Y999047D01*
G01X-1653617Y1009030D01*
G01X-1661540Y1016954D01*
G01X-1671524Y1022041D01*
G01X-1682591Y1023793D01*
G01X-1805590Y1023793D01*
G01X-1816658Y1022041D01*
G01X-1826641Y1016954D01*
G01X-1834565Y1009030D01*
G01X-1839652Y999047D01*
G01X-1841404Y987979D01*
G01X-1841404Y801980D01*
G01X-1841404Y801980D01*
G01X-1926481Y801980D01*
G01X-1926294Y802887D01*
G01X-1926375Y820775D01*
G01X-1930164Y838257D01*
G01X-1937494Y854574D01*
G01X-1948048Y869017D01*
G01X-1961367Y880958D01*
G01X-1976872Y889878D01*
G01X-1993889Y895391D01*
G01X-2011680Y897255D01*
G01X-2029471Y895391D01*
G01X-2046488Y889878D01*
G01X-2061993Y880958D01*
G01X-2075312Y869017D01*
G01X-2085866Y854574D01*
G01X-2093196Y838257D01*
G01X-2096985Y820775D01*
G01X-2097066Y802887D01*
G01X-2093438Y785371D01*
G01X-2086257Y768988D01*
G01X-2075835Y754449D01*
G01X-2062626Y742387D01*
G01X-2047203Y733325D01*
G01X-2062926Y725575D01*
G01X-2077027Y715160D01*
G01X-2089058Y702412D01*
G01X-2151650Y702412D01*
G01X-2157923Y712150D01*
G01X-2166326Y720124D01*
G01X-2161224Y730119D01*
G01X-2159466Y741202D01*
G01X-2159466Y821202D01*
G01X-2161219Y832269D01*
G01X-2166306Y842253D01*
G01X-2174229Y850176D01*
G01X-2184213Y855263D01*
G01X-2195280Y857016D01*
G01X-2285280Y857016D01*
G01X-2296347Y855263D01*
G01X-2306331Y850176D01*
G01X-2314254Y842253D01*
G01X-2319341Y832269D01*
G01X-2321094Y821202D01*
G01X-2321094Y741202D01*
G01X-2319336Y730119D01*
G01X-2314234Y720124D01*
G01X-2322434Y712394D01*
G01X-2328629Y702980D01*
G01X-2332485Y692391D01*
G01X-2333794Y681198D01*
G01X-2419942Y681198D01*
G01X-2394423Y766727D01*
G01X-2361951Y861579D01*
G01X-2325724Y955060D01*
G01X-2285799Y1047023D01*
G01X-2242239Y1137320D01*
G01X-2195113Y1225810D01*
G01X-2144497Y1312350D01*
G01X-2090472Y1396803D01*
G01X-2033122Y1479036D01*
G01X-1972539Y1558916D01*
G01X-1908820Y1636318D01*
G01X-1842066Y1711118D01*
G01X-1772382Y1783197D01*
G01X-1699881Y1852441D01*
G01X-1624676Y1918739D01*
G01X-1546888Y1981986D01*
G01X-1466641Y2042081D01*
G01X-1384061Y2098930D01*
G01X-1299280Y2152441D01*
G01X-1212434Y2202529D01*
G01X-1123660Y2249116D01*
G01X-1033099Y2292125D01*
G01X-940895Y2331491D01*
G01X-940895Y2331491D01*
G01X-940895Y1756895D01*
G01X-939142Y1745828D01*
G01X-934055Y1735844D01*
G01X-926132Y1727921D01*
G01X-916148Y1722834D01*
G01X-905081Y1721081D01*
G01X894921Y1721081D01*
G01X905988Y1722834D01*
G01X915972Y1727921D01*
G01X923895Y1735844D01*
G01X928982Y1745828D01*
G01X930735Y1756895D01*
G37*
G54D10*
G01X930735Y1756895D02*
G01X930735Y2335565D01*
G02X2505234Y-211979I-930735J-2335565D01*
G02X525067Y-2458747I-2505234J211979D01*
G03X533425Y-2419609I-87456J39138D01*
G01X533425Y-2359609D01*
G03X341797Y-2359609I-95814J0D01*
G01X341797Y-2419609D01*
G03X369404Y-2486900I95814J0D01*
G02X-360516Y-2488204I-369404J2486900D01*
G03X-331597Y-2419609I-66895J68595D01*
G01X-331597Y-2359609D01*
G03X-523225Y-2359609I-95814J0D01*
G01X-523225Y-2419609D01*
G03X-513759Y-2461135I95814J0D01*
G02X-2504260Y-223189I513759J2461135D01*
G02X-940895Y2331491I2504260J223189D01*
G01X-940895Y1756895D01*
G03X-905081Y1721081I35814J0D01*
G01X894921Y1721081D01*
G03X930735Y1756895I0J35814D01*
G01X-1473200Y-170815D02*
G03X-1437677Y-6885I0J85814D01*
G03X-1411122Y161495I-35523J91886D01*
G01X-1411122Y238134D01*
G03X-1397000Y248338I-20890J43786D01*
G03X-1361987Y233406I35013J33582D01*
G01X-1281340Y233406D01*
G03X-1232826Y281920I0J48514D01*
G01X-1232826Y368320D01*
G03X-1247750Y403325I-48514J0D01*
G01X-1247750Y404395D01*
G03X-1232826Y439400I-33590J35004D01*
G01X-1232826Y525800D01*
G03X-1247750Y560805I-48514J0D01*
G01X-1247750Y561875D01*
G03X-1243786Y566166I-33589J35004D01*
G01X-1168400Y566166D01*
G03X-1116135Y587815I0J73914D01*
G01X-1050029Y653921D01*
G01X-1001515Y653921D01*
G03X-1003598Y639855I46430J-14066D01*
G01X-1003598Y549855D01*
G03X-999932Y531355I48514J0D01*
G03X-1003279Y518414I44848J-18500D01*
G01X-1016000Y518414D01*
G03X-1059285Y500485I0J-61214D01*
G01X-1211685Y348085D01*
G03X-1229614Y304800I43285J-43285D01*
G01X-1229614Y-289604D01*
G01X-1402899Y-462890D01*
G01X-1589414Y-462890D01*
G03X-1633200Y-435266I-43786J-20890D01*
G01X-1719600Y-435266D01*
G03X-1768114Y-483780I0J-48514D01*
G01X-1768114Y-564427D01*
G03X-1753182Y-599440I48514J0D01*
G03X-1758776Y-605836I33582J-35013D01*
G03X-1856992Y-676187I-24304J-69804D01*
G03X-1757745Y-745076I73912J547D01*
G03X-1719600Y-763614I38145J29976D01*
G01X-1633200Y-763614D01*
G03X-1584686Y-715100I0J48514D01*
G01X-1584686Y-634453D01*
G03X-1599618Y-599440I-48514J0D01*
G03X-1589414Y-585318I-33582J35012D01*
G01X-1377544Y-585318D01*
G03X-1334259Y-567389I0J61214D01*
G01X-1156135Y-389264D01*
G01X-1156135Y-643120D01*
G03X-1183914Y-686980I20734J-43860D01*
G01X-1183914Y-767627D01*
G03X-1168982Y-802640I48514J0D01*
G03X-1179001Y-816379I33582J-35013D01*
G03X-1206520Y-795933I-40826J-26208D01*
G03X-1184039Y-762693I-13333J33240D01*
G01X-1184039Y-682694D01*
G03X-1219853Y-646880I-35814J0D01*
G01X-1299853Y-646880D01*
G03X-1335667Y-682694I0J-35814D01*
G01X-1335667Y-762693D01*
G03X-1313164Y-795942I35814J0D01*
G03X-1348341Y-842587I13337J-46645D01*
G01X-1348341Y-922586D01*
G03X-1299827Y-971100I48514J0D01*
G01X-1219827Y-971100D01*
G03X-1176407Y-944225I0J48514D01*
G03X-1135400Y-966814I41006J25925D01*
G01X-1049000Y-966814D01*
G03X-1005954Y-940677I0J48514D01*
G03X-985124Y-959748I41757J24697D01*
G03X-967482Y-997108I60927J5925D01*
G01X-937345Y-1027245D01*
G03X-894060Y-1045174I43285J43285D01*
G01X-452100Y-1045174D01*
G03X-408815Y-1027245I0J61214D01*
G01X-373255Y-991685D01*
G03X-356949Y-962401I-43285J43285D01*
G03X-324826Y-916740I-16391J45661D01*
G01X-324826Y-836093D01*
G03X-339758Y-801080I-48514J0D01*
G01X-338355Y-799679D01*
G03X-255754Y-726731I8689J73402D01*
G03X-337453Y-652774I-73913J454D01*
G03X-355326Y-640374I-35887J-32646D01*
G01X-355326Y-567654D01*
G01X-283170Y-567654D01*
G03X-235720Y-606064I47450J10104D01*
G01X-175720Y-606064D01*
G03X-142220Y-592640I0J48514D01*
G03X-108720Y-606064I33500J35091D01*
G01X-48720Y-606064D01*
G03X-15220Y-592640I0J48514D01*
G03X18280Y-606064I33500J35091D01*
G01X78280Y-606064D01*
G03X111780Y-592640I0J48514D01*
G03X145280Y-606064I33500J35091D01*
G01X205280Y-606064D01*
G03X251756Y-571464I0J48514D01*
G01X280484Y-571464D01*
G01X286786Y-577766D01*
G01X286786Y-647041D01*
G03X267186Y-685998I28914J-38956D01*
G01X267186Y-765997D01*
G03X286746Y-804924I48514J-0D01*
G03X279886Y-826002I28954J-21078D01*
G01X279886Y-906002D01*
G03X315700Y-941816I35814J0D01*
G01X405700Y-941816D01*
G03X441514Y-906002I0J35814D01*
G01X441514Y-826002D01*
G03X434654Y-804924I-35814J-0D01*
G03X440391Y-799912I-28954J38926D01*
G01X586465Y-799912D01*
G03X642386Y-849095I84216J39371D01*
G01X642386Y-1009853D01*
G03X637786Y-1030472I43914J-20619D01*
G01X637786Y-1137472D01*
G03X686300Y-1185986I48514J0D01*
G01X746300Y-1185986D01*
G03X794808Y-1138247I0J48514D01*
G01X963780Y-1138247D01*
G03X999594Y-1102433I0J35814D01*
G01X999594Y-922434D01*
G03X963780Y-886620I-35814J0D01*
G01X935157Y-886620D01*
G03X1009140Y-791838I-61377J124173D01*
G03X981127Y-674909I-135360J29391D01*
G03X1005078Y-681234I23951J42190D01*
G01X1085078Y-681234D01*
G03X1106276Y-676358I0J48514D01*
G03X1095226Y-707180I37465J-30822D01*
G01X1095226Y-844180D01*
G03X1143740Y-892694I48514J0D01*
G01X1233740Y-892694D01*
G03X1281487Y-852772I0J48514D01*
G03X1311380Y-863076I29893J38210D01*
G01X1401380Y-863076D01*
G03X1421508Y-858704I0J48514D01*
G03X1435605Y-879335I61872J27143D01*
G01X1476245Y-919975D01*
G03X1524020Y-939764I47775J47775D01*
G01X1550126Y-939764D01*
G03X1569243Y-943690I19118J44589D01*
G01X1684943Y-943690D01*
G03X1733457Y-895176I0J48514D01*
G01X1733457Y-846176D01*
G03X1718909Y-811536I-48514J0D01*
G03X1720757Y-800180I-33966J11357D01*
G01X1720757Y-751180D01*
G03X1718909Y-739824I-35814J-0D01*
G03X1733457Y-705184I-33966J34640D01*
G01X1733457Y-656184D01*
G03X1684943Y-607670I-48514J0D01*
G01X1569243Y-607670D01*
G03X1546904Y-613120I0J-48514D01*
G01X1517416Y-613120D01*
G03X1469641Y-632909I0J-67564D01*
G01X1437194Y-665356D01*
G01X1437194Y-594558D01*
G03X1401380Y-558744I-35814J0D01*
G01X1311380Y-558744D01*
G03X1275566Y-594558I0J-35814D01*
G01X1275566Y-674557D01*
G03X1277588Y-686420I35814J-0D01*
G03X1247493Y-660656I-43848J-20760D01*
G03X1260896Y-632720I-22410J27936D01*
G01X1260896Y-542720D01*
G03X1225082Y-506906I-35814J0D01*
G01X1145083Y-506906D01*
G03X1124004Y-513766I0J-35814D01*
G03X1112080Y-502415I-38926J-28955D01*
G03X1120187Y-491464I-34553J34055D01*
G03X1147553Y-504174I27366J23103D01*
G01X1228200Y-504174D01*
G03X1264014Y-468360I0J35814D01*
G01X1264014Y-381960D01*
G03X1228200Y-346146I-35814J0D01*
G01X1147553Y-346146D01*
G03X1120187Y-358856I0J-35814D01*
G03X1077527Y-333446I-42660J-23103D01*
G01X996880Y-333446D01*
G03X953949Y-359364I0J-48514D01*
G03X916980Y-342266I-36968J-31415D01*
G01X830580Y-342266D01*
G03X786228Y-371119I0J-48514D01*
G01X555040Y-371119D01*
G03X439699Y-432333I-41426J-61214D01*
G03X555040Y-493547I73914J0D01*
G01X787402Y-493547D01*
G03X796998Y-506440I43178J22120D01*
G03X782066Y-541453I33582J-35013D01*
G01X782066Y-622100D01*
G03X791582Y-650959I48514J-0D01*
G03X746783Y-707148I82198J-111488D01*
G03X682351Y-668313I-76102J-53393D01*
G03X636138Y-652084I-46214J-57685D01*
G01X440391Y-652084D01*
G03X434614Y-647041I-34691J-33913D01*
G01X434614Y-547150D01*
G03X412965Y-494885I-73914J0D01*
G01X363365Y-445285D01*
G03X311100Y-423636I-52265J-52265D01*
G01X251756Y-423636D01*
G03X205280Y-389036I-46476J-13914D01*
G01X145280Y-389036D01*
G03X111780Y-402459I0J-48514D01*
G03X109494Y-400411I-33498J-35091D01*
G01X109494Y-397220D01*
G03X91565Y-353935I-61214J-0D01*
G01X29279Y-291649D01*
G01X103420Y-291649D01*
G03X121920Y-287983I-0J48514D01*
G03X140420Y-291649I18500J44848D01*
G01X230420Y-291649D01*
G03X248920Y-287983I-0J48514D01*
G03X267420Y-291649I18500J44848D01*
G01X357420Y-291649D01*
G03X375920Y-287983I-0J48514D01*
G03X394420Y-291649I18500J44848D01*
G01X484420Y-291649D01*
G03X502920Y-287983I-0J48514D01*
G03X521420Y-291649I18500J44848D01*
G01X611420Y-291649D01*
G03X633539Y-286313I0J48514D01*
G03X648420Y-288652I14881J46176D01*
G01X738420Y-288652D01*
G03X786934Y-240138I0J48514D01*
G01X786934Y-132996D01*
G03X794925Y-133659I7991J47851D01*
G01X944924Y-133659D01*
G03X987675Y-108079I0J48514D01*
G01X1063842Y-108079D01*
G03X1099200Y-123374I35357J33219D01*
G01X1185600Y-123374D01*
G03X1220605Y-108450I0J48514D01*
G01X1289686Y-108450D01*
G01X1289686Y-136200D01*
G03X1338200Y-184714I48514J0D01*
G01X1352654Y-184714D01*
G03X1438200Y-426014I85546J-105486D01*
G03X1523745Y-184714I0J135814D01*
G01X1538200Y-184714D01*
G03X1586714Y-136200I0J48514D01*
G01X1586714Y63800D01*
G03X1538200Y112314I-48514J0D01*
G01X1338200Y112314D01*
G03X1289686Y63800I0J-48514D01*
G01X1289686Y39378D01*
G01X1220605Y39378D01*
G01X1219182Y40800D01*
G03X1234114Y75813I-33582J35013D01*
G01X1234114Y156460D01*
G03X1225568Y183959I-48514J0D01*
G01X1272676Y231067D01*
G01X1887084Y231067D01*
G01X1986046Y132104D01*
G01X1986046Y-594553D01*
G03X1967177Y-606770I16214J-45725D01*
G01X1857827Y-606770D01*
G03X1846325Y-607670I0J-73914D01*
G01X1799077Y-607670D01*
G03X1750563Y-656184I0J-48514D01*
G01X1750563Y-705184D01*
G03X1799077Y-753698I48514J0D01*
G01X1846325Y-753698D01*
G03X1857827Y-754598I11502J73014D01*
G01X1967971Y-754598D01*
G03X1973306Y-759204I34289J34320D01*
G03X1966446Y-780282I28954J-21078D01*
G01X1966446Y-860282D01*
G03X2002260Y-896096I35814J0D01*
G01X2092260Y-896096D01*
G03X2128074Y-860282I0J35814D01*
G01X2128074Y-780282D01*
G03X2121214Y-759204I-35814J-0D01*
G03X2126512Y-754634I-28954J38926D01*
G01X2180011Y-754634D01*
G03X2361184Y-680720I75509J73914D01*
G03X2180011Y-606806I-105664J0D01*
G01X2127378Y-606806D01*
G03X2108474Y-594553I-35118J-33472D01*
G01X2108474Y157460D01*
G03X2090545Y200745I-61214J-0D01*
G01X1955724Y335565D01*
G03X1912439Y353495I-43285J-43285D01*
G01X1247321Y353495D01*
G03X1204036Y335565I0J-61214D01*
G01X1099715Y231245D01*
G03X1083505Y202365I43285J-43285D01*
G03X1050686Y156460I15695J-45905D01*
G01X1050686Y75813D01*
G03X1065618Y40800I48514J0D01*
G01X1064556Y39749D01*
G01X993393Y39749D01*
G01X993438Y41855D01*
G01X993438Y131855D01*
G03X989772Y150355I-48514J-0D01*
G03X993438Y168855I-44848J18500D01*
G01X993438Y258855D01*
G03X989772Y277355I-48514J-0D01*
G03X993438Y295855I-44848J18500D01*
G01X993438Y385855D01*
G03X989772Y404355I-48514J-0D01*
G03X993438Y422855I-44848J18500D01*
G01X993438Y512855D01*
G03X989772Y531355I-48514J-0D01*
G03X993438Y549855I-44848J18500D01*
G01X993438Y639855D01*
G03X989772Y658355I-48514J-0D01*
G03X993438Y676855I-44848J18500D01*
G01X993438Y766855D01*
G03X989772Y785355I-48514J-0D01*
G03X993438Y803855I-44848J18500D01*
G01X993438Y893855D01*
G03X989772Y912355I-48514J-0D01*
G03X993438Y930855I-44848J18500D01*
G01X993438Y1020855D01*
G03X989772Y1039355I-48514J-0D01*
G03X992347Y1047621I-44848J18501D01*
G01X993629Y1047621D01*
G01X1032075Y1009175D01*
G03X1068846Y991594I43285J43285D01*
G01X1068846Y967460D01*
G03X1117360Y918946I48514J0D01*
G01X1287360Y918946D01*
G03X1335874Y967460I0J48514D01*
G01X1335874Y1137460D01*
G03X1287360Y1185974I-48514J0D01*
G01X1259884Y1185974D01*
G03X1208805Y1439818I-57524J120486D01*
G03X1202360Y1681274I-6445J120642D01*
G03X1195915Y1439818I0J-120814D01*
G03X1083706Y1367674I6445J-133358D01*
G01X1075360Y1367674D01*
G03X1032075Y1349745I0J-61214D01*
G01X993433Y1311102D01*
G01X993438Y1311855D01*
G01X993438Y1401855D01*
G03X989772Y1420355I-48514J-0D01*
G03X993438Y1438855I-44848J18500D01*
G01X993438Y1528855D01*
G03X980511Y1561828I-48514J0D01*
G03X980738Y1565855I-35587J4027D01*
G01X980738Y1655855D01*
G03X944924Y1691669I-35814J0D01*
G01X794925Y1691669D01*
G03X759111Y1655855I0J-35814D01*
G01X759111Y1565855D01*
G03X759338Y1561828I35814J-1D01*
G03X746411Y1528855I35587J-32972D01*
G01X746411Y1438855D01*
G03X750077Y1420355I48514J0D01*
G03X746411Y1401855I44848J-18500D01*
G01X746411Y1311855D01*
G03X750077Y1293355I48514J0D01*
G03X746411Y1274855I44848J-18500D01*
G01X746411Y1184855D01*
G03X750077Y1166355I48514J0D01*
G03X746411Y1147855I44848J-18500D01*
G01X746411Y1057855D01*
G03X750077Y1039355I48514J0D01*
G03X746411Y1020855I44848J-18500D01*
G01X746411Y930855D01*
G03X750077Y912355I48514J0D01*
G03X746411Y893855I44848J-18500D01*
G01X746411Y803855D01*
G03X750077Y785355I48514J0D01*
G03X746411Y766855I44848J-18500D01*
G01X746411Y676855D01*
G03X750077Y658355I48514J0D01*
G03X746411Y639855I44848J-18500D01*
G01X746411Y549855D01*
G03X750077Y531355I48514J0D01*
G03X746411Y512855I44848J-18500D01*
G01X746411Y422855D01*
G03X750077Y404355I48514J0D01*
G03X746411Y385855I44848J-18500D01*
G01X746411Y295855D01*
G03X750077Y277355I48514J0D01*
G03X746411Y258855I44848J-18500D01*
G01X746411Y168855D01*
G03X750077Y150355I48514J0D01*
G03X746411Y131855I44848J-18500D01*
G01X746411Y41855D01*
G03X750077Y23355I48514J0D01*
G03X746411Y4855I44848J-18500D01*
G01X746411Y-42287D01*
G03X738420Y-41624I-7991J-47851D01*
G01X648420Y-41624D01*
G03X626301Y-46960I0J-48514D01*
G03X611420Y-44621I-14881J-46176D01*
G01X521420Y-44621D01*
G03X502920Y-48287I0J-48514D01*
G03X484420Y-44621I-18500J-44848D01*
G01X394420Y-44621D01*
G03X375920Y-48287I0J-48514D01*
G03X357420Y-44621I-18500J-44848D01*
G01X267420Y-44621D01*
G03X248920Y-48287I0J-48514D01*
G03X230420Y-44621I-18500J-44848D01*
G01X140420Y-44621D01*
G03X121920Y-48287I0J-48514D01*
G03X103420Y-44621I-18500J-44848D01*
G01X13420Y-44621D01*
G03X-5080Y-48287I0J-48514D01*
G03X-23580Y-44621I-18500J-44848D01*
G01X-113580Y-44621D01*
G03X-132080Y-48287I0J-48514D01*
G03X-150580Y-44621I-18500J-44848D01*
G01X-240580Y-44621D01*
G03X-259080Y-48287I0J-48514D01*
G03X-277580Y-44621I-18500J-44848D01*
G01X-367580Y-44621D01*
G03X-386080Y-48287I0J-48514D01*
G03X-404580Y-44621I-18500J-44848D01*
G01X-494580Y-44621D01*
G03X-513080Y-48287I0J-48514D01*
G03X-531580Y-44621I-18500J-44848D01*
G01X-621580Y-44621D01*
G03X-640080Y-48287I0J-48514D01*
G03X-658580Y-44621I-18500J-44848D01*
G01X-748580Y-44621D01*
G03X-756571Y-45284I0J-48514D01*
G01X-756571Y4855D01*
G03X-760237Y23355I-48514J-0D01*
G03X-756571Y41855I-44848J18500D01*
G01X-756571Y131855D01*
G03X-760237Y150355I-48514J-0D01*
G03X-756571Y168855I-44848J18500D01*
G01X-756571Y258855D01*
G03X-760237Y277355I-48514J-0D01*
G03X-756571Y295855I-44848J18500D01*
G01X-756571Y385855D01*
G03X-760237Y404355I-48514J-0D01*
G03X-756571Y422855I-44848J18500D01*
G01X-756571Y512855D01*
G03X-760237Y531355I-48514J-0D01*
G03X-756571Y549855I-44848J18500D01*
G01X-756571Y639855D01*
G03X-760237Y658355I-48514J-0D01*
G03X-756571Y676855I-44848J18500D01*
G01X-756571Y746201D01*
G01X-41564Y31195D01*
G03X83278Y-7078I72577J13992D01*
G03X45005Y117764I-52265J52265D01*
G01X-734450Y897220D01*
G03X-760149Y912569I-43285J-43285D01*
G03X-756571Y930855I-44936J18287D01*
G01X-756571Y1020855D01*
G03X-760237Y1039355I-48514J-0D01*
G03X-756571Y1057855I-44848J18500D01*
G01X-756571Y1147855D01*
G03X-760237Y1166355I-48514J-0D01*
G03X-756571Y1184855I-44848J18500D01*
G01X-756571Y1274855D01*
G03X-760237Y1293355I-48514J-0D01*
G03X-756571Y1311855I-44848J18500D01*
G01X-756571Y1401855D01*
G03X-758391Y1415021I-48514J0D01*
G01X-700831Y1415021D01*
G03X-519178Y1487747I75991J73419D01*
G03X-699861Y1562849I-105662J693D01*
G01X-769397Y1562849D01*
G03X-769271Y1565855I-35688J3007D01*
G01X-769271Y1655855D01*
G03X-805085Y1691669I-35814J0D01*
G01X-955084Y1691669D01*
G03X-990898Y1655855I0J-35814D01*
G01X-990898Y1565855D01*
G01X-990868Y1564372D01*
G01X-1009029Y1564372D01*
G03X-1014766Y1569384I-34691J-33914D01*
G03X-1007906Y1590462I-28954J21079D01*
G01X-1007906Y1670462D01*
G03X-1043720Y1706276I-35814J0D01*
G01X-1133720Y1706276D01*
G03X-1169534Y1670462I0J-35814D01*
G01X-1169534Y1590462D01*
G03X-1162674Y1569384I35814J-0D01*
G03X-1168411Y1564372I28954J-38926D01*
G01X-1191909Y1564372D01*
G03X-1197646Y1569384I-34691J-33914D01*
G03X-1190786Y1590462I-28954J21079D01*
G01X-1190786Y1670462D01*
G03X-1226600Y1706276I-35814J0D01*
G01X-1316600Y1706276D01*
G03X-1352414Y1670462I0J-35814D01*
G01X-1352414Y1590462D01*
G03X-1345554Y1569384I35814J-0D01*
G03X-1351291Y1564372I28954J-38926D01*
G01X-1374789Y1564372D01*
G03X-1380526Y1569384I-34691J-33914D01*
G03X-1373666Y1590462I-28954J21079D01*
G01X-1373666Y1670462D01*
G03X-1409480Y1706276I-35814J0D01*
G01X-1499480Y1706276D01*
G03X-1535294Y1670462I0J-35814D01*
G01X-1535294Y1590462D01*
G03X-1528434Y1569384I35814J-0D01*
G03X-1534171Y1564372I28954J-38926D01*
G01X-1730090Y1564372D01*
G03X-1914057Y1497809I-78390J-70852D01*
G03X-1736096Y1416544I105577J-4289D01*
G01X-1534171Y1416544D01*
G03X-1529921Y1412682I34691J33916D01*
G03X-1542454Y1380140I35981J-32542D01*
G01X-1542454Y1293740D01*
G03X-1509907Y1247928I48514J0D01*
G03X-1524096Y1219380I21625J-28548D01*
G01X-1524096Y1129380D01*
G03X-1488282Y1093566I35814J0D01*
G01X-1408282Y1093566D01*
G03X-1387204Y1100426I-0J35814D01*
G03X-1369492Y1085750I38927J28954D01*
G01X-1369492Y1036486D01*
G03X-1417123Y987979I883J-48506D01*
G01X-1417123Y805615D01*
G01X-1419679Y805615D01*
G03X-1462964Y787685I0J-61214D01*
G01X-1511405Y739245D01*
G03X-1517957Y731504I43285J-43285D01*
G03X-1557138Y702653I5297J-48224D01*
G01X-1934493Y702653D01*
G03X-1976157Y733325I-77187J-61214D01*
G03X-2011680Y897255I-35523J78116D01*
G03X-2047203Y733325I0J-85814D01*
G03X-2089058Y702412I35524J-91886D01*
G01X-2151650Y702412D01*
G03X-2166326Y720124I-43630J-21214D01*
G03X-2159466Y741202I-28954J21079D01*
G01X-2159466Y821202D01*
G03X-2195280Y857016I-35814J0D01*
G01X-2285280Y857016D01*
G03X-2321094Y821202I0J-35814D01*
G01X-2321094Y741202D01*
G03X-2314234Y720124I35814J0D01*
G03X-2333794Y681198I28954J-38927D01*
G01X-2333794Y601198D01*
G03X-2285280Y552684I48514J0D01*
G01X-2195280Y552684D01*
G03X-2151650Y579984I0J48514D01*
G01X-2088675Y579984D01*
G03X-1934493Y580225I76995J61455D01*
G01X-1558226Y580225D01*
G03X-1545683Y561340I45566J16655D01*
G03X-1557706Y543814I33023J-35540D01*
G01X-1568934Y543814D01*
G03X-1684274Y482600I-41426J-61214D01*
G03X-1568934Y421386I73914J0D01*
G01X-1557706Y421386D01*
G03X-1545683Y403860I45046J18014D01*
G03X-1561174Y368320I33023J-35540D01*
G01X-1561174Y281920D01*
G03X-1533550Y238134I48514J0D01*
G01X-1533550Y162865D01*
G03X-1508723Y-6885I60350J-77864D01*
G03X-1473200Y-170815I35523J-78116D01*
G01X-1971040Y-106406D02*
G03X-1971040Y-383433I0J-138514D01*
G03X-1971040Y-106406I0J138514D01*
G01X-1971040Y393593D02*
G03X-1971040Y116566I0J-138514D01*
G03X-1971040Y393593I0J138514D01*
G01X-1841404Y801980D02*
G03X-1805590Y766166I35814J0D01*
G01X-1682591Y766166D01*
G03X-1646777Y801980I0J35814D01*
G01X-1646777Y987979D01*
G03X-1682591Y1023793I-35814J0D01*
G01X-1805590Y1023793D01*
G03X-1841404Y987979I0J-35814D01*
G01X-1841404Y801980D01*
G01X-165107Y-1214836D02*
G03X-192473Y-1202126I-27366J-23103D01*
G01X-273120Y-1202126D01*
G03X-308934Y-1237940I0J-35814D01*
G01X-308934Y-1324340D01*
G03X-273120Y-1360154I35814J0D01*
G01X-192473Y-1360154D01*
G03X-165107Y-1347444I0J35814D01*
G03X-122447Y-1372854I42660J23103D01*
G01X-41800Y-1372854D01*
G03X6714Y-1324340I0J48514D01*
G01X6714Y-1237940D01*
G03X-17506Y-1195947I-48514J0D01*
G01X-17506Y-1176349D01*
G03X-7228Y-1164349I-31214J37138D01*
G03X18280Y-1175024I25508J25140D01*
G01X78280Y-1175024D01*
G03X86204Y-1174136I1J35813D01*
G03X90498Y-1235811I89609J-24748D01*
G03X80244Y-1265640I38260J-29829D01*
G01X80244Y-1355640D01*
G03X85793Y-1378171I48514J-0D01*
G03X38450Y-1426671I1171J-48500D01*
G01X38450Y-1596772D01*
G03X40610Y-1611086I48514J0D01*
G01X-41687Y-1611086D01*
G03X-39528Y-1596772I-46354J14314D01*
G01X-39528Y-1426671D01*
G03X-88042Y-1378157I-48514J0D01*
G01X-208793Y-1378157D01*
G03X-257307Y-1426671I0J-48514D01*
G01X-257307Y-1596772D01*
G03X-249959Y-1622444I48514J-0D01*
G01X-249959Y-1645028D01*
G01X-287839Y-1682909D01*
G03X-309488Y-1735174I52265J-52265D01*
G01X-309488Y-1793981D01*
G01X-314906Y-1793984D01*
G01X-344894Y-1793984D01*
G03X-380708Y-1829798I0J-35814D01*
G01X-380708Y-1847966D01*
G03X-523225Y-1931626I-46703J-83661D01*
G01X-523225Y-2011626D01*
G03X-345999Y-2062147I95814J0D01*
G03X-257418Y-2089611I61107J40508D01*
G03X-212799Y-2008309I-27474J67972D01*
G01X-204897Y-2008309D01*
G03X-194892Y-2007266I1J48514D01*
G03X-185841Y-2008296I9987J47475D01*
G03X-160009Y-2102333I66481J-32304D01*
G03X-63417Y-2088908I40649J61733D01*
G03X-58400Y-2089114I5018J61010D01*
G01X17800Y-2089114D01*
G03X61085Y-2071185I0J61214D01*
G01X73785Y-2058485D01*
G03X91714Y-2015200I-43285J43285D01*
G01X91714Y-2008305D01*
G01X95106Y-2008305D01*
G03X105087Y-2007267I-0J48514D01*
G01X107522Y-2007715D01*
G03X149662Y-2087518I72838J-12565D01*
G03X237564Y-2067088I30698J67237D01*
G03X298142Y-2094890I57528J45449D01*
G03X356199Y-2062147I-3050J73251D01*
G03X533425Y-2011626I81412J50521D01*
G01X533425Y-1931626D01*
G03X390916Y-1847961I-95814J0D01*
G01X390916Y-1829782D01*
G03X355102Y-1793968I-35814J0D01*
G01X319044Y-1793968D01*
G01X319044Y-1715616D01*
G01X378206Y-1656454D01*
G01X378206Y-1729540D01*
G03X414020Y-1765354I35814J0D01*
G01X500420Y-1765354D01*
G03X536234Y-1729540I0J35814D01*
G01X536234Y-1648893D01*
G03X523524Y-1621527I-35814J0D01*
G03X536233Y-1611594I-23104J42660D01*
G01X536487Y-1611594D01*
G03X577329Y-1634194I40927J25759D01*
G01X665330Y-1634194D01*
G03X713844Y-1585680I0J48514D01*
G01X713844Y-1489680D01*
G03X695218Y-1451466I-48514J0D01*
G01X695218Y-1405107D01*
G03X699818Y-1384487I-43914J20619D01*
G01X699818Y-1277487D01*
G03X651304Y-1228973I-48514J0D01*
G01X591304Y-1228973D01*
G03X542790Y-1277487I0J-48514D01*
G01X542790Y-1384487D01*
G03X547390Y-1405107I48514J0D01*
G01X547390Y-1451506D01*
G03X536316Y-1463766I29939J-38174D01*
G01X534575Y-1463766D01*
G03X500420Y-1449706I-34155J-34454D01*
G01X414020Y-1449706D01*
G03X377818Y-1465923I0J-48514D01*
G03X339321Y-1486278I13768J-72620D01*
G01X256230Y-1569370D01*
G01X256230Y-1426671D01*
G03X243962Y-1394424I-48514J0D01*
G01X243962Y-1389021D01*
G03X247684Y-1384594I-35206J33381D01*
G03X268762Y-1391454I21079J28954D01*
G01X348762Y-1391454D01*
G03X384576Y-1355640I0J35814D01*
G01X384576Y-1265640D01*
G03X348762Y-1229826I-35814J0D01*
G01X268762Y-1229826D01*
G03X263330Y-1230241I0J-35814D01*
G03X268082Y-1187535I-87516J31356D01*
G03X253122Y-1147255I-92269J-11349D01*
G03X253794Y-1139210I-47843J8046D01*
G01X253794Y-1019210D01*
G03X205280Y-970696I-48514J0D01*
G01X145280Y-970696D01*
G03X103788Y-994071I0J-48514D01*
G03X78280Y-983396I-25508J-25139D01*
G01X18280Y-983396D01*
G03X-7228Y-994071I0J-35814D01*
G03X-48720Y-970696I-41492J-25139D01*
G01X-108720Y-970696D01*
G03X-150212Y-994071I0J-48514D01*
G03X-175720Y-983396I-25508J-25139D01*
G01X-235720Y-983396D01*
G03X-271534Y-1019210I0J-35814D01*
G01X-271534Y-1139210D01*
G03X-235720Y-1175024I35814J0D01*
G01X-175720Y-1175024D01*
G03X-150212Y-1164349I0J35814D01*
G03X-139934Y-1176349I41492J25140D01*
G01X-139934Y-1192687D01*
G03X-165107Y-1214836I17487J-45253D01*
G01X-200092Y618029D02*
G01X-110092Y618029D01*
G03X-85090Y628201I0J35814D01*
G03X-60088Y618029I25003J25642D01*
G01X29912Y618029D01*
G03X65726Y653843I0J35814D01*
G01X65726Y743843D01*
G03X55554Y768845I-35814J0D01*
G03X65726Y793848I-25642J25003D01*
G01X65726Y883848D01*
G03X55554Y908850I-35814J0D01*
G03X65726Y933853I-25642J25003D01*
G01X65726Y1023852D01*
G03X29912Y1059666I-35814J0D01*
G01X-60088Y1059666D01*
G03X-85090Y1049494I0J-35814D01*
G03X-110092Y1059666I-25003J-25642D01*
G01X-200092Y1059666D01*
G03X-225095Y1049494I0J-35814D01*
G03X-250097Y1059666I-25003J-25642D01*
G01X-340097Y1059666D01*
G03X-375911Y1023852I0J-35814D01*
G01X-375911Y933853D01*
G03X-365739Y908850I35814J0D01*
G03X-375911Y883848I25642J-25003D01*
G01X-375911Y793848D01*
G03X-365739Y768845I35814J0D01*
G03X-375911Y743843I25642J-25003D01*
G01X-375911Y653843D01*
G03X-340097Y618029I35814J0D01*
G01X-250097Y618029D01*
G03X-225095Y628201I0J35814D01*
G03X-200092Y618029I25003J25642D01*
G01X185594Y-668380D02*
G03X149780Y-632566I-35814J0D01*
G01X-180220Y-632566D01*
G03X-216034Y-668380I0J-35814D01*
G01X-216034Y-908380D01*
G03X-180220Y-944194I35814J0D01*
G01X149780Y-944194D01*
G03X185594Y-908380I0J35814D01*
G01X185594Y-668380D01*
G01X1018814Y-1451066D02*
G01X1018814Y-1366547D01*
G03X997165Y-1314282I-73914J0D01*
G01X961605Y-1278722D01*
G03X909340Y-1257073I-52265J-52265D01*
G01X885306Y-1257073D01*
G03X841296Y-1228973I-44010J-20414D01*
G01X781296Y-1228973D01*
G03X732782Y-1277487I0J-48514D01*
G01X732782Y-1384487D01*
G03X781296Y-1433001I48514J0D01*
G01X841296Y-1433001D01*
G03X870986Y-1422856I0J48514D01*
G01X870986Y-1450322D01*
G03X850836Y-1489680I28364J-39358D01*
G01X850836Y-1585680D01*
G03X899350Y-1634194I48514J0D01*
G01X987351Y-1634194D01*
G03X1016720Y-1624294I0J48514D01*
G01X1098735Y-1624294D01*
G03X1143740Y-1654694I45005J18114D01*
G01X1233740Y-1654694D01*
G03X1282254Y-1606180I0J48514D01*
G01X1282254Y-1469180D01*
G03X1233740Y-1420666I-48514J0D01*
G01X1143740Y-1420666D01*
G03X1098735Y-1451066I0J-48514D01*
G01X1018814Y-1451066D01*
G01X1818640Y-170815D02*
G03X1854163Y-6885I0J85814D01*
G03X1818640Y183515I-35523J91886D01*
G03X1783117Y-6885I0J-98514D01*
G03X1818640Y-170815I35523J-78116D01*
G01X1799077Y-797662D02*
G03X1750563Y-846176I0J-48514D01*
G01X1750563Y-895176D01*
G03X1799077Y-943690I48514J0D01*
G01X1916577Y-943690D01*
G03X1965091Y-895176I0J48514D01*
G01X1965091Y-846176D01*
G03X1916577Y-797662I-48514J0D01*
G01X1799077Y-797662D01*
G01X1282426Y-695636D02*
G01X1281099Y-696659D01*
G03X1279256Y-690391I-47359J-10522D01*
G03X1282426Y-695636I32125J15834D01*
G54D11*
G01X437611Y-2389609D02*
G01X351957Y-2389609D01*
G01X437611Y-2389609D02*
G01X523265Y-2389609D01*
G01X437611Y-2389609D02*
G01X437611Y-2273955D01*
G01X437611Y-1971626D02*
G01X523265Y-1971626D01*
G01X437611Y-1971626D02*
G01X437611Y-1845972D01*
G01X437611Y-1971626D02*
G01X437611Y-2097280D01*
G01X-427411Y-1971626D02*
G01X-513065Y-1971626D01*
G01X-427411Y-1971626D02*
G01X-427411Y-1845972D01*
G01X-427411Y-1971626D02*
G01X-427411Y-2097280D01*
G01X-427411Y-2389609D02*
G01X-513065Y-2389609D01*
G01X-427411Y-2389609D02*
G01X-341757Y-2389609D01*
G01X-427411Y-2389609D02*
G01X-427411Y-2273955D01*
G01X873780Y-1012433D02*
G01X873780Y-1128087D01*
G01X873780Y-1012433D02*
G01X989434Y-1012433D01*
G01X1202360Y1560460D02*
G01X1202360Y1671114D01*
G01X1202360Y1560460D02*
G01X1091706Y1560460D01*
G01X1202360Y1560460D02*
G01X1313014Y1560460D01*
G01X1438200Y-290200D02*
G01X1438200Y-415854D01*
G01X1438200Y-290200D02*
G01X1563854Y-290200D01*
G01X1438200Y-290200D02*
G01X1312546Y-290200D01*
G01X1818640Y-85001D02*
G01X1818640Y-160655D01*
G01X1818640Y-85001D02*
G01X1894294Y-85001D01*
G01X1818640Y-85001D02*
G01X1742986Y-85001D01*
G01X-2011680Y811441D02*
G01X-2011680Y887095D01*
G01X-2011680Y811441D02*
G01X-2087334Y811441D01*
G01X-2011680Y811441D02*
G01X-1936026Y811441D01*
G01X-1473200Y-85001D02*
G01X-1473200Y-160655D01*
G01X-1473200Y-85001D02*
G01X-1397546Y-85001D01*
G01X-1473200Y-85001D02*
G01X-1548854Y-85001D01*
G01X-2240280Y781202D02*
G01X-2240280Y846856D01*
G01X-2240280Y781202D02*
G01X-2169626Y781202D01*
G01X-2240280Y781202D02*
G01X-2310934Y781202D01*
G01X-1744091Y894980D02*
G01X-1831244Y894980D01*
G01X-1744091Y894980D02*
G01X-1656937Y894980D01*
G01X-1744091Y894980D02*
G01X-1744091Y1013633D01*
G01X-1744091Y894980D02*
G01X-1744091Y776326D01*
G01X-1448282Y1174380D02*
G01X-1513936Y1174380D01*
G01X-1448282Y1174380D02*
G01X-1448282Y1103726D01*
G01X-1259853Y-722693D02*
G01X-1325507Y-722693D01*
G01X-1259853Y-722693D02*
G01X-1194199Y-722693D01*
G01X-1259853Y-722693D02*
G01X-1259853Y-657040D01*
G01X-1454480Y1630462D02*
G01X-1454480Y1696116D01*
G01X-1454480Y1630462D02*
G01X-1383826Y1630462D01*
G01X-1454480Y1630462D02*
G01X-1525134Y1630462D01*
G01X-880085Y1610855D02*
G01X-980738Y1610855D01*
G01X-880085Y1610855D02*
G01X-779431Y1610855D01*
G01X-880085Y1610855D02*
G01X-880085Y1681509D01*
G01X-1088720Y1630462D02*
G01X-1088720Y1696116D01*
G01X-1088720Y1630462D02*
G01X-1018066Y1630462D01*
G01X-1088720Y1630462D02*
G01X-1159374Y1630462D01*
G01X-1271600Y1630462D02*
G01X-1271600Y1696116D01*
G01X-1271600Y1630462D02*
G01X-1200946Y1630462D01*
G01X-1271600Y1630462D02*
G01X-1342254Y1630462D01*
G01X-15088Y698843D02*
G01X-15088Y628189D01*
G01X-15088Y698843D02*
G01X55566Y698843D01*
G01X-155092Y698843D02*
G01X-155092Y628189D01*
G01X-295097Y698843D02*
G01X-295097Y628189D01*
G01X-295097Y698843D02*
G01X-365751Y698843D01*
G01X-295097Y978853D02*
G01X-295097Y1049506D01*
G01X-295097Y978853D02*
G01X-365751Y978853D01*
G01X-155092Y978853D02*
G01X-155092Y1049506D01*
G01X-15088Y978853D02*
G01X-15088Y1049506D01*
G01X-15088Y978853D02*
G01X55566Y978853D01*
G01X-15088Y838848D02*
G01X55566Y838848D01*
G01X-295097Y838848D02*
G01X-365751Y838848D01*
G01X1356380Y-634558D02*
G01X1356380Y-568904D01*
G01X1356380Y-634558D02*
G01X1427034Y-634558D01*
G01X1356380Y-634558D02*
G01X1285726Y-634558D01*
G01X1627093Y-775680D02*
G01X1710597Y-775680D01*
G01X2047260Y-820282D02*
G01X2047260Y-885936D01*
G01X2047260Y-820282D02*
G01X1976606Y-820282D01*
G01X2047260Y-820282D02*
G01X2117914Y-820282D01*
G01X1185082Y-587720D02*
G01X1250736Y-587720D01*
G01X1185082Y-587720D02*
G01X1185082Y-517066D01*
G01X1187876Y-425160D02*
G01X1253854Y-425160D01*
G01X1187876Y-425160D02*
G01X1187876Y-356306D01*
G01X1187876Y-425160D02*
G01X1187876Y-494014D01*
G01X-232796Y-1281140D02*
G01X-298774Y-1281140D01*
G01X-232796Y-1281140D02*
G01X-232796Y-1212286D01*
G01X-232796Y-1281140D02*
G01X-232796Y-1349994D01*
G01X-205720Y-1079210D02*
G01X-261374Y-1079210D01*
G01X-205720Y-1079210D02*
G01X-205720Y-993556D01*
G01X-205720Y-1079210D02*
G01X-205720Y-1164864D01*
G01X-15220Y-788380D02*
G01X175434Y-788380D01*
G01X-15220Y-788380D02*
G01X-205874Y-788380D01*
G01X-15220Y-788380D02*
G01X-15220Y-934034D01*
G01X-15220Y-788380D02*
G01X-15220Y-642726D01*
G01X48280Y-1079210D02*
G01X48280Y-993556D01*
G01X48280Y-1079210D02*
G01X48280Y-1164864D01*
G01X308762Y-1310640D02*
G01X374416Y-1310640D01*
G01X308762Y-1310640D02*
G01X308762Y-1239986D01*
G01X308762Y-1310640D02*
G01X308762Y-1381294D01*
G01X360700Y-866002D02*
G01X360700Y-931656D01*
G01X360700Y-866002D02*
G01X431354Y-866002D01*
G01X360700Y-866002D02*
G01X290046Y-866002D01*
G01X457220Y-1689216D02*
G01X457220Y-1755194D01*
G01X457220Y-1689216D02*
G01X388366Y-1689216D01*
G01X457220Y-1689216D02*
G01X526074Y-1689216D01*
G01X869925Y1610855D02*
G01X970578Y1610855D01*
G01X869925Y1610855D02*
G01X769271Y1610855D01*
G01X869925Y1610855D02*
G01X869925Y1681509D01*
G04 Copper End*

G04 Pad Start*
G54D12*
G01X-1971040Y255080D03*
G01X-1971040Y-244919D03*
G54D13*
G01X308762Y-1310640D03*
G01X168758Y-1310640D03*
G54D14*
G01X360700Y-866002D03*
G01X360700Y-725998D03*
G01X-2240280Y641198D03*
G01X-2240280Y781202D03*
G54D13*
G01X-1308278Y1174380D03*
G01X-1448282Y1174380D03*
G01X1045078Y-587720D03*
G01X1185082Y-587720D03*
G54D14*
G01X1356380Y-774562D03*
G01X1356380Y-634558D03*
G01X2047260Y-680278D03*
G01X2047260Y-820282D03*
G01X-1454480Y1490458D03*
G01X-1454480Y1630462D03*
G01X-1271600Y1490458D03*
G01X-1271600Y1630462D03*
G01X-1088720Y1490458D03*
G01X-1088720Y1630462D03*
G54D16*
G01X873780Y-1012433D03*
G54D12*
G01X873780Y-762447D03*
G54D17*
G01X621329Y-1537680D03*
G01X943351Y-1537680D03*
G54D18*
G01X1438200Y-36200D03*
G54D19*
G01X1438200Y-290200D03*
G54D20*
G01X-1259827Y-882586D03*
G01X-1259853Y-722693D03*
G54D21*
G01X-741309Y-881026D03*
G01X-742021Y-721133D03*
G54D20*
G01X-924883Y-726180D03*
G01X-924197Y-875979D03*
G54D22*
G01X621304Y-1330987D03*
G01X811296Y-1330987D03*
G01X716300Y-1083972D03*
G54D23*
G01X-82124Y-1281140D03*
G01X-232796Y-1281140D03*
G54D24*
G01X147340Y-1511721D03*
G01X-148418Y-1511721D03*
G54D25*
G01X-416540Y-876416D03*
G01X-416540Y-725744D03*
G01X-574020Y-876416D03*
G01X-574020Y-725744D03*
G01X-1676400Y-674776D03*
G01X-1676400Y-524104D03*
G01X457220Y-1538544D03*
G01X457220Y-1689216D03*
G54D23*
G01X-1321664Y325120D03*
G01X-1472336Y325120D03*
G01X-1321664Y482600D03*
G01X-1472336Y482600D03*
G01X-1321664Y640080D03*
G01X-1472336Y640080D03*
G01X-1453616Y1336940D03*
G01X-1302944Y1336940D03*
G54D26*
G01X-1473200Y85001D03*
G01X-1473200Y-85001D03*
G01X1818640Y85001D03*
G01X1818640Y-85001D03*
G01X-2011680Y641439D03*
G01X-2011680Y811441D03*
G54D25*
G01X873780Y-431104D03*
G01X873780Y-581776D03*
G01X1142400Y116136D03*
G01X1142400Y-34536D03*
G01X-1092200Y-877976D03*
G01X-1092200Y-727304D03*
G54D23*
G01X1187876Y-425160D03*
G01X1037204Y-425160D03*
G54D27*
G01X-1744091Y894980D03*
G01X-1307109Y894980D03*
G54D28*
G01X-205720Y-1079210D03*
G01X-78720Y-1079210D03*
G01X48280Y-1079210D03*
G01X175280Y-1079210D03*
G01X175280Y-497550D03*
G01X48280Y-497550D03*
G01X-78720Y-497550D03*
G01X-205720Y-497550D03*
G54D29*
G01X-15220Y-788380D03*
G54D30*
G01X-880085Y1610855D03*
G01X-880085Y1483855D03*
G01X-880085Y1356855D03*
G01X-880085Y1229855D03*
G01X-880085Y1102855D03*
G01X-880085Y975855D03*
G01X-880085Y848855D03*
G01X-880085Y721855D03*
G01X-880085Y594855D03*
G01X-880085Y467855D03*
G01X-880085Y340855D03*
G01X-880085Y213855D03*
G01X-880085Y86855D03*
G01X-880085Y-40145D03*
G54D31*
G01X-703580Y-168135D03*
G01X-576580Y-168135D03*
G01X-449580Y-168135D03*
G01X-322580Y-168135D03*
G01X-195580Y-168135D03*
G01X-68580Y-168135D03*
G01X58420Y-168135D03*
G01X185420Y-168135D03*
G01X312420Y-168135D03*
G01X439420Y-168135D03*
G01X566420Y-168135D03*
G01X693420Y-165138D03*
G54D30*
G01X869925Y-40145D03*
G01X869925Y86855D03*
G01X869925Y213855D03*
G01X869925Y340855D03*
G01X869925Y467855D03*
G01X869925Y594855D03*
G01X869925Y721855D03*
G01X869925Y848855D03*
G01X869925Y975855D03*
G01X869925Y1102855D03*
G01X869925Y1229855D03*
G01X869925Y1356855D03*
G01X869925Y1483855D03*
G01X869925Y1610855D03*
G54D32*
G01X-15088Y698843D03*
G01X-155092Y698843D03*
G01X-295097Y698843D03*
G01X-295097Y978853D03*
G01X-155092Y978853D03*
G01X-15088Y978853D03*
G01X-15088Y838848D03*
G01X-295097Y838848D03*
G01X-155092Y838848D03*
G54D33*
G01X1627093Y-680684D03*
G01X1627093Y-775680D03*
G01X1627093Y-870676D03*
G54D34*
G01X1857827Y-870676D03*
G01X1857827Y-680684D03*
G54D35*
G01X-169906Y-1894791D03*
G01X-119893Y-1894791D03*
G01X-69906Y-1894791D03*
G01X-19894Y-1894791D03*
G01X30094Y-1894791D03*
G01X80106Y-1894791D03*
G01X130068Y-1894791D03*
G01X180106Y-1894791D03*
G54D36*
G01X-314895Y-1894791D03*
G54D37*
G01X325101Y-1894781D03*
G54D38*
G01X245116Y-1894781D03*
G54D39*
G01X-234896Y-1894798D03*
G54D40*
G01X437611Y-2389609D03*
G54D41*
G01X437611Y-1971626D03*
G01X-427411Y-1971626D03*
G54D40*
G01X-427411Y-2389609D03*
G54D42*
G01X1202360Y1052460D03*
G54D43*
G01X1202360Y1306460D03*
G01X1202360Y1560460D03*
G54D44*
G01X1188740Y-1537680D03*
G01X1188740Y-775680D03*
G04 Pad End*

G04 Via Start*
G54D45*
G01X-72009Y-1773673D03*
G01X81300Y-1773900D03*
G01X-119360Y-2040600D03*
G01X180360Y-2020280D03*
G54D46*
G01X670681Y-760541D03*
G54D45*
G01X-1020000Y91800D03*
G01X-1020000Y-35700D03*
G01X-1783080Y-675640D03*
G01X-1610360Y482600D03*
G01X-1021080Y1107440D03*
G01X-1021080Y1234440D03*
G54D47*
G01X2255520Y-680720D03*
G01X-624840Y1488440D03*
G01X-1808480Y1493520D03*
G54D45*
G01X31013Y45187D03*
G01X513613Y-432333D03*
G01X-329667Y-726277D03*
G54D46*
G01X175813Y-1198885D03*
G54D47*
G01X-290017Y983933D03*
G01X-150012Y983933D03*
G01X-10008Y983933D03*
G01X-290017Y843928D03*
G01X-150012Y843928D03*
G01X-10008Y843928D03*
G01X-290017Y703923D03*
G01X-150012Y703923D03*
G01X-10008Y703923D03*
G04 Via End*

G04 Track Start*
G54D45*
G01X-235574Y-1894122D02*
G01X-235574Y-1735174D01*
G01X-185400Y-1685000D01*
G54D11*
G01X30500Y-1895198D02*
G01X29424Y-1894122D01*
G01X79437Y-1894122D02*
G01X81300Y-1892259D01*
G01X81300Y-1773900D01*
G01X-20563Y-1894122D02*
G01X-20300Y-1893859D01*
G01X-20300Y-1799300D01*
G01X5100Y-1773900D01*
G01X81300Y-1773900D01*
G01X-72009Y-1773673D02*
G01X-70575Y-1775106D01*
G01X-70575Y-2015724D02*
G01X-58400Y-2027900D01*
G01X17800Y-2027900D01*
G01X30500Y-2015200D01*
G01X30500Y-1895198D01*
G01X180106Y-1894791D02*
G01X180360Y-1895045D01*
G01X180360Y-2020280D01*
G01X-119893Y-1894791D02*
G01X-119893Y-2040067D01*
G01X-119360Y-2040600D01*
G01X-78720Y-1079210D02*
G01X-78720Y-1277736D01*
G01X-82124Y-1281140D01*
G01X-205720Y-497550D02*
G01X-214610Y-506440D01*
G01X-380980Y-506440D01*
G01X-416540Y-542000D01*
G01X-416540Y-725744D01*
G01X-574020Y-725744D02*
G01X-416540Y-725744D01*
G01X-574020Y-876416D02*
G01X-578630Y-881026D01*
G01X-741309Y-881026D01*
G01X-416540Y-876416D02*
G01X-416540Y-948400D01*
G01X-924197Y-953823D02*
G01X-924197Y-875979D01*
G01X-416540Y-948400D02*
G01X-452100Y-983960D01*
G01X-894060Y-983960D01*
G01X-924197Y-953823D01*
G01X-742021Y-721133D02*
G01X-742021Y-445841D01*
G01X-924883Y-726180D02*
G01X-924883Y-435663D01*
G01X-807700Y-318480D01*
G01X-30460Y-318480D01*
G01X48280Y-397220D01*
G01X48280Y-497550D01*
G54D45*
G01X-176045Y-1519654D02*
G01X-176045Y-1685000D01*
G01X-185400Y-1685000D02*
G01X-176045Y-1685000D01*
G54D48*
G01X176398Y-1276060D02*
G01X176398Y-1492824D01*
G01X157500Y-1511721D01*
G54D45*
G01X621304Y-1330987D02*
G01X621304Y-1537655D01*
G01X621329Y-1537680D02*
G01X458084Y-1537680D01*
G01X457220Y-1538544D01*
G01X-176045Y-1685000D02*
G01X245130Y-1685000D01*
G01X245130Y-1894791D01*
G01X245130Y-1685000D02*
G01X391586Y-1538544D01*
G01X457220Y-1538544D01*
G01X811296Y-1330987D02*
G01X909340Y-1330987D01*
G01X944900Y-1366547D01*
G54D48*
G01X1483380Y-831560D02*
G01X1524020Y-872200D01*
G01X1635780Y-872200D01*
G01X1627093Y-680684D02*
G01X1517416Y-680684D01*
G01X1483380Y-714720D01*
G01X1356380Y-774562D02*
G01X1482262Y-774562D01*
G01X1483380Y-775680D01*
G01X1483380Y-714720D02*
G01X1483380Y-775680D01*
G01X1483380Y-831560D01*
G54D45*
G01X1857827Y-680684D02*
G01X2046854Y-680684D01*
G01X2047260Y-680278D01*
G01X175280Y-497550D02*
G01X311100Y-497550D01*
G01X360700Y-547150D01*
G01X360700Y-725998D01*
G01X944900Y-1366547D02*
G01X944900Y-1537680D01*
G54D49*
G01X1188740Y-1537680D02*
G01X944900Y-1537680D01*
G54D48*
G01X1188740Y-775680D02*
G01X1351300Y-775680D01*
G54D45*
G01X360700Y-725998D02*
G01X636138Y-725998D01*
G01X670681Y-760541D01*
G01X716300Y-806160D01*
G01X716300Y-1083972D01*
G54D11*
G01X873780Y-762447D02*
G01X873780Y-581776D01*
G01X873780Y-431104D02*
G01X1031260Y-431104D01*
G01X1037204Y-425160D01*
G01X1037204Y-579846D01*
G01X1045078Y-587720D01*
G54D45*
G01X-1271600Y1490458D02*
G01X-1088720Y1490458D01*
G01X-1454480Y1490458D02*
G01X-1271600Y1490458D01*
G54D11*
G01X-876605Y1362835D02*
G01X-1266888Y1362835D01*
G01X-1302944Y1179714D02*
G01X-1308278Y1174380D01*
G01X-1302944Y1336940D02*
G01X-1302944Y1326780D01*
G01X-1302944Y1179714D01*
G01X-1266888Y1362835D02*
G01X-1302944Y1326780D01*
G01X-1454480Y1490458D02*
G01X-1454480Y1337804D01*
G01X-1453616Y1336940D01*
G01X-1308278Y1174380D02*
G01X-1308278Y896148D01*
G01X-1307109Y894980D01*
G01X1075360Y1306460D02*
G01X1202360Y1306460D01*
G01X873405Y1235835D02*
G01X1004735Y1235835D01*
G01X1075360Y1306460D01*
G01X873405Y1108835D02*
G01X1018985Y1108835D01*
G01X1075360Y1052460D01*
G01X1202360Y1052460D01*
G01X-876605Y92835D02*
G01X-1018965Y92835D01*
G01X-1020000Y91800D01*
G01X-876605Y-34165D02*
G01X-878140Y-35700D01*
G01X-1020000Y-35700D01*
G01X-70575Y-1775106D02*
G01X-70575Y-2015724D01*
G54D45*
G01X873405Y-34165D02*
G01X1142028Y-34165D01*
G01X1142400Y-34536D01*
G01X1436536Y-34536D01*
G01X1438200Y-36200D01*
G54D11*
G01X-876605Y346835D02*
G01X-883080Y340360D01*
G01X-1094921Y-724583D02*
G01X-1092200Y-727304D01*
G01X-883080Y340360D02*
G01X-1010920Y340360D01*
G01X-1094921Y256359D01*
G01X-1094921Y-724583D01*
G01X-1092200Y-877976D02*
G01X-1096810Y-882586D01*
G01X-1259827Y-882586D01*
G01X-1783080Y-675640D02*
G01X-1677264Y-675640D01*
G01X-1676400Y-674776D01*
G01X-876605Y473835D02*
G01X-893240Y457200D01*
G01X-1016000Y457200D01*
G01X-1168400Y304800D01*
G01X-1168400Y-314960D01*
G01X-1377544Y-524104D01*
G01X-1676400Y-524104D01*
G01X-1021080Y1107440D02*
G01X-878000Y1107440D01*
G01X-876605Y1108835D01*
G54D45*
G01X-1080645Y727835D02*
G01X-876605Y727835D01*
G01X-1321664Y640080D02*
G01X-1168400Y640080D01*
G01X-1080645Y727835D01*
G01X-1321664Y640080D02*
G01X-1321664Y482600D01*
G01X-1321664Y325120D01*
G54D11*
G01X-2011680Y641439D02*
G01X-1473695Y641439D01*
G01X-1472336Y640080D01*
G01X-2011680Y641439D02*
G01X-2011921Y641198D01*
G01X-2240280Y641198D01*
G01X-1472336Y640080D02*
G01X-1468120Y644296D01*
G01X-1206319Y744401D02*
G01X-968885Y981835D01*
G01X-876605Y981835D01*
G01X-1468120Y644296D02*
G01X-1468120Y695960D01*
G01X-1419679Y744401D01*
G01X-1206319Y744401D01*
G01X-1472336Y325120D02*
G01X-1472336Y85865D01*
G01X-1473200Y85001D01*
G01X-1472336Y482600D02*
G01X-1610360Y482600D01*
G01X-875005Y1234935D02*
G01X-875500Y1234440D01*
G01X-1021080Y1234440D01*
G01X1142400Y116136D02*
G01X1143000Y116736D01*
G01X1143000Y187960D01*
G01X1247321Y292281D01*
G01X1912439Y292281D01*
G01X2047260Y157460D01*
G01X2047260Y-680278D01*
G01X-742021Y-445841D02*
G01X-693400Y-397220D01*
G01X-104120Y-397220D01*
G01X-78720Y-422620D01*
G01X-78720Y-497550D01*
G54D45*
G01X-1088720Y1490458D02*
G01X-876527Y1490458D01*
G01X-875005Y1488935D01*
G01X-625335Y1488935D01*
G01X-624840Y1488440D01*
G01X2047260Y-680278D02*
G01X2047702Y-680720D01*
G01X2255520Y-680720D01*
G01X-1454480Y1490458D02*
G01X-1805418Y1490458D01*
G01X-1808480Y1493520D01*
G54D11*
G01X-875005Y853935D02*
G01X-777735Y853935D01*
G01X31013Y45187D01*
G01X513613Y-432333D02*
G01X872550Y-432333D01*
G01X873780Y-431104D01*
G01X-416540Y-725744D02*
G01X-330200Y-725744D01*
G54D48*
G01X175280Y-1079210D02*
G01X175280Y-1267018D01*
G54D11*
G01X-314889Y-1894791D02*
G01X-314889Y-1772920D01*
G01X-332850Y-1754959D01*
G01X-409451Y-1754959D01*
G01X-427411Y-1772920D01*
G01X-427411Y-1971626D01*
G01X325115Y-1894791D02*
G01X330200Y-1889706D01*
G01X330200Y-1811201D01*
G01X437611Y-1811201D02*
G01X437611Y-1971626D01*
G01X330200Y-1811201D02*
G01X358321Y-1783080D01*
G01X409491Y-1783080D01*
G01X437611Y-1811201D01*
G04 Track End*

M02*

