G04 Layer: TopSolderMaskLayer*
G04 EasyEDA Pro v3.2.121, 2026-05-25 16:47:59*
G04 Gerber Generator version 0.3*
G04 Scale: 100 percent, Rotated: No, Reflected: No*
G04 Dimensions in millimeters*
G04 Leading zeros omitted, absolute positions, 4 integers and 5 decimals*
G04 Generated by one-click*
%FSLAX45Y45*%
%MOMM*%
%AMRoundRect*1,1,$1,$2,$3*1,1,$1,$4,$5*1,1,$1,0-$2,0-$3*1,1,$1,0-$4,0-$5*20,1,$1,$2,$3,$4,$5,0*20,1,$1,$4,$5,0-$2,0-$3,0*20,1,$1,0-$2,0-$3,0-$4,0-$5,0*20,1,$1,0-$4,0-$5,$2,$3,0*4,1,4,$2,$3,$4,$5,0-$2,0-$3,0-$4,0-$5,$2,$3,0*%
%ADD10C,1.9016*%
%ADD11RoundRect,0.1016X-0.4X0.45X0.4X0.45*%
%ADD12RoundRect,0.1016X-0.45X-0.4X-0.45X0.4*%
%ADD13RoundRect,0.10003X-0.9X-0.9X-0.9X0.9*%
%ADD14C,1.90002*%
%ADD15RoundRect,0.1016X-0.44X0.48X0.44X0.48*%
%ADD16RoundRect,0.1016X-1.0X-1.0X-1.0X1.0*%
%ADD17C,2.1016*%
%ADD18RoundRect,0.1016X-0.4X0.4X0.4X0.4*%
%ADD19RoundRect,0.1083X-0.5X0.4X0.5X0.4*%
%ADD20RoundRect,0.1016X-0.5X0.4X0.5X0.4*%
%ADD21RoundRect,0.1016X-0.3X-0.535X-0.3X0.535*%
%ADD22RoundRect,0.1016X-0.40324X0.432X0.40324X0.432*%
%ADD23RoundRect,0.1016X-0.60376X0.85051X0.60376X0.85051*%
%ADD24RoundRect,0.1016X-0.432X-0.40324X-0.432X0.40324*%
%ADD25C,1.1016*%
%ADD26RoundRect,0.1016X-0.615X0.93X0.615X0.93*%
%ADD27RoundRect,0.1016X-0.3X0.6X0.3X0.6*%
%ADD28RoundRect,0.1016X-1.65X1.2X1.65X1.2*%
%ADD29RoundRect,0.10003X-0.75X0.45X0.75X0.45*%
%ADD30RoundRect,0.10003X-0.45X-0.75X-0.45X0.75*%
%ADD31RoundRect,0.1016X-0.45X-0.45X-0.45X0.45*%
%ADD32RoundRect,0.1016X-0.5785X-0.245X-0.5785X0.245*%
%ADD33RoundRect,0.1016X-0.5875X-0.245X-0.5875X0.245*%
%ADD34RoundRect,0.1016X-0.15X0.65X0.15X0.65*%
%ADD35O,1.3016X1.9016*%
%ADD36O,1.3016X2.1016*%
%ADD37RoundRect,0.1016X-0.85X-0.85X-0.85X0.85*%
%ADD38C,1.8016*%
%ADD39RoundRect,0.1X-0.45X-0.685X-0.45X0.685*%
G75*


G04 Pad Start*
G54D10*
G01X-1971040Y255080D03*
G01X-1971040Y-244919D03*
G54D11*
G01X308762Y-1310640D03*
G01X168758Y-1310640D03*
G54D12*
G01X360700Y-866002D03*
G01X360700Y-725998D03*
G01X-2240280Y641198D03*
G01X-2240280Y781202D03*
G54D11*
G01X-1308278Y1174380D03*
G01X-1448282Y1174380D03*
G01X1045078Y-587720D03*
G01X1185082Y-587720D03*
G54D12*
G01X1356380Y-774562D03*
G01X1356380Y-634558D03*
G01X2047260Y-680278D03*
G01X2047260Y-820282D03*
G01X-1454480Y1490458D03*
G01X-1454480Y1630462D03*
G01X-1271600Y1490458D03*
G01X-1271600Y1630462D03*
G01X-1088720Y1490458D03*
G01X-1088720Y1630462D03*
G54D13*
G01X873780Y-1012433D03*
G54D14*
G01X873780Y-762447D03*
G54D15*
G01X621329Y-1537680D03*
G01X943351Y-1537680D03*
G54D16*
G01X1438200Y-36200D03*
G54D17*
G01X1438200Y-290200D03*
G54D18*
G01X-1259827Y-882586D03*
G01X-1259853Y-722693D03*
G54D20*
G01X-741309Y-881026D03*
G01X-742021Y-721133D03*
G54D18*
G01X-924883Y-726180D03*
G01X-924197Y-875979D03*
G54D21*
G01X621304Y-1330987D03*
G01X811296Y-1330987D03*
G01X716300Y-1083972D03*
G54D22*
G01X-82124Y-1281140D03*
G01X-232796Y-1281140D03*
G54D23*
G01X147340Y-1511721D03*
G01X-148418Y-1511721D03*
G54D24*
G01X-416540Y-876416D03*
G01X-416540Y-725744D03*
G01X-574020Y-876416D03*
G01X-574020Y-725744D03*
G01X-1676400Y-674776D03*
G01X-1676400Y-524104D03*
G01X457220Y-1538544D03*
G01X457220Y-1689216D03*
G54D22*
G01X-1321664Y325120D03*
G01X-1472336Y325120D03*
G01X-1321664Y482600D03*
G01X-1472336Y482600D03*
G01X-1321664Y640080D03*
G01X-1472336Y640080D03*
G01X-1453616Y1336940D03*
G01X-1302944Y1336940D03*
G54D25*
G01X-1473200Y85001D03*
G01X-1473200Y-85001D03*
G01X1818640Y85001D03*
G01X1818640Y-85001D03*
G01X-2011680Y641439D03*
G01X-2011680Y811441D03*
G54D24*
G01X873780Y-431104D03*
G01X873780Y-581776D03*
G01X1142400Y116136D03*
G01X1142400Y-34536D03*
G01X-1092200Y-877976D03*
G01X-1092200Y-727304D03*
G54D22*
G01X1187876Y-425160D03*
G01X1037204Y-425160D03*
G54D26*
G01X-1744091Y894980D03*
G01X-1307109Y894980D03*
G54D27*
G01X-205720Y-1079210D03*
G01X-78720Y-1079210D03*
G01X48280Y-1079210D03*
G01X175280Y-1079210D03*
G01X175280Y-497550D03*
G01X48280Y-497550D03*
G01X-78720Y-497550D03*
G01X-205720Y-497550D03*
G54D28*
G01X-15220Y-788380D03*
G54D29*
G01X-880085Y1610855D03*
G01X-880085Y1483855D03*
G01X-880085Y1356855D03*
G01X-880085Y1229855D03*
G01X-880085Y1102855D03*
G01X-880085Y975855D03*
G01X-880085Y848855D03*
G01X-880085Y721855D03*
G01X-880085Y594855D03*
G01X-880085Y467855D03*
G01X-880085Y340855D03*
G01X-880085Y213855D03*
G01X-880085Y86855D03*
G01X-880085Y-40145D03*
G54D30*
G01X-703580Y-168135D03*
G01X-576580Y-168135D03*
G01X-449580Y-168135D03*
G01X-322580Y-168135D03*
G01X-195580Y-168135D03*
G01X-68580Y-168135D03*
G01X58420Y-168135D03*
G01X185420Y-168135D03*
G01X312420Y-168135D03*
G01X439420Y-168135D03*
G01X566420Y-168135D03*
G01X693420Y-165138D03*
G54D29*
G01X869925Y-40145D03*
G01X869925Y86855D03*
G01X869925Y213855D03*
G01X869925Y340855D03*
G01X869925Y467855D03*
G01X869925Y594855D03*
G01X869925Y721855D03*
G01X869925Y848855D03*
G01X869925Y975855D03*
G01X869925Y1102855D03*
G01X869925Y1229855D03*
G01X869925Y1356855D03*
G01X869925Y1483855D03*
G01X869925Y1610855D03*
G54D31*
G01X-15088Y698843D03*
G01X-155092Y698843D03*
G01X-295097Y698843D03*
G01X-295097Y978853D03*
G01X-155092Y978853D03*
G01X-15088Y978853D03*
G01X-15088Y838848D03*
G01X-295097Y838848D03*
G01X-155092Y838848D03*
G54D32*
G01X1627093Y-680684D03*
G01X1627093Y-775680D03*
G01X1627093Y-870676D03*
G54D33*
G01X1857827Y-870676D03*
G01X1857827Y-680684D03*
G54D34*
G01X-169906Y-1894791D03*
G01X-119893Y-1894791D03*
G01X-69906Y-1894791D03*
G01X-19894Y-1894791D03*
G01X30094Y-1894791D03*
G01X80106Y-1894791D03*
G01X130068Y-1894791D03*
G01X180106Y-1894791D03*
G36*
G01X-284897Y-1964885D02*
G01X-314893Y-1964885D01*
G01X-344892Y-1964900D01*
G02X-349994Y-1959800I-3J5100D01*
G01X-349994Y-1829798D01*
G02X-344894Y-1824697I5100J0D01*
G01X-314898Y-1824697D01*
G01X-284899Y-1824682D01*
G02X-279796Y-1829782I3J-5100D01*
G01X-279796Y-1959785D01*
G02X-284897Y-1964885I-5100J0D01*
G37*
G36*
G01X289999Y-1959780D02*
G01X289999Y-1829782D01*
G02X295099Y-1824682I5100J0D01*
G01X355102Y-1824682D01*
G02X360202Y-1829782I0J-5100D01*
G01X360202Y-1959780D01*
G02X355102Y-1964880I-5100J0D01*
G01X295099Y-1964880D01*
G02X289999Y-1959780I0J5100D01*
G37*
G36*
G01X280218Y-1829782D02*
G01X280218Y-1959780D01*
G02X275117Y-1964880I-5100J0D01*
G01X215115Y-1964880D01*
G02X210015Y-1959780I0J5100D01*
G01X210015Y-1829782D01*
G02X215115Y-1824682I5100J0D01*
G01X275117Y-1824682D01*
G02X280218Y-1829782I0J-5100D01*
G37*
G36*
G01X-204897Y-1964895D02*
G01X-234892Y-1964895D01*
G01X-264894Y-1964898D01*
G02X-269995Y-1959797I-0J5100D01*
G01X-269995Y-1829800D01*
G02X-264894Y-1824700I5100J0D01*
G01X-234900Y-1824700D01*
G01X-204897Y-1824697D01*
G02X-199797Y-1829798I0J-5100D01*
G01X-199797Y-1959795D01*
G02X-204897Y-1964895I-5100J0D01*
G37*
G54D35*
G01X437611Y-2389609D03*
G54D36*
G01X437611Y-1971626D03*
G01X-427411Y-1971626D03*
G54D35*
G01X-427411Y-2389609D03*
G54D37*
G01X1202360Y1052460D03*
G54D38*
G01X1202360Y1306460D03*
G01X1202360Y1560460D03*
G54D39*
G01X1188740Y-1537680D03*
G01X1188740Y-775680D03*
G04 Pad End*

M02*

