G04 Layer: TopSilkscreenLayer*
G04 EasyEDA Pro v3.2.121, 2026-05-25 16:47:59*
G04 Gerber Generator version 0.3*
G04 Scale: 100 percent, Rotated: No, Reflected: No*
G04 Dimensions in millimeters*
G04 Leading zeros omitted, absolute positions, 4 integers and 5 decimals*
G04 Generated by one-click*
%FSLAX45Y45*%
%MOMM*%
%ADD10C,0.1524*%
%ADD11C,0.127*%
%ADD12C,0.254*%
%ADD13C,0.2032*%
%ADD14C,0.203*%
%ADD15C,0.15001*%
%ADD16C,0.152*%
%ADD17C,0.3033*%
%ADD18C,0.3*%
G75*


G04 Text Start*
G54D10*
G01X-1770126Y190500D02*
G01X-1835150Y190500D01*
G01X-1770126Y190500D02*
G01X-1770126Y162560D01*
G01X-1773174Y153416D01*
G01X-1776222Y150368D01*
G01X-1782572Y147066D01*
G01X-1788668Y147066D01*
G01X-1794764Y150368D01*
G01X-1797812Y153416D01*
G01X-1801114Y162560D01*
G01X-1801114Y190500D02*
G01X-1801114Y162560D01*
G01X-1804162Y153416D01*
G01X-1807210Y150368D01*
G01X-1813306Y147066D01*
G01X-1822704Y147066D01*
G01X-1828800Y150368D01*
G01X-1832102Y153416D01*
G01X-1835150Y162560D01*
G01X-1835150Y190500D01*
G01X-1770126Y116840D02*
G01X-1816608Y116840D01*
G01X-1825752Y113792D01*
G01X-1832102Y107696D01*
G01X-1835150Y98298D01*
G01X-1835150Y92202D01*
G01X-1832102Y82804D01*
G01X-1825752Y76708D01*
G01X-1816608Y73660D01*
G01X-1770126Y73660D01*
G01X-1770126Y254D02*
G01X-1835150Y43434D01*
G01X-1770126Y43434D02*
G01X-1770126Y254D01*
G01X-1835150Y43434D02*
G01X-1835150Y254D01*
G01X-1770126Y-73152D02*
G01X-1835150Y-29972D01*
G01X-1770126Y-29972D02*
G01X-1770126Y-73152D01*
G01X-1835150Y-29972D02*
G01X-1835150Y-73152D01*
G01X-1770126Y-103378D02*
G01X-1835150Y-103378D01*
G01X-1770126Y-103378D02*
G01X-1770126Y-143510D01*
G01X-1801114Y-103378D02*
G01X-1801114Y-128016D01*
G01X-1835150Y-103378D02*
G01X-1835150Y-143510D01*
G01X-1770126Y-173736D02*
G01X-1835150Y-173736D01*
G01X-1770126Y-173736D02*
G01X-1770126Y-201422D01*
G01X-1773174Y-210820D01*
G01X-1776222Y-213868D01*
G01X-1782572Y-216916D01*
G01X-1788668Y-216916D01*
G01X-1794764Y-213868D01*
G01X-1797812Y-210820D01*
G01X-1801114Y-201422D01*
G01X-1801114Y-173736D01*
G01X-1801114Y-195326D02*
G01X-1835150Y-216916D01*
G01X-1782572Y-247142D02*
G01X-1779270Y-253238D01*
G01X-1770126Y-262382D01*
G01X-1835150Y-262382D01*
G01X445262Y-1292860D02*
G01X442214Y-1286510D01*
G01X435864Y-1280414D01*
G01X429768Y-1277366D01*
G01X417322Y-1277366D01*
G01X411226Y-1280414D01*
G01X404876Y-1286510D01*
G01X401828Y-1292860D01*
G01X398780Y-1302004D01*
G01X398780Y-1317498D01*
G01X401828Y-1326896D01*
G01X404876Y-1332992D01*
G01X411226Y-1339342D01*
G01X417322Y-1342390D01*
G01X429768Y-1342390D01*
G01X435864Y-1339342D01*
G01X442214Y-1332992D01*
G01X445262Y-1326896D01*
G01X475488Y-1289812D02*
G01X481584Y-1286510D01*
G01X490728Y-1277366D01*
G01X490728Y-1342390D01*
G01X348762Y-580100D02*
G01X345714Y-573750D01*
G01X339364Y-567654D01*
G01X333268Y-564606D01*
G01X320822Y-564606D01*
G01X314726Y-567654D01*
G01X308376Y-573750D01*
G01X305328Y-580100D01*
G01X302280Y-589244D01*
G01X302280Y-604738D01*
G01X305328Y-614136D01*
G01X308376Y-620232D01*
G01X314726Y-626582D01*
G01X320822Y-629630D01*
G01X333268Y-629630D01*
G01X339364Y-626582D01*
G01X345714Y-620232D01*
G01X348762Y-614136D01*
G01X382036Y-580100D02*
G01X382036Y-577052D01*
G01X385084Y-570702D01*
G01X388132Y-567654D01*
G01X394228Y-564606D01*
G01X406674Y-564606D01*
G01X413024Y-567654D01*
G01X416072Y-570702D01*
G01X419120Y-577052D01*
G01X419120Y-583148D01*
G01X416072Y-589244D01*
G01X409722Y-598642D01*
G01X378988Y-629630D01*
G01X422168Y-629630D01*
G01X-2252218Y922020D02*
G01X-2255266Y928370D01*
G01X-2261616Y934466D01*
G01X-2267712Y937514D01*
G01X-2280158Y937514D01*
G01X-2286254Y934466D01*
G01X-2292604Y928370D01*
G01X-2295652Y922020D01*
G01X-2298700Y912876D01*
G01X-2298700Y897382D01*
G01X-2295652Y887984D01*
G01X-2292604Y881888D01*
G01X-2286254Y875538D01*
G01X-2280158Y872490D01*
G01X-2267712Y872490D01*
G01X-2261616Y875538D01*
G01X-2255266Y881888D01*
G01X-2252218Y887984D01*
G01X-2184908Y937514D02*
G01X-2215896Y937514D01*
G01X-2218944Y909828D01*
G01X-2215896Y912876D01*
G01X-2206752Y915924D01*
G01X-2197354Y915924D01*
G01X-2187956Y912876D01*
G01X-2181860Y906526D01*
G01X-2178812Y897382D01*
G01X-2178812Y891032D01*
G01X-2181860Y881888D01*
G01X-2187956Y875538D01*
G01X-2197354Y872490D01*
G01X-2206752Y872490D01*
G01X-2215896Y875538D01*
G01X-2218944Y878840D01*
G01X-2221992Y884936D01*
G01X-1613738Y1202320D02*
G01X-1616786Y1208670D01*
G01X-1623136Y1214766D01*
G01X-1629232Y1217814D01*
G01X-1641678Y1217814D01*
G01X-1647774Y1214766D01*
G01X-1654124Y1208670D01*
G01X-1657172Y1202320D01*
G01X-1660220Y1193176D01*
G01X-1660220Y1177682D01*
G01X-1657172Y1168284D01*
G01X-1654124Y1162188D01*
G01X-1647774Y1155838D01*
G01X-1641678Y1152790D01*
G01X-1629232Y1152790D01*
G01X-1623136Y1155838D01*
G01X-1616786Y1162188D01*
G01X-1613738Y1168284D01*
G01X-1546428Y1208670D02*
G01X-1549476Y1214766D01*
G01X-1558874Y1217814D01*
G01X-1564970Y1217814D01*
G01X-1574368Y1214766D01*
G01X-1580464Y1205368D01*
G01X-1583512Y1190128D01*
G01X-1583512Y1174634D01*
G01X-1580464Y1162188D01*
G01X-1574368Y1155838D01*
G01X-1564970Y1152790D01*
G01X-1561922Y1152790D01*
G01X-1552778Y1155838D01*
G01X-1546428Y1162188D01*
G01X-1543380Y1171332D01*
G01X-1543380Y1174634D01*
G01X-1546428Y1183778D01*
G01X-1552778Y1190128D01*
G01X-1561922Y1193176D01*
G01X-1564970Y1193176D01*
G01X-1574368Y1190128D01*
G01X-1580464Y1183778D01*
G01X-1583512Y1174634D01*
G01X1039642Y-707100D02*
G01X1036594Y-700750D01*
G01X1030244Y-694654D01*
G01X1024148Y-691606D01*
G01X1011702Y-691606D01*
G01X1005606Y-694654D01*
G01X999256Y-700750D01*
G01X996208Y-707100D01*
G01X993160Y-716244D01*
G01X993160Y-731738D01*
G01X996208Y-741136D01*
G01X999256Y-747232D01*
G01X1005606Y-753582D01*
G01X1011702Y-756630D01*
G01X1024148Y-756630D01*
G01X1030244Y-753582D01*
G01X1036594Y-747232D01*
G01X1039642Y-741136D01*
G01X1113048Y-691606D02*
G01X1082060Y-756630D01*
G01X1069868Y-691606D02*
G01X1113048Y-691606D01*
G01X1344442Y-488660D02*
G01X1341394Y-482310D01*
G01X1335044Y-476214D01*
G01X1328948Y-473166D01*
G01X1316502Y-473166D01*
G01X1310406Y-476214D01*
G01X1304056Y-482310D01*
G01X1301008Y-488660D01*
G01X1297960Y-497804D01*
G01X1297960Y-513298D01*
G01X1301008Y-522696D01*
G01X1304056Y-528792D01*
G01X1310406Y-535142D01*
G01X1316502Y-538190D01*
G01X1328948Y-538190D01*
G01X1335044Y-535142D01*
G01X1341394Y-528792D01*
G01X1344442Y-522696D01*
G01X1389908Y-473166D02*
G01X1380764Y-476214D01*
G01X1377716Y-482310D01*
G01X1377716Y-488660D01*
G01X1380764Y-494756D01*
G01X1386860Y-497804D01*
G01X1399306Y-500852D01*
G01X1408704Y-504154D01*
G01X1414800Y-510250D01*
G01X1417848Y-516346D01*
G01X1417848Y-525744D01*
G01X1414800Y-531840D01*
G01X1411752Y-535142D01*
G01X1402354Y-538190D01*
G01X1389908Y-538190D01*
G01X1380764Y-535142D01*
G01X1377716Y-531840D01*
G01X1374668Y-525744D01*
G01X1374668Y-516346D01*
G01X1377716Y-510250D01*
G01X1383812Y-504154D01*
G01X1393210Y-500852D01*
G01X1405402Y-497804D01*
G01X1411752Y-494756D01*
G01X1414800Y-488660D01*
G01X1414800Y-482310D01*
G01X1411752Y-476214D01*
G01X1402354Y-473166D01*
G01X1389908Y-473166D01*
G01X2030242Y-539460D02*
G01X2027194Y-533110D01*
G01X2020844Y-527014D01*
G01X2014748Y-523966D01*
G01X2002302Y-523966D01*
G01X1996206Y-527014D01*
G01X1989856Y-533110D01*
G01X1986808Y-539460D01*
G01X1983760Y-548604D01*
G01X1983760Y-564098D01*
G01X1986808Y-573496D01*
G01X1989856Y-579592D01*
G01X1996206Y-585942D01*
G01X2002302Y-588990D01*
G01X2014748Y-588990D01*
G01X2020844Y-585942D01*
G01X2027194Y-579592D01*
G01X2030242Y-573496D01*
G01X2100600Y-545556D02*
G01X2097552Y-554954D01*
G01X2091202Y-561050D01*
G01X2082058Y-564098D01*
G01X2079010Y-564098D01*
G01X2069612Y-561050D01*
G01X2063516Y-554954D01*
G01X2060468Y-545556D01*
G01X2060468Y-542508D01*
G01X2063516Y-533110D01*
G01X2069612Y-527014D01*
G01X2079010Y-523966D01*
G01X2082058Y-523966D01*
G01X2091202Y-527014D01*
G01X2097552Y-533110D01*
G01X2100600Y-545556D01*
G01X2100600Y-561050D01*
G01X2097552Y-576544D01*
G01X2091202Y-585942D01*
G01X2082058Y-588990D01*
G01X2075708Y-588990D01*
G01X2066564Y-585942D01*
G01X2063516Y-579592D01*
G01X-1517218Y1776360D02*
G01X-1520266Y1782710D01*
G01X-1526616Y1788806D01*
G01X-1532712Y1791854D01*
G01X-1545158Y1791854D01*
G01X-1551254Y1788806D01*
G01X-1557604Y1782710D01*
G01X-1560652Y1776360D01*
G01X-1563700Y1767216D01*
G01X-1563700Y1751722D01*
G01X-1560652Y1742324D01*
G01X-1557604Y1736228D01*
G01X-1551254Y1729878D01*
G01X-1545158Y1726830D01*
G01X-1532712Y1726830D01*
G01X-1526616Y1729878D01*
G01X-1520266Y1736228D01*
G01X-1517218Y1742324D01*
G01X-1486992Y1779408D02*
G01X-1480896Y1782710D01*
G01X-1471752Y1791854D01*
G01X-1471752Y1726830D01*
G01X-1422984Y1791854D02*
G01X-1432382Y1788806D01*
G01X-1438478Y1779408D01*
G01X-1441526Y1764168D01*
G01X-1441526Y1754770D01*
G01X-1438478Y1739276D01*
G01X-1432382Y1729878D01*
G01X-1422984Y1726830D01*
G01X-1416888Y1726830D01*
G01X-1407490Y1729878D01*
G01X-1401394Y1739276D01*
G01X-1398346Y1754770D01*
G01X-1398346Y1764168D01*
G01X-1401394Y1779408D01*
G01X-1407490Y1788806D01*
G01X-1416888Y1791854D01*
G01X-1422984Y1791854D01*
G01X-1303858Y1771280D02*
G01X-1306906Y1777630D01*
G01X-1313256Y1783726D01*
G01X-1319352Y1786774D01*
G01X-1331798Y1786774D01*
G01X-1337894Y1783726D01*
G01X-1344244Y1777630D01*
G01X-1347292Y1771280D01*
G01X-1350340Y1762136D01*
G01X-1350340Y1746642D01*
G01X-1347292Y1737244D01*
G01X-1344244Y1731148D01*
G01X-1337894Y1724798D01*
G01X-1331798Y1721750D01*
G01X-1319352Y1721750D01*
G01X-1313256Y1724798D01*
G01X-1306906Y1731148D01*
G01X-1303858Y1737244D01*
G01X-1273632Y1774328D02*
G01X-1267536Y1777630D01*
G01X-1258392Y1786774D01*
G01X-1258392Y1721750D01*
G01X-1228166Y1774328D02*
G01X-1222070Y1777630D01*
G01X-1212926Y1786774D01*
G01X-1212926Y1721750D01*
G01X-1105738Y1771280D02*
G01X-1108786Y1777630D01*
G01X-1115136Y1783726D01*
G01X-1121232Y1786774D01*
G01X-1133678Y1786774D01*
G01X-1139774Y1783726D01*
G01X-1146124Y1777630D01*
G01X-1149172Y1771280D01*
G01X-1152220Y1762136D01*
G01X-1152220Y1746642D01*
G01X-1149172Y1737244D01*
G01X-1146124Y1731148D01*
G01X-1139774Y1724798D01*
G01X-1133678Y1721750D01*
G01X-1121232Y1721750D01*
G01X-1115136Y1724798D01*
G01X-1108786Y1731148D01*
G01X-1105738Y1737244D01*
G01X-1075512Y1774328D02*
G01X-1069416Y1777630D01*
G01X-1060272Y1786774D01*
G01X-1060272Y1721750D01*
G01X-1026998Y1771280D02*
G01X-1026998Y1774328D01*
G01X-1023950Y1780678D01*
G01X-1020902Y1783726D01*
G01X-1014806Y1786774D01*
G01X-1002360Y1786774D01*
G01X-996010Y1783726D01*
G01X-992962Y1780678D01*
G01X-989914Y1774328D01*
G01X-989914Y1768232D01*
G01X-992962Y1762136D01*
G01X-999312Y1752738D01*
G01X-1030046Y1721750D01*
G01X-986866Y1721750D01*
G01X739160Y-1651726D02*
G01X739160Y-1716750D01*
G01X739160Y-1651726D02*
G01X760750Y-1651726D01*
G01X770148Y-1654774D01*
G01X776244Y-1660870D01*
G01X779292Y-1667220D01*
G01X782594Y-1676364D01*
G01X782594Y-1691858D01*
G01X779292Y-1701256D01*
G01X776244Y-1707352D01*
G01X770148Y-1713702D01*
G01X760750Y-1716750D01*
G01X739160Y-1716750D01*
G01X812820Y-1664172D02*
G01X818916Y-1660870D01*
G01X828060Y-1651726D01*
G01X828060Y-1716750D01*
G01X1394820Y180934D02*
G01X1394820Y115910D01*
G01X1438254Y180934D02*
G01X1438254Y115910D01*
G01X1394820Y149946D02*
G01X1438254Y149946D01*
G01X1468480Y168488D02*
G01X1474576Y171790D01*
G01X1483720Y180934D01*
G01X1483720Y115910D01*
G01X-1221486Y-967740D02*
G01X-1286510Y-967740D01*
G01X-1286510Y-967740D02*
G01X-1286510Y-1004824D01*
G01X-1221486Y-1035050D02*
G01X-1286510Y-1035050D01*
G01X-1221486Y-1035050D02*
G01X-1221486Y-1075182D01*
G01X-1252474Y-1035050D02*
G01X-1252474Y-1059688D01*
G01X-1286510Y-1035050D02*
G01X-1286510Y-1075182D01*
G01X-1221486Y-1105408D02*
G01X-1286510Y-1105408D01*
G01X-1221486Y-1105408D02*
G01X-1221486Y-1126998D01*
G01X-1224534Y-1136142D01*
G01X-1230630Y-1142492D01*
G01X-1236980Y-1145540D01*
G01X-1246124Y-1148588D01*
G01X-1261618Y-1148588D01*
G01X-1271016Y-1145540D01*
G01X-1277112Y-1142492D01*
G01X-1283462Y-1136142D01*
G01X-1286510Y-1126998D01*
G01X-1286510Y-1105408D01*
G01X-1233932Y-1178814D02*
G01X-1230630Y-1184910D01*
G01X-1221486Y-1194054D01*
G01X-1286510Y-1194054D01*
G01X-698226Y-966180D02*
G01X-763250Y-966180D01*
G01X-763250Y-966180D02*
G01X-763250Y-1003264D01*
G01X-698226Y-1033490D02*
G01X-763250Y-1033490D01*
G01X-698226Y-1033490D02*
G01X-698226Y-1073622D01*
G01X-729214Y-1033490D02*
G01X-729214Y-1058128D01*
G01X-763250Y-1033490D02*
G01X-763250Y-1073622D01*
G01X-698226Y-1103848D02*
G01X-763250Y-1103848D01*
G01X-698226Y-1103848D02*
G01X-698226Y-1125438D01*
G01X-701274Y-1134582D01*
G01X-707370Y-1140932D01*
G01X-713720Y-1143980D01*
G01X-722864Y-1147028D01*
G01X-738358Y-1147028D01*
G01X-747756Y-1143980D01*
G01X-753852Y-1140932D01*
G01X-760202Y-1134582D01*
G01X-763250Y-1125438D01*
G01X-763250Y-1103848D01*
G01X-784840Y-1177254D02*
G01X-784840Y-1232880D01*
G01X-713720Y-1309334D02*
G01X-707370Y-1306286D01*
G01X-701274Y-1300190D01*
G01X-698226Y-1293840D01*
G01X-698226Y-1281648D01*
G01X-701274Y-1275298D01*
G01X-707370Y-1269202D01*
G01X-713720Y-1266154D01*
G01X-722864Y-1263106D01*
G01X-738358Y-1263106D01*
G01X-747756Y-1266154D01*
G01X-753852Y-1269202D01*
G01X-760202Y-1275298D01*
G01X-763250Y-1281648D01*
G01X-763250Y-1293840D01*
G01X-760202Y-1300190D01*
G01X-753852Y-1306286D01*
G01X-747756Y-1309334D01*
G01X-738358Y-1309334D01*
G01X-738358Y-1293840D02*
G01X-738358Y-1309334D01*
G01X-710672Y-1339560D02*
G01X-707370Y-1345656D01*
G01X-698226Y-1354800D01*
G01X-763250Y-1354800D01*
G01X-896346Y-971260D02*
G01X-961370Y-971260D01*
G01X-961370Y-971260D02*
G01X-961370Y-1008344D01*
G01X-896346Y-1038570D02*
G01X-961370Y-1038570D01*
G01X-896346Y-1038570D02*
G01X-896346Y-1078702D01*
G01X-927334Y-1038570D02*
G01X-927334Y-1063208D01*
G01X-961370Y-1038570D02*
G01X-961370Y-1078702D01*
G01X-896346Y-1108928D02*
G01X-961370Y-1108928D01*
G01X-896346Y-1108928D02*
G01X-896346Y-1130518D01*
G01X-899394Y-1139662D01*
G01X-905490Y-1146012D01*
G01X-911840Y-1149060D01*
G01X-920984Y-1152108D01*
G01X-936478Y-1152108D01*
G01X-945876Y-1149060D01*
G01X-951972Y-1146012D01*
G01X-958322Y-1139662D01*
G01X-961370Y-1130518D01*
G01X-961370Y-1108928D01*
G01X-982960Y-1182334D02*
G01X-982960Y-1237960D01*
G01X-896346Y-1268186D02*
G01X-961370Y-1268186D01*
G01X-896346Y-1268186D02*
G01X-896346Y-1295872D01*
G01X-899394Y-1305270D01*
G01X-902442Y-1308318D01*
G01X-908792Y-1311366D01*
G01X-914888Y-1311366D01*
G01X-920984Y-1308318D01*
G01X-924032Y-1305270D01*
G01X-927334Y-1295872D01*
G01X-927334Y-1268186D01*
G01X-927334Y-1289776D02*
G01X-961370Y-1311366D01*
G01X-908792Y-1341592D02*
G01X-905490Y-1347688D01*
G01X-896346Y-1356832D01*
G01X-961370Y-1356832D01*
G01X676422Y-1179286D02*
G01X670326Y-1182334D01*
G01X663976Y-1188430D01*
G01X660928Y-1194780D01*
G01X657880Y-1203924D01*
G01X657880Y-1219418D01*
G01X660928Y-1228816D01*
G01X663976Y-1234912D01*
G01X670326Y-1241262D01*
G01X676422Y-1244310D01*
G01X688868Y-1244310D01*
G01X694964Y-1241262D01*
G01X701314Y-1234912D01*
G01X704362Y-1228816D01*
G01X707410Y-1219418D01*
G01X707410Y-1203924D01*
G01X704362Y-1194780D01*
G01X701314Y-1188430D01*
G01X694964Y-1182334D01*
G01X688868Y-1179286D01*
G01X676422Y-1179286D01*
G01X685820Y-1231864D02*
G01X704362Y-1250406D01*
G01X740684Y-1194780D02*
G01X740684Y-1191732D01*
G01X743732Y-1185382D01*
G01X746780Y-1182334D01*
G01X752876Y-1179286D01*
G01X765322Y-1179286D01*
G01X771672Y-1182334D01*
G01X774720Y-1185382D01*
G01X777768Y-1191732D01*
G01X777768Y-1197828D01*
G01X774720Y-1203924D01*
G01X768370Y-1213322D01*
G01X737636Y-1244310D01*
G01X780816Y-1244310D01*
G01X-403840Y-1252946D02*
G01X-403840Y-1317970D01*
G01X-403840Y-1252946D02*
G01X-375900Y-1252946D01*
G01X-366756Y-1255994D01*
G01X-363708Y-1259042D01*
G01X-360406Y-1265392D01*
G01X-360406Y-1271488D01*
G01X-363708Y-1277584D01*
G01X-366756Y-1280632D01*
G01X-375900Y-1283934D01*
G01X-403840Y-1283934D01*
G01X-382250Y-1283934D02*
G01X-360406Y-1317970D01*
G01X-330180Y-1265392D02*
G01X-324084Y-1262090D01*
G01X-314940Y-1252946D01*
G01X-314940Y-1317970D01*
G01X-53879Y-1473367D02*
G01X-53879Y-1538391D01*
G01X-53879Y-1473367D02*
G01X-25939Y-1473367D01*
G01X-16795Y-1476415D01*
G01X-13747Y-1479463D01*
G01X-10445Y-1485813D01*
G01X-10445Y-1491909D01*
G01X-13747Y-1498005D01*
G01X-16795Y-1501053D01*
G01X-25939Y-1504355D01*
G01X-53879Y-1504355D01*
G01X-32289Y-1504355D02*
G01X-10445Y-1538391D01*
G01X25877Y-1473367D02*
G01X59913Y-1473367D01*
G01X41371Y-1498005D01*
G01X50515Y-1498005D01*
G01X56865Y-1501053D01*
G01X59913Y-1504355D01*
G01X62961Y-1513499D01*
G01X62961Y-1519849D01*
G01X59913Y-1528993D01*
G01X53817Y-1535343D01*
G01X44419Y-1538391D01*
G01X35021Y-1538391D01*
G01X25877Y-1535343D01*
G01X22829Y-1532041D01*
G01X19781Y-1525945D01*
G01X-469880Y-574766D02*
G01X-469880Y-639790D01*
G01X-469880Y-574766D02*
G01X-441940Y-574766D01*
G01X-432796Y-577814D01*
G01X-429748Y-580862D01*
G01X-426446Y-587212D01*
G01X-426446Y-593308D01*
G01X-429748Y-599404D01*
G01X-432796Y-602452D01*
G01X-441940Y-605754D01*
G01X-469880Y-605754D01*
G01X-448290Y-605754D02*
G01X-426446Y-639790D01*
G01X-365486Y-574766D02*
G01X-396220Y-617946D01*
G01X-349992Y-617946D01*
G01X-365486Y-574766D02*
G01X-365486Y-639790D01*
G01X-632440Y-574766D02*
G01X-632440Y-639790D01*
G01X-632440Y-574766D02*
G01X-604500Y-574766D01*
G01X-595356Y-577814D01*
G01X-592308Y-580862D01*
G01X-589006Y-587212D01*
G01X-589006Y-593308D01*
G01X-592308Y-599404D01*
G01X-595356Y-602452D01*
G01X-604500Y-605754D01*
G01X-632440Y-605754D01*
G01X-610850Y-605754D02*
G01X-589006Y-639790D01*
G01X-521696Y-574766D02*
G01X-552684Y-574766D01*
G01X-555732Y-602452D01*
G01X-552684Y-599404D01*
G01X-543540Y-596356D01*
G01X-534142Y-596356D01*
G01X-524744Y-599404D01*
G01X-518648Y-605754D01*
G01X-515600Y-614898D01*
G01X-515600Y-621248D01*
G01X-518648Y-630392D01*
G01X-524744Y-636742D01*
G01X-534142Y-639790D01*
G01X-543540Y-639790D01*
G01X-552684Y-636742D01*
G01X-555732Y-633440D01*
G01X-558780Y-627344D01*
G01X-1724880Y-770406D02*
G01X-1724880Y-835430D01*
G01X-1724880Y-770406D02*
G01X-1696940Y-770406D01*
G01X-1687796Y-773454D01*
G01X-1684748Y-776502D01*
G01X-1681446Y-782852D01*
G01X-1681446Y-788948D01*
G01X-1684748Y-795044D01*
G01X-1687796Y-798092D01*
G01X-1696940Y-801394D01*
G01X-1724880Y-801394D01*
G01X-1703290Y-801394D02*
G01X-1681446Y-835430D01*
G01X-1614136Y-779550D02*
G01X-1617184Y-773454D01*
G01X-1626582Y-770406D01*
G01X-1632678Y-770406D01*
G01X-1642076Y-773454D01*
G01X-1648172Y-782852D01*
G01X-1651220Y-798092D01*
G01X-1651220Y-813586D01*
G01X-1648172Y-826032D01*
G01X-1642076Y-832382D01*
G01X-1632678Y-835430D01*
G01X-1629630Y-835430D01*
G01X-1620486Y-832382D01*
G01X-1614136Y-826032D01*
G01X-1611088Y-816888D01*
G01X-1611088Y-813586D01*
G01X-1614136Y-804442D01*
G01X-1620486Y-798092D01*
G01X-1629630Y-795044D01*
G01X-1632678Y-795044D01*
G01X-1642076Y-798092D01*
G01X-1648172Y-804442D01*
G01X-1651220Y-813586D01*
G01X398800Y-1387566D02*
G01X398800Y-1452590D01*
G01X398800Y-1387566D02*
G01X426740Y-1387566D01*
G01X435884Y-1390614D01*
G01X438932Y-1393662D01*
G01X442234Y-1400012D01*
G01X442234Y-1406108D01*
G01X438932Y-1412204D01*
G01X435884Y-1415252D01*
G01X426740Y-1418554D01*
G01X398800Y-1418554D01*
G01X420390Y-1418554D02*
G01X442234Y-1452590D01*
G01X487700Y-1387566D02*
G01X478556Y-1390614D01*
G01X475508Y-1396710D01*
G01X475508Y-1403060D01*
G01X478556Y-1409156D01*
G01X484652Y-1412204D01*
G01X497098Y-1415252D01*
G01X506496Y-1418554D01*
G01X512592Y-1424650D01*
G01X515640Y-1430746D01*
G01X515640Y-1440144D01*
G01X512592Y-1446240D01*
G01X509544Y-1449542D01*
G01X500146Y-1452590D01*
G01X487700Y-1452590D01*
G01X478556Y-1449542D01*
G01X475508Y-1446240D01*
G01X472460Y-1440144D01*
G01X472460Y-1430746D01*
G01X475508Y-1424650D01*
G01X481604Y-1418554D01*
G01X491002Y-1415252D01*
G01X503194Y-1412204D01*
G01X509544Y-1409156D01*
G01X512592Y-1403060D01*
G01X512592Y-1396710D01*
G01X509544Y-1390614D01*
G01X500146Y-1387566D01*
G01X487700Y-1387566D01*
G01X-1239520Y360934D02*
G01X-1239520Y295910D01*
G01X-1239520Y360934D02*
G01X-1211580Y360934D01*
G01X-1202436Y357886D01*
G01X-1199388Y354838D01*
G01X-1196086Y348488D01*
G01X-1196086Y342392D01*
G01X-1199388Y336296D01*
G01X-1202436Y333248D01*
G01X-1211580Y329946D01*
G01X-1239520Y329946D01*
G01X-1217930Y329946D02*
G01X-1196086Y295910D01*
G01X-1125728Y339344D02*
G01X-1128776Y329946D01*
G01X-1135126Y323850D01*
G01X-1144270Y320802D01*
G01X-1147318Y320802D01*
G01X-1156716Y323850D01*
G01X-1162812Y329946D01*
G01X-1165860Y339344D01*
G01X-1165860Y342392D01*
G01X-1162812Y351790D01*
G01X-1156716Y357886D01*
G01X-1147318Y360934D01*
G01X-1144270Y360934D01*
G01X-1135126Y357886D01*
G01X-1128776Y351790D01*
G01X-1125728Y339344D01*
G01X-1125728Y323850D01*
G01X-1128776Y308356D01*
G01X-1135126Y298958D01*
G01X-1144270Y295910D01*
G01X-1150620Y295910D01*
G01X-1159764Y298958D01*
G01X-1162812Y305308D01*
G01X-1239520Y518414D02*
G01X-1239520Y453390D01*
G01X-1239520Y518414D02*
G01X-1211580Y518414D01*
G01X-1202436Y515366D01*
G01X-1199388Y512318D01*
G01X-1196086Y505968D01*
G01X-1196086Y499872D01*
G01X-1199388Y493776D01*
G01X-1202436Y490728D01*
G01X-1211580Y487426D01*
G01X-1239520Y487426D01*
G01X-1217930Y487426D02*
G01X-1196086Y453390D01*
G01X-1165860Y505968D02*
G01X-1159764Y509270D01*
G01X-1150620Y518414D01*
G01X-1150620Y453390D01*
G01X-1101852Y518414D02*
G01X-1111250Y515366D01*
G01X-1117346Y505968D01*
G01X-1120394Y490728D01*
G01X-1120394Y481330D01*
G01X-1117346Y465836D01*
G01X-1111250Y456438D01*
G01X-1101852Y453390D01*
G01X-1095756Y453390D01*
G01X-1086358Y456438D01*
G01X-1080262Y465836D01*
G01X-1077214Y481330D01*
G01X-1077214Y490728D01*
G01X-1080262Y505968D01*
G01X-1086358Y515366D01*
G01X-1095756Y518414D01*
G01X-1101852Y518414D01*
G01X-1239520Y670814D02*
G01X-1239520Y605790D01*
G01X-1239520Y670814D02*
G01X-1211580Y670814D01*
G01X-1202436Y667766D01*
G01X-1199388Y664718D01*
G01X-1196086Y658368D01*
G01X-1196086Y652272D01*
G01X-1199388Y646176D01*
G01X-1202436Y643128D01*
G01X-1211580Y639826D01*
G01X-1239520Y639826D01*
G01X-1217930Y639826D02*
G01X-1196086Y605790D01*
G01X-1165860Y658368D02*
G01X-1159764Y661670D01*
G01X-1150620Y670814D01*
G01X-1150620Y605790D01*
G01X-1120394Y658368D02*
G01X-1114298Y661670D01*
G01X-1105154Y670814D01*
G01X-1105154Y605790D01*
G01X-1700860Y1375294D02*
G01X-1700860Y1310270D01*
G01X-1700860Y1375294D02*
G01X-1672920Y1375294D01*
G01X-1663776Y1372246D01*
G01X-1660728Y1369198D01*
G01X-1657426Y1362848D01*
G01X-1657426Y1356752D01*
G01X-1660728Y1350656D01*
G01X-1663776Y1347608D01*
G01X-1672920Y1344306D01*
G01X-1700860Y1344306D01*
G01X-1679270Y1344306D02*
G01X-1657426Y1310270D01*
G01X-1627200Y1362848D02*
G01X-1621104Y1366150D01*
G01X-1611960Y1375294D01*
G01X-1611960Y1310270D01*
G01X-1578686Y1359800D02*
G01X-1578686Y1362848D01*
G01X-1575638Y1369198D01*
G01X-1572590Y1372246D01*
G01X-1566494Y1375294D01*
G01X-1554048Y1375294D01*
G01X-1547698Y1372246D01*
G01X-1544650Y1369198D01*
G01X-1541602Y1362848D01*
G01X-1541602Y1356752D01*
G01X-1544650Y1350656D01*
G01X-1551000Y1341258D01*
G01X-1581734Y1310270D01*
G01X-1538554Y1310270D01*
G01X-2085340Y962914D02*
G01X-2085340Y897890D01*
G01X-2085340Y962914D02*
G01X-2057400Y962914D01*
G01X-2048256Y959866D01*
G01X-2045208Y956818D01*
G01X-2041906Y950468D01*
G01X-2041906Y944372D01*
G01X-2045208Y938276D01*
G01X-2048256Y935228D01*
G01X-2057400Y931926D01*
G01X-2085340Y931926D01*
G01X-2063750Y931926D02*
G01X-2041906Y897890D01*
G01X-2011680Y950468D02*
G01X-2005584Y953770D01*
G01X-1996440Y962914D01*
G01X-1996440Y897890D01*
G01X-1929130Y962914D02*
G01X-1960118Y962914D01*
G01X-1963166Y935228D01*
G01X-1960118Y938276D01*
G01X-1950974Y941324D01*
G01X-1941576Y941324D01*
G01X-1932178Y938276D01*
G01X-1926082Y931926D01*
G01X-1923034Y922782D01*
G01X-1923034Y916432D01*
G01X-1926082Y907288D01*
G01X-1932178Y900938D01*
G01X-1941576Y897890D01*
G01X-1950974Y897890D01*
G01X-1960118Y900938D01*
G01X-1963166Y904240D01*
G01X-1966214Y910336D01*
G01X785134Y-427700D02*
G01X720110Y-427700D01*
G01X785134Y-427700D02*
G01X785134Y-455640D01*
G01X782086Y-464784D01*
G01X779038Y-467832D01*
G01X772688Y-471134D01*
G01X766592Y-471134D01*
G01X760496Y-467832D01*
G01X757448Y-464784D01*
G01X754146Y-455640D01*
G01X754146Y-427700D01*
G01X754146Y-449290D02*
G01X720110Y-471134D01*
G01X772688Y-501360D02*
G01X775990Y-507456D01*
G01X785134Y-516600D01*
G01X720110Y-516600D01*
G01X775990Y-583910D02*
G01X782086Y-580862D01*
G01X785134Y-571464D01*
G01X785134Y-565368D01*
G01X782086Y-555970D01*
G01X772688Y-549874D01*
G01X757448Y-546826D01*
G01X741954Y-546826D01*
G01X729508Y-549874D01*
G01X723158Y-555970D01*
G01X720110Y-565368D01*
G01X720110Y-568416D01*
G01X723158Y-577560D01*
G01X729508Y-583910D01*
G01X738652Y-586958D01*
G01X741954Y-586958D01*
G01X751098Y-583910D01*
G01X757448Y-577560D01*
G01X760496Y-568416D01*
G01X760496Y-565368D01*
G01X757448Y-555970D01*
G01X751098Y-549874D01*
G01X741954Y-546826D01*
G01X1069340Y272034D02*
G01X1069340Y207010D01*
G01X1069340Y272034D02*
G01X1097280Y272034D01*
G01X1106424Y268986D01*
G01X1109472Y265938D01*
G01X1112774Y259588D01*
G01X1112774Y253492D01*
G01X1109472Y247396D01*
G01X1106424Y244348D01*
G01X1097280Y241046D01*
G01X1069340Y241046D01*
G01X1090930Y241046D02*
G01X1112774Y207010D01*
G01X1143000Y259588D02*
G01X1149096Y262890D01*
G01X1158240Y272034D01*
G01X1158240Y207010D01*
G01X1231646Y272034D02*
G01X1200658Y207010D01*
G01X1188466Y272034D02*
G01X1231646Y272034D01*
G01X-1165860Y-571246D02*
G01X-1165860Y-636270D01*
G01X-1165860Y-571246D02*
G01X-1137920Y-571246D01*
G01X-1128776Y-574294D01*
G01X-1125728Y-577342D01*
G01X-1122426Y-583692D01*
G01X-1122426Y-589788D01*
G01X-1125728Y-595884D01*
G01X-1128776Y-598932D01*
G01X-1137920Y-602234D01*
G01X-1165860Y-602234D01*
G01X-1144270Y-602234D02*
G01X-1122426Y-636270D01*
G01X-1092200Y-583692D02*
G01X-1086104Y-580390D01*
G01X-1076960Y-571246D01*
G01X-1076960Y-636270D01*
G01X-1031494Y-571246D02*
G01X-1040638Y-574294D01*
G01X-1043686Y-580390D01*
G01X-1043686Y-586740D01*
G01X-1040638Y-592836D01*
G01X-1034542Y-595884D01*
G01X-1022096Y-598932D01*
G01X-1012698Y-602234D01*
G01X-1006602Y-608330D01*
G01X-1003554Y-614426D01*
G01X-1003554Y-623824D01*
G01X-1006602Y-629920D01*
G01X-1009650Y-633222D01*
G01X-1019048Y-636270D01*
G01X-1031494Y-636270D01*
G01X-1040638Y-633222D01*
G01X-1043686Y-629920D01*
G01X-1046734Y-623824D01*
G01X-1046734Y-614426D01*
G01X-1043686Y-608330D01*
G01X-1037590Y-602234D01*
G01X-1028192Y-598932D01*
G01X-1016000Y-595884D01*
G01X-1009650Y-592836D01*
G01X-1006602Y-586740D01*
G01X-1006602Y-580390D01*
G01X-1009650Y-574294D01*
G01X-1019048Y-571246D01*
G01X-1031494Y-571246D01*
G01X1033800Y-269966D02*
G01X1033800Y-334990D01*
G01X1033800Y-269966D02*
G01X1061740Y-269966D01*
G01X1070884Y-273014D01*
G01X1073932Y-276062D01*
G01X1077234Y-282412D01*
G01X1077234Y-288508D01*
G01X1073932Y-294604D01*
G01X1070884Y-297652D01*
G01X1061740Y-300954D01*
G01X1033800Y-300954D01*
G01X1055390Y-300954D02*
G01X1077234Y-334990D01*
G01X1107460Y-282412D02*
G01X1113556Y-279110D01*
G01X1122700Y-269966D01*
G01X1122700Y-334990D01*
G01X1193058Y-291556D02*
G01X1190010Y-300954D01*
G01X1183660Y-307050D01*
G01X1174516Y-310098D01*
G01X1171468Y-310098D01*
G01X1162070Y-307050D01*
G01X1155974Y-300954D01*
G01X1152926Y-291556D01*
G01X1152926Y-288508D01*
G01X1155974Y-279110D01*
G01X1162070Y-273014D01*
G01X1171468Y-269966D01*
G01X1174516Y-269966D01*
G01X1183660Y-273014D01*
G01X1190010Y-279110D01*
G01X1193058Y-291556D01*
G01X1193058Y-307050D01*
G01X1190010Y-322544D01*
G01X1183660Y-331942D01*
G01X1174516Y-334990D01*
G01X1168166Y-334990D01*
G01X1159022Y-331942D01*
G01X1155974Y-325592D01*
G01X-1808226Y1121410D02*
G01X-1814576Y1127506D01*
G01X-1823720Y1130554D01*
G01X-1836166Y1130554D01*
G01X-1845564Y1127506D01*
G01X-1851660Y1121410D01*
G01X-1851660Y1115060D01*
G01X-1848612Y1108964D01*
G01X-1845564Y1105916D01*
G01X-1839214Y1102868D01*
G01X-1820672Y1096518D01*
G01X-1814576Y1093470D01*
G01X-1811528Y1090422D01*
G01X-1808226Y1084072D01*
G01X-1808226Y1074928D01*
G01X-1814576Y1068578D01*
G01X-1823720Y1065530D01*
G01X-1836166Y1065530D01*
G01X-1845564Y1068578D01*
G01X-1851660Y1074928D01*
G01X-1778000Y1130554D02*
G01X-1762760Y1065530D01*
G01X-1747266Y1130554D02*
G01X-1762760Y1065530D01*
G01X-1747266Y1130554D02*
G01X-1731772Y1065530D01*
G01X-1716278Y1130554D02*
G01X-1731772Y1065530D01*
G01X-1686052Y1118108D02*
G01X-1679956Y1121410D01*
G01X-1670812Y1130554D01*
G01X-1670812Y1065530D01*
G01X-340315Y-330616D02*
G01X-340315Y-377098D01*
G01X-337267Y-386242D01*
G01X-330917Y-392592D01*
G01X-321773Y-395640D01*
G01X-315423Y-395640D01*
G01X-306279Y-392592D01*
G01X-300183Y-386242D01*
G01X-296881Y-377098D01*
G01X-296881Y-330616D01*
G01X-266655Y-343062D02*
G01X-260559Y-339760D01*
G01X-251415Y-330616D01*
G01X-251415Y-395640D01*
G01X-57060Y1908954D02*
G01X-57060Y1862472D01*
G01X-54012Y1853328D01*
G01X-47662Y1846978D01*
G01X-38518Y1843930D01*
G01X-32168Y1843930D01*
G01X-23024Y1846978D01*
G01X-16928Y1853328D01*
G01X-13626Y1862472D01*
G01X-13626Y1908954D01*
G01X19648Y1893460D02*
G01X19648Y1896508D01*
G01X22696Y1902858D01*
G01X25744Y1905906D01*
G01X31840Y1908954D01*
G01X44286Y1908954D01*
G01X50636Y1905906D01*
G01X53684Y1902858D01*
G01X56732Y1896508D01*
G01X56732Y1890412D01*
G01X53684Y1884316D01*
G01X47334Y1874918D01*
G01X16600Y1843930D01*
G01X59780Y1843930D01*
G01X1684040Y-539206D02*
G01X1684040Y-585688D01*
G01X1687088Y-594832D01*
G01X1693438Y-601182D01*
G01X1702582Y-604230D01*
G01X1708932Y-604230D01*
G01X1718076Y-601182D01*
G01X1724172Y-594832D01*
G01X1727474Y-585688D01*
G01X1727474Y-539206D01*
G01X1763796Y-539206D02*
G01X1797832Y-539206D01*
G01X1779290Y-563844D01*
G01X1788434Y-563844D01*
G01X1794784Y-566892D01*
G01X1797832Y-570194D01*
G01X1800880Y-579338D01*
G01X1800880Y-585688D01*
G01X1797832Y-594832D01*
G01X1791736Y-601182D01*
G01X1782338Y-604230D01*
G01X1772940Y-604230D01*
G01X1763796Y-601182D01*
G01X1760748Y-597880D01*
G01X1757700Y-591784D01*
G01X-164411Y-2467735D02*
G01X-164411Y-2514217D01*
G01X-161363Y-2523361D01*
G01X-155013Y-2529711D01*
G01X-145869Y-2532759D01*
G01X-139519Y-2532759D01*
G01X-130375Y-2529711D01*
G01X-124279Y-2523361D01*
G01X-120977Y-2514217D01*
G01X-120977Y-2467735D01*
G01X-47571Y-2476879D02*
G01X-53667Y-2470783D01*
G01X-63065Y-2467735D01*
G01X-75511Y-2467735D01*
G01X-84655Y-2470783D01*
G01X-90751Y-2476879D01*
G01X-90751Y-2483229D01*
G01X-87703Y-2489325D01*
G01X-84655Y-2492373D01*
G01X-78559Y-2495421D01*
G01X-60017Y-2501771D01*
G01X-53667Y-2504819D01*
G01X-50619Y-2507867D01*
G01X-47571Y-2514217D01*
G01X-47571Y-2523361D01*
G01X-53667Y-2529711D01*
G01X-63065Y-2532759D01*
G01X-75511Y-2532759D01*
G01X-84655Y-2529711D01*
G01X-90751Y-2523361D01*
G01X-17345Y-2467735D02*
G01X-17345Y-2532759D01*
G01X-17345Y-2467735D02*
G01X10341Y-2467735D01*
G01X19739Y-2470783D01*
G01X22787Y-2473831D01*
G01X25835Y-2480181D01*
G01X25835Y-2486277D01*
G01X22787Y-2492373D01*
G01X19739Y-2495421D01*
G01X10341Y-2498723D01*
G01X-17345Y-2498723D02*
G01X10341Y-2498723D01*
G01X19739Y-2501771D01*
G01X22787Y-2504819D01*
G01X25835Y-2510915D01*
G01X25835Y-2520313D01*
G01X22787Y-2526409D01*
G01X19739Y-2529711D01*
G01X10341Y-2532759D01*
G01X-17345Y-2532759D01*
G01X102289Y-2483229D02*
G01X99241Y-2476879D01*
G01X93145Y-2470783D01*
G01X86795Y-2467735D01*
G01X74603Y-2467735D01*
G01X68253Y-2470783D01*
G01X62157Y-2476879D01*
G01X59109Y-2483229D01*
G01X56061Y-2492373D01*
G01X56061Y-2507867D01*
G01X59109Y-2517265D01*
G01X62157Y-2523361D01*
G01X68253Y-2529711D01*
G01X74603Y-2532759D01*
G01X86795Y-2532759D01*
G01X93145Y-2529711D01*
G01X99241Y-2523361D01*
G01X102289Y-2517265D01*
G01X132515Y-2480181D02*
G01X138611Y-2476879D01*
G01X147755Y-2467735D01*
G01X147755Y-2532759D01*
G01X1351966Y1268360D02*
G01X1416990Y1268360D01*
G01X1351966Y1311794D02*
G01X1416990Y1311794D01*
G01X1382954Y1268360D02*
G01X1382954Y1311794D01*
G01X1367460Y1345068D02*
G01X1364412Y1345068D01*
G01X1358062Y1348116D01*
G01X1355014Y1351164D01*
G01X1351966Y1357260D01*
G01X1351966Y1369706D01*
G01X1355014Y1376056D01*
G01X1358062Y1379104D01*
G01X1364412Y1382152D01*
G01X1370508Y1382152D01*
G01X1376604Y1379104D01*
G01X1386002Y1372754D01*
G01X1416990Y1342020D01*
G01X1416990Y1385200D01*
G54D11*
G01X1170808Y-1295364D02*
G01X1172840Y-1299428D01*
G01X1176904Y-1303238D01*
G01X1180714Y-1305270D01*
G01X1186810Y-1307302D01*
G01X1196716Y-1307302D01*
G01X1202558Y-1305270D01*
G01X1206622Y-1303238D01*
G01X1210686Y-1299428D01*
G01X1212464Y-1295364D01*
G01X1212464Y-1287490D01*
G01X1210686Y-1283426D01*
G01X1206622Y-1279616D01*
G01X1202558Y-1277584D01*
G01X1196716Y-1275552D01*
G01X1186810Y-1275552D01*
G01X1180714Y-1277584D01*
G01X1176904Y-1279616D01*
G01X1172840Y-1283426D01*
G01X1170808Y-1287490D01*
G01X1170808Y-1295364D01*
G01X1170808Y-1253200D02*
G01X1212464Y-1253200D01*
G01X1170808Y-1253200D02*
G01X1212464Y-1225514D01*
G01X1170808Y-1225514D02*
G01X1212464Y-1225514D01*
G54D10*
G01X1416070Y-1101054D02*
G01X1422166Y-1094704D01*
G01X1425214Y-1085560D01*
G01X1425214Y-1073114D01*
G01X1422166Y-1063716D01*
G01X1416070Y-1057620D01*
G01X1409720Y-1057620D01*
G01X1403624Y-1060668D01*
G01X1400576Y-1063716D01*
G01X1397528Y-1070066D01*
G01X1391178Y-1088608D01*
G01X1388130Y-1094704D01*
G01X1385082Y-1097752D01*
G01X1378732Y-1101054D01*
G01X1369588Y-1101054D01*
G01X1363238Y-1094704D01*
G01X1360190Y-1085560D01*
G01X1360190Y-1073114D01*
G01X1363238Y-1063716D01*
G01X1369588Y-1057620D01*
G01X1425214Y-1131280D02*
G01X1360190Y-1146520D01*
G01X1425214Y-1162014D02*
G01X1360190Y-1146520D01*
G01X1425214Y-1162014D02*
G01X1360190Y-1177508D01*
G01X1425214Y-1193002D02*
G01X1360190Y-1177508D01*
G01X1409720Y-1226276D02*
G01X1412768Y-1226276D01*
G01X1419118Y-1229324D01*
G01X1422166Y-1232372D01*
G01X1425214Y-1238468D01*
G01X1425214Y-1250914D01*
G01X1422166Y-1257264D01*
G01X1419118Y-1260312D01*
G01X1412768Y-1263360D01*
G01X1406672Y-1263360D01*
G01X1400576Y-1260312D01*
G01X1391178Y-1253962D01*
G01X1360190Y-1223228D01*
G01X1360190Y-1266408D01*
G04 Text End*

G04 PolygonModel Start*
G54D12*
G01X-1805940Y309893D02*
G01X-1805940Y233693D01*
G01X-1755140Y271793D02*
G01X-1844040Y271793D01*
G01X210741Y-1381597D02*
G01X130744Y-1381597D01*
G01X266786Y-1381643D02*
G01X346784Y-1381643D01*
G01X210741Y-1239629D02*
G01X130744Y-1239629D01*
G01X266786Y-1239677D02*
G01X346784Y-1239677D01*
G01X99769Y-1350615D02*
G01X99769Y-1270610D01*
G01X377762Y-1270663D02*
G01X377762Y-1350665D01*
G01X346779Y-1239677D02*
G02X377762Y-1270663I0J-30983D01*
G01X377762Y-1350660D02*
G02X346779Y-1381643I-30983J0D01*
G01X130749Y-1381597D02*
G02X99769Y-1350615I3J30983D01*
G01X99769Y-1270617D02*
G02X130749Y-1239629I30983J5D01*
G01X289743Y-767981D02*
G01X289743Y-687984D01*
G01X289697Y-824026D02*
G01X289697Y-904024D01*
G01X431711Y-767981D02*
G01X431711Y-687984D01*
G01X431663Y-824026D02*
G01X431663Y-904024D01*
G01X320726Y-657009D02*
G01X400730Y-657009D01*
G01X400677Y-935001D02*
G01X320675Y-935001D01*
G01X431663Y-904019D02*
G02X400677Y-935001I-30983J0D01*
G01X320680Y-935001D02*
G02X289697Y-904019I0J30983D01*
G01X289743Y-687989D02*
G02X320726Y-657009I30983J-3D01*
G01X400723Y-657009D02*
G02X431711Y-687989I5J-30983D01*
G01X-2311237Y739219D02*
G01X-2311237Y819216D01*
G01X-2311283Y683174D02*
G01X-2311283Y603176D01*
G01X-2169269Y739219D02*
G01X-2169269Y819216D01*
G01X-2169317Y683174D02*
G01X-2169317Y603176D01*
G01X-2280255Y850191D02*
G01X-2200250Y850191D01*
G01X-2200303Y572199D02*
G01X-2280305Y572199D01*
G01X-2169317Y603181D02*
G02X-2200303Y572199I-30983J0D01*
G01X-2280300Y572199D02*
G02X-2311283Y603181I0J30983D01*
G01X-2311237Y819211D02*
G02X-2280255Y850191I30983J-3D01*
G01X-2200257Y850191D02*
G02X-2169269Y819211I5J-30983D01*
G01X-1406299Y1103422D02*
G01X-1486296Y1103422D01*
G01X-1350254Y1103377D02*
G01X-1270256Y1103377D01*
G01X-1406299Y1245391D02*
G01X-1486296Y1245391D01*
G01X-1350254Y1245342D02*
G01X-1270256Y1245342D01*
G01X-1517271Y1134405D02*
G01X-1517271Y1214410D01*
G01X-1239278Y1214357D02*
G01X-1239278Y1134355D01*
G01X-1270261Y1245342D02*
G02X-1239278Y1214357I0J-30983D01*
G01X-1239278Y1134360D02*
G02X-1270261Y1103377I-30983J0D01*
G01X-1486291Y1103422D02*
G02X-1517271Y1134405I3J30983D01*
G01X-1517271Y1214403D02*
G02X-1486291Y1245391I30983J5D01*
G01X1143099Y-516762D02*
G01X1223096Y-516762D01*
G01X1087054Y-516717D02*
G01X1007056Y-516717D01*
G01X1143099Y-658731D02*
G01X1223096Y-658731D01*
G01X1087054Y-658682D02*
G01X1007056Y-658682D01*
G01X1254071Y-547745D02*
G01X1254071Y-627750D01*
G01X976079Y-627697D02*
G01X976079Y-547695D01*
G01X1007061Y-658682D02*
G02X976079Y-627697I0J30983D01*
G01X976079Y-547700D02*
G02X1007061Y-516717I30983J0D01*
G01X1223091Y-516762D02*
G02X1254071Y-547745I-3J-30983D01*
G01X1254071Y-627743D02*
G02X1223091Y-658731I-30983J-5D01*
G01X1285423Y-676541D02*
G01X1285423Y-596544D01*
G01X1285377Y-732586D02*
G01X1285377Y-812584D01*
G01X1427391Y-676541D02*
G01X1427391Y-596544D01*
G01X1427343Y-732586D02*
G01X1427343Y-812584D01*
G01X1316406Y-565569D02*
G01X1396410Y-565569D01*
G01X1396357Y-843561D02*
G01X1316355Y-843561D01*
G01X1427343Y-812579D02*
G02X1396357Y-843561I-30983J0D01*
G01X1316360Y-843561D02*
G02X1285377Y-812579I0J30983D01*
G01X1285423Y-596549D02*
G02X1316406Y-565569I30983J-3D01*
G01X1396403Y-565569D02*
G02X1427391Y-596549I5J-30983D01*
G01X2118218Y-778299D02*
G01X2118218Y-858296D01*
G01X2118263Y-722254D02*
G01X2118263Y-642256D01*
G01X1976249Y-778299D02*
G01X1976249Y-858296D01*
G01X1976298Y-722254D02*
G01X1976298Y-642256D01*
G01X2087235Y-889271D02*
G01X2007230Y-889271D01*
G01X2007283Y-611278D02*
G01X2087285Y-611278D01*
G01X1976298Y-642261D02*
G02X2007283Y-611278I30983J0D01*
G01X2087280Y-611278D02*
G02X2118263Y-642261I0J-30983D01*
G01X2118218Y-858291D02*
G02X2087235Y-889271I-30983J3D01*
G01X2007237Y-889271D02*
G02X1976249Y-858291I-5J30983D01*
G01X-1525437Y1588479D02*
G01X-1525437Y1668476D01*
G01X-1525483Y1532434D02*
G01X-1525483Y1452436D01*
G01X-1383469Y1588479D02*
G01X-1383469Y1668476D01*
G01X-1383517Y1532434D02*
G01X-1383517Y1452436D01*
G01X-1494454Y1699451D02*
G01X-1414450Y1699451D01*
G01X-1414503Y1421458D02*
G01X-1494505Y1421458D01*
G01X-1383517Y1452441D02*
G02X-1414503Y1421458I-30983J0D01*
G01X-1494500Y1421458D02*
G02X-1525483Y1452441I0J30983D01*
G01X-1525437Y1668471D02*
G02X-1494454Y1699451I30983J-3D01*
G01X-1414457Y1699451D02*
G02X-1383469Y1668471I5J-30983D01*
G01X-1342557Y1588479D02*
G01X-1342557Y1668476D01*
G01X-1342603Y1532434D02*
G01X-1342603Y1452436D01*
G01X-1200589Y1588479D02*
G01X-1200589Y1668476D01*
G01X-1200637Y1532434D02*
G01X-1200637Y1452436D01*
G01X-1311574Y1699451D02*
G01X-1231570Y1699451D01*
G01X-1231623Y1421458D02*
G01X-1311625Y1421458D01*
G01X-1200637Y1452441D02*
G02X-1231623Y1421458I-30983J0D01*
G01X-1311620Y1421458D02*
G02X-1342603Y1452441I0J30983D01*
G01X-1342557Y1668471D02*
G02X-1311574Y1699451I30983J-3D01*
G01X-1231577Y1699451D02*
G02X-1200589Y1668471I5J-30983D01*
G01X-1159677Y1588479D02*
G01X-1159677Y1668476D01*
G01X-1159723Y1532434D02*
G01X-1159723Y1452436D01*
G01X-1017709Y1588479D02*
G01X-1017709Y1668476D01*
G01X-1017757Y1532434D02*
G01X-1017757Y1452436D01*
G01X-1128694Y1699451D02*
G01X-1048690Y1699451D01*
G01X-1048743Y1421458D02*
G01X-1128745Y1421458D01*
G01X-1017757Y1452441D02*
G02X-1048743Y1421458I-30983J0D01*
G01X-1128740Y1421458D02*
G02X-1159723Y1452441I0J30983D01*
G01X-1159677Y1668471D02*
G02X-1128694Y1699451I30983J-3D01*
G01X-1048697Y1699451D02*
G02X-1017709Y1668471I5J-30983D01*
G54D10*
G01X919960Y-1630311D02*
G01X644715Y-1630311D01*
G01X644715Y-1630311D02*
G01X644715Y-1606008D01*
G01X919960Y-1445069D02*
G01X644715Y-1445069D01*
G01X644715Y-1445069D02*
G01X644715Y-1469372D01*
G01X879023Y-1630311D02*
G01X879020Y-1445069D01*
G36*
G01X912340Y-1637931D02*
G01X912340Y-1600928D01*
G01X942820Y-1600931D01*
G01X942820Y-1637931D01*
G01X912340Y-1637931D01*
G37*
G36*
G01X912340Y-1437449D02*
G01X942820Y-1437449D01*
G01X942820Y-1474449D01*
G01X912340Y-1474449D01*
G01X912340Y-1437449D01*
G37*
G36*
G01X820440Y-1537680D02*
G01X769640Y-1588480D01*
G01X769640Y-1486880D01*
G01X820440Y-1537680D01*
G37*
G54D13*
G01X1565200Y-417200D02*
G01X1311200Y-417200D01*
G01X1311200Y-417200D02*
G01X1311200Y90800D01*
G01X1311200Y90800D02*
G01X1565200Y90800D01*
G01X1565200Y90800D02*
G01X1565200Y-99700D01*
G54D14*
G01X1565200Y-417200D02*
G01X1565200Y-99700D01*
G54D15*
G01X-1292192Y-824682D02*
G01X-1292192Y-823686D01*
G01X-1292192Y-823686D02*
G01X-1259187Y-790682D01*
G01X-1224189Y-824682D02*
G01X-1225187Y-824682D01*
G01X-1225187Y-824682D02*
G01X-1259187Y-790682D01*
G01X-1224189Y-824682D02*
G01X-1292192Y-824682D01*
G01X-1184181Y-826686D02*
G01X-1184181Y-941687D01*
G01X-1334193Y-826686D02*
G01X-1334193Y-941687D01*
G01X-1184191Y-941687D02*
G01X-1332184Y-941687D01*
G01X-1334425Y-788685D02*
G01X-1334425Y-683674D01*
G01X-1294417Y-653679D02*
G01X-1304420Y-653679D01*
G01X-1304420Y-653679D02*
G01X-1334425Y-683674D01*
G01X-1224422Y-653679D02*
G01X-1294417Y-653679D01*
G01X-1224422Y-653679D02*
G01X-1214407Y-653679D01*
G01X-1214407Y-653679D02*
G01X-1184412Y-683674D01*
G01X-1184412Y-788685D02*
G01X-1184412Y-683674D01*
G01X-1259187Y-824682D02*
G01X-1259187Y-790682D01*
G01X-666006Y-825134D02*
G01X-666006Y-940135D01*
G01X-816018Y-825134D02*
G01X-816018Y-940135D01*
G01X-666019Y-940135D02*
G01X-814009Y-940135D01*
G01X-816255Y-787133D02*
G01X-816255Y-682116D01*
G01X-776245Y-652122D02*
G01X-786247Y-652122D01*
G01X-786247Y-652122D02*
G01X-816255Y-682116D01*
G01X-706245Y-652122D02*
G01X-776245Y-652122D01*
G01X-706245Y-652122D02*
G01X-696237Y-652122D01*
G01X-696237Y-652122D02*
G01X-666242Y-682116D01*
G01X-666242Y-787133D02*
G01X-666242Y-682116D01*
G01X-779214Y-808835D02*
G01X-703014Y-808835D01*
G01X-740476Y-808835D02*
G01X-740476Y-783435D01*
G01X-956894Y-823120D02*
G01X-956894Y-822129D01*
G01X-956894Y-822129D02*
G01X-923892Y-789119D01*
G01X-888891Y-823120D02*
G01X-889892Y-823120D01*
G01X-889892Y-823120D02*
G01X-923892Y-789119D01*
G01X-888891Y-823120D02*
G01X-956894Y-823120D01*
G01X-848889Y-825124D02*
G01X-848889Y-940130D01*
G01X-998901Y-825124D02*
G01X-998901Y-940130D01*
G01X-848894Y-940130D02*
G01X-996892Y-940130D01*
G01X-999130Y-787123D02*
G01X-999130Y-682111D01*
G01X-959119Y-652117D02*
G01X-969122Y-652117D01*
G01X-969122Y-652117D02*
G01X-999130Y-682111D01*
G01X-889127Y-652117D02*
G01X-959119Y-652117D01*
G01X-889127Y-652117D02*
G01X-879112Y-652117D01*
G01X-879112Y-652117D02*
G01X-849117Y-682111D01*
G01X-849117Y-787123D02*
G01X-849117Y-682111D01*
G01X-923892Y-823120D02*
G01X-923892Y-789119D01*
G54D10*
G01X869919Y-1295087D02*
G01X869919Y-1119847D01*
G01X869919Y-1119847D02*
G01X765759Y-1119847D01*
G01X562681Y-1295087D02*
G01X562681Y-1119847D01*
G01X562681Y-1119847D02*
G01X666841Y-1119847D01*
G01X761840Y-1295087D02*
G01X670760Y-1295087D01*
G01X-114839Y-1347200D02*
G01X-18951Y-1347200D01*
G01X-18951Y-1347200D02*
G01X-18951Y-1215080D01*
G01X-18951Y-1215080D02*
G01X-114839Y-1215080D01*
G01X-200081Y-1347200D02*
G01X-295969Y-1347200D01*
G01X-295969Y-1347200D02*
G01X-295969Y-1215080D01*
G01X-295969Y-1215080D02*
G01X-200081Y-1215080D01*
G01X94582Y-1619630D02*
G01X230573Y-1619630D01*
G01X230573Y-1619630D02*
G01X230573Y-1403812D01*
G01X230573Y-1403812D02*
G01X94582Y-1403812D01*
G01X-95659Y-1619630D02*
G01X-231651Y-1619630D01*
G01X-231651Y-1619630D02*
G01X-231651Y-1403812D01*
G01X-231651Y-1403812D02*
G01X-95659Y-1403812D01*
G01X-482600Y-843701D02*
G01X-482600Y-939589D01*
G01X-482600Y-939589D02*
G01X-350480Y-939589D01*
G01X-350480Y-939589D02*
G01X-350480Y-843701D01*
G01X-482600Y-758459D02*
G01X-482600Y-662571D01*
G01X-482600Y-662571D02*
G01X-350480Y-662571D01*
G01X-350480Y-662571D02*
G01X-350480Y-758459D01*
G01X-640080Y-843701D02*
G01X-640080Y-939589D01*
G01X-640080Y-939589D02*
G01X-507960Y-939589D01*
G01X-507960Y-939589D02*
G01X-507960Y-843701D01*
G01X-640080Y-758459D02*
G01X-640080Y-662571D01*
G01X-640080Y-662571D02*
G01X-507960Y-662571D01*
G01X-507960Y-662571D02*
G01X-507960Y-758459D01*
G01X-1742460Y-642061D02*
G01X-1742460Y-737949D01*
G01X-1742460Y-737949D02*
G01X-1610340Y-737949D01*
G01X-1610340Y-737949D02*
G01X-1610340Y-642061D01*
G01X-1742460Y-556819D02*
G01X-1742460Y-460931D01*
G01X-1742460Y-460931D02*
G01X-1610340Y-460931D01*
G01X-1610340Y-460931D02*
G01X-1610340Y-556819D01*
G01X523280Y-1571259D02*
G01X523280Y-1475371D01*
G01X523280Y-1475371D02*
G01X391160Y-1475371D01*
G01X391160Y-1475371D02*
G01X391160Y-1571259D01*
G01X523280Y-1656501D02*
G01X523280Y-1752389D01*
G01X523280Y-1752389D02*
G01X391160Y-1752389D01*
G01X391160Y-1752389D02*
G01X391160Y-1656501D01*
G01X-1354379Y259060D02*
G01X-1258491Y259060D01*
G01X-1258491Y259060D02*
G01X-1258491Y391180D01*
G01X-1258491Y391180D02*
G01X-1354379Y391180D01*
G01X-1439621Y259060D02*
G01X-1535509Y259060D01*
G01X-1535509Y259060D02*
G01X-1535509Y391180D01*
G01X-1535509Y391180D02*
G01X-1439621Y391180D01*
G01X-1354379Y416540D02*
G01X-1258491Y416540D01*
G01X-1258491Y416540D02*
G01X-1258491Y548660D01*
G01X-1258491Y548660D02*
G01X-1354379Y548660D01*
G01X-1439621Y416540D02*
G01X-1535509Y416540D01*
G01X-1535509Y416540D02*
G01X-1535509Y548660D01*
G01X-1535509Y548660D02*
G01X-1439621Y548660D01*
G01X-1354379Y574020D02*
G01X-1258491Y574020D01*
G01X-1258491Y574020D02*
G01X-1258491Y706140D01*
G01X-1258491Y706140D02*
G01X-1354379Y706140D01*
G01X-1439621Y574020D02*
G01X-1535509Y574020D01*
G01X-1535509Y574020D02*
G01X-1535509Y706140D01*
G01X-1535509Y706140D02*
G01X-1439621Y706140D01*
G01X-1420901Y1403000D02*
G01X-1516789Y1403000D01*
G01X-1516789Y1403000D02*
G01X-1516789Y1270880D01*
G01X-1516789Y1270880D02*
G01X-1420901Y1270880D01*
G01X-1335659Y1403000D02*
G01X-1239771Y1403000D01*
G01X-1239771Y1403000D02*
G01X-1239771Y1270880D01*
G01X-1239771Y1270880D02*
G01X-1335659Y1270880D01*
G54D12*
G01X-2136684Y601424D02*
G01X-2136681Y851431D01*
G01X-1886676Y851431D02*
G01X-1886679Y601424D01*
G01X-1886679Y601424D02*
G01X-1938873Y601424D01*
G01X-2084487Y601424D02*
G01X-2136684Y601424D01*
G01X-2136681Y851431D02*
G01X-2084499Y851431D01*
G01X-1938861Y851431D02*
G01X-1886676Y851431D01*
G54D10*
G01X939840Y-463819D02*
G01X939840Y-367931D01*
G01X939840Y-367931D02*
G01X807720Y-367931D01*
G01X807720Y-367931D02*
G01X807720Y-463819D01*
G01X939840Y-549061D02*
G01X939840Y-644949D01*
G01X939840Y-644949D02*
G01X807720Y-644949D01*
G01X807720Y-644949D02*
G01X807720Y-549061D01*
G01X1208460Y83421D02*
G01X1208460Y179309D01*
G01X1208460Y179309D02*
G01X1076340Y179309D01*
G01X1076340Y179309D02*
G01X1076340Y83421D01*
G01X1208460Y-1821D02*
G01X1208460Y-97709D01*
G01X1208460Y-97709D02*
G01X1076340Y-97709D01*
G01X1076340Y-97709D02*
G01X1076340Y-1821D01*
G01X-1158260Y-845261D02*
G01X-1158260Y-941149D01*
G01X-1158260Y-941149D02*
G01X-1026140Y-941149D01*
G01X-1026140Y-941149D02*
G01X-1026140Y-845261D01*
G01X-1158260Y-760019D02*
G01X-1158260Y-664131D01*
G01X-1158260Y-664131D02*
G01X-1026140Y-664131D01*
G01X-1026140Y-664131D02*
G01X-1026140Y-760019D01*
G01X1155161Y-491220D02*
G01X1251049Y-491220D01*
G01X1251049Y-491220D02*
G01X1251049Y-359100D01*
G01X1251049Y-359100D02*
G01X1155161Y-359100D01*
G01X1069919Y-491220D02*
G01X974031Y-491220D01*
G01X974031Y-491220D02*
G01X974031Y-359100D01*
G01X974031Y-359100D02*
G01X1069919Y-359100D01*
G54D16*
G01X-1728221Y1049100D02*
G01X-1728221Y1005993D01*
G01X-1728221Y740860D02*
G01X-1728221Y783967D01*
G01X-1322979Y783967D02*
G01X-1322979Y740860D01*
G01X-1322979Y1049100D02*
G01X-1322979Y1005993D01*
G54D10*
G01X-1322979Y1049100D02*
G01X-1728221Y1049100D01*
G01X-1322979Y740860D02*
G01X-1728221Y740860D01*
G54D12*
G01X-270211Y-583377D02*
G01X239796Y-583377D01*
G01X239771Y-583377D02*
G01X239771Y-993383D01*
G01X239771Y-993383D02*
G01X-270236Y-993383D01*
G01X-270211Y-708370D02*
G01X-270211Y-583377D01*
G01X-270211Y-868390D02*
G01X-270211Y-993383D01*
G01X-265207Y-708370D02*
G02X-265207Y-868390I-37529J-80010D01*
G01X724637Y1756895D02*
G01X724637Y2245355D01*
G01X724637Y2245355D02*
G01X501117Y2245355D01*
G01X521437Y1756895D02*
G01X521437Y2245355D01*
G01X521437Y2245355D02*
G01X236220Y2245355D01*
G01X236220Y2245355D02*
G01X236220Y2029455D01*
G01X236220Y2029455D02*
G01X-17780Y2029455D01*
G01X-17780Y2029455D02*
G01X-17780Y2245355D01*
G01X-17780Y2245355D02*
G01X-271780Y2245355D01*
G01X-271780Y2245355D02*
G01X-271780Y2029455D01*
G01X-271780Y2029455D02*
G01X-500380Y2029455D01*
G01X-500380Y2029455D02*
G01X-500380Y2245355D01*
G01X-500380Y2245355D02*
G01X-728980Y2245355D01*
G01X-728980Y2245355D02*
G01X-728980Y1877055D01*
G01X-905081Y1756895D02*
G01X896620Y1756895D01*
G01X896620Y1678970D02*
G01X896620Y2359655D01*
G01X761535Y-193045D02*
G01X896620Y-193045D01*
G01X896620Y-193045D02*
G01X896620Y-108260D01*
G01X-905081Y-108260D02*
G01X-905081Y-193045D01*
G01X-905081Y-193045D02*
G01X-771695Y-193045D01*
G01X-905081Y2360856D02*
G01X-905081Y1678970D01*
G01X894921Y2360856D02*
G01X-905081Y2360856D01*
G36*
G01X-757936Y1631358D02*
G02X-652221Y1631358I52857J0D01*
G02X-757936Y1631358I-52857J0D01*
G37*
G54D10*
G01X1657340Y-623059D02*
G01X1827581Y-623059D01*
G01X1657340Y-928301D02*
G01X1827581Y-928301D01*
G01X1827581Y-823320D02*
G01X1827581Y-728040D01*
G54D12*
G01X-441798Y-2279771D02*
G01X-441798Y-2093480D01*
G01X452201Y-2651610D02*
G01X-441798Y-2651610D01*
G01X-441798Y-2651610D02*
G01X-441798Y-2503479D01*
G01X452201Y-2279807D02*
G01X452201Y-2093445D01*
G01X452201Y-2651610D02*
G01X452201Y-2503444D01*
G01X1077362Y1179460D02*
G01X1327361Y1179460D01*
G01X1077362Y1687358D02*
G01X1327361Y1687358D01*
G01X1077362Y925460D02*
G01X1077362Y1687358D01*
G01X1327361Y925460D02*
G01X1077362Y925460D01*
G01X1327361Y1687460D02*
G01X1327361Y925460D01*
G01X1330439Y-1426679D02*
G01X1330439Y-885781D01*
G01X1330439Y-885781D02*
G01X1043541Y-885781D01*
G01X1043541Y-885781D02*
G01X1043541Y-890480D01*
G01X1043541Y-890480D02*
G01X1044440Y-890480D01*
G01X1044440Y-890480D02*
G01X1044440Y-1427579D01*
G01X1044440Y-1427579D02*
G01X1329441Y-1427579D01*
G01X1112588Y-1381726D02*
G01X1112588Y-931633D01*
G01X1112588Y-931633D02*
G01X1264988Y-931633D01*
G01X1264988Y-931633D02*
G01X1264988Y-1381726D01*
G01X1264988Y-1381726D02*
G01X1112588Y-1381726D01*
G01X1264889Y-966167D02*
G01X1112489Y-966167D01*
G01X1264889Y-1042367D02*
G01X1163289Y-966167D01*
G01X1112489Y-991567D02*
G01X1264889Y-1093167D01*
G01X1264889Y-1093167D02*
G01X1112489Y-1093167D01*
G01X1188689Y-1093167D02*
G01X1112489Y-1042367D01*

G04 Circle Start*
G01X-2431034Y5118D02*
G03X-1511046Y5118I459994J0D01*
G03X-2431034Y5118I-459994J0D01*
G01X-2046046Y5118D02*
G03X-1896034Y5118I75006J0D01*
G03X-2046046Y5118I-75006J0D01*
G01X-1615592Y894980D02*
G03X-1435608Y894980I89992J0D01*
G03X-1615592Y894980I-89992J0D01*
G01X-335235Y-1038392D02*
G03X-301199Y-1038392I17018J0D01*
G03X-335235Y-1038392I-17018J0D01*
G54D18*
G01X1613149Y-610580D02*
G03X1643171Y-610580I15011J0D01*
G03X1613149Y-610580I-15011J0D01*
G04 Circle End*

M02*

