G04 Layer: BottomLayer*
G04 EasyEDA Pro v3.2.121, 2026-05-25 16:47:59*
G04 Gerber Generator version 0.3*
G04 Scale: 100 percent, Rotated: No, Reflected: No*
G04 Dimensions in millimeters*
G04 Leading zeros omitted, absolute positions, 4 integers and 5 decimals*
G04 Generated by one-click*
%FSLAX45Y45*%
%MOMM*%
%ADD10C,0.2032*%
%ADD11C,0.254*%
%ADD12C,1.8*%
%ADD13R,0.9X0.8*%
%ADD14R,1.8X1.8*%
%ADD15R,2.0X2.0*%
%ADD16C,2.0*%
%ADD17R,0.7X1.25001*%
%ADD18R,0.80648X0.86401*%
%ADD19C,1.0004*%
%ADD20C,1.0*%
%ADD21O,1.2X1.8*%
%ADD22O,1.2X2.0*%
%ADD23R,1.7X1.7*%
%ADD24C,1.7*%
%ADD25C,0.508*%
%ADD26C,0.889*%
%ADD27C,1.143*%
G75*


G04 Copper Start*
G36*
G01X930735Y1756895D02*
G01X930735Y2335565D01*
G01X1023100Y2296606D01*
G01X1113839Y2253995D01*
G01X1202808Y2207801D01*
G01X1289864Y2158097D01*
G01X1374869Y2104962D01*
G01X1457689Y2048481D01*
G01X1538191Y1988743D01*
G01X1616248Y1925843D01*
G01X1691736Y1859882D01*
G01X1764534Y1790964D01*
G01X1834527Y1719199D01*
G01X1901603Y1644700D01*
G01X1965656Y1567587D01*
G01X2026584Y1487981D01*
G01X2084290Y1406010D01*
G01X2138683Y1321804D01*
G01X2189676Y1235497D01*
G01X2237187Y1147225D01*
G01X2281142Y1057129D01*
G01X2321470Y965353D01*
G01X2358108Y872042D01*
G01X2390997Y777345D01*
G01X2420085Y681412D01*
G01X2445325Y584395D01*
G01X2466677Y486450D01*
G01X2484109Y387731D01*
G01X2497591Y288396D01*
G01X2507102Y188602D01*
G01X2512628Y88509D01*
G01X2514159Y-11725D01*
G01X2511693Y-111941D01*
G01X2505234Y-211979D01*
G01X2505234Y-211979D01*
G01X2494792Y-311679D01*
G01X2480384Y-410885D01*
G01X2462033Y-509436D01*
G01X2439768Y-607178D01*
G01X2413623Y-703955D01*
G01X2383642Y-799613D01*
G01X2349872Y-893999D01*
G01X2312365Y-986964D01*
G01X2271183Y-1078360D01*
G01X2226389Y-1168042D01*
G01X2178056Y-1255867D01*
G01X2126261Y-1341695D01*
G01X2071085Y-1425390D01*
G01X2012617Y-1506819D01*
G01X1950949Y-1585853D01*
G01X1886179Y-1662365D01*
G01X1818411Y-1736235D01*
G01X1747752Y-1807345D01*
G01X1674314Y-1875581D01*
G01X1598215Y-1940835D01*
G01X1519575Y-2003004D01*
G01X1438519Y-2061988D01*
G01X1355176Y-2117695D01*
G01X1269678Y-2170034D01*
G01X1182162Y-2218924D01*
G01X1092767Y-2264286D01*
G01X1001634Y-2306049D01*
G01X908909Y-2344145D01*
G01X814740Y-2378514D01*
G01X719274Y-2409103D01*
G01X622666Y-2435861D01*
G01X525067Y-2458747D01*
G01X525067Y-2458747D01*
G01X529680Y-2446136D01*
G01X532484Y-2433004D01*
G01X533425Y-2419609D01*
G01X533425Y-2359609D01*
G01X531584Y-2340916D01*
G01X526132Y-2322942D01*
G01X517278Y-2306377D01*
G01X505362Y-2291858D01*
G01X490843Y-2279942D01*
G01X474278Y-2271088D01*
G01X456304Y-2265636D01*
G01X437611Y-2263795D01*
G01X418919Y-2265636D01*
G01X400945Y-2271088D01*
G01X384380Y-2279942D01*
G01X369861Y-2291858D01*
G01X357945Y-2306377D01*
G01X349091Y-2322942D01*
G01X343638Y-2340916D01*
G01X341797Y-2359609D01*
G01X341797Y-2419609D01*
G01X343607Y-2438142D01*
G01X348967Y-2455976D01*
G01X357676Y-2472436D01*
G01X369404Y-2486900D01*
G01X278609Y-2498701D01*
G01X187445Y-2507189D01*
G01X96032Y-2512351D01*
G01X4492Y-2514182D01*
G01X-87054Y-2512678D01*
G01X-178485Y-2507843D01*
G01X-269679Y-2499681D01*
G01X-360516Y-2488204D01*
G01X-360516Y-2488204D01*
G01X-348249Y-2473587D01*
G01X-339122Y-2456830D01*
G01X-333497Y-2438596D01*
G01X-331597Y-2419609D01*
G01X-331597Y-2359609D01*
G01X-333438Y-2340916D01*
G01X-338891Y-2322942D01*
G01X-347745Y-2306377D01*
G01X-359660Y-2291858D01*
G01X-374180Y-2279942D01*
G01X-390745Y-2271088D01*
G01X-408719Y-2265636D01*
G01X-427411Y-2263795D01*
G01X-446103Y-2265636D01*
G01X-464078Y-2271088D01*
G01X-480642Y-2279942D01*
G01X-495162Y-2291858D01*
G01X-507077Y-2306377D01*
G01X-515932Y-2322942D01*
G01X-521384Y-2340916D01*
G01X-523225Y-2359609D01*
G01X-523225Y-2419609D01*
G01X-522157Y-2433872D01*
G01X-518978Y-2447818D01*
G01X-513759Y-2461135D01*
G01X-611471Y-2438695D01*
G01X-708210Y-2412378D01*
G01X-803824Y-2382225D01*
G01X-898160Y-2348285D01*
G01X-991067Y-2310610D01*
G01X-1082398Y-2269261D01*
G01X-1172009Y-2224304D01*
G01X-1259755Y-2175810D01*
G01X-1345499Y-2123856D01*
G01X-1429103Y-2068525D01*
G01X-1510435Y-2009905D01*
G01X-1589365Y-1948089D01*
G01X-1608741Y-1931626D01*
G01X-523225Y-1931626D01*
G01X-523225Y-2011626D01*
G01X-521335Y-2030562D01*
G01X-515741Y-2048750D01*
G01X-506662Y-2065475D01*
G01X-494457Y-2080075D01*
G01X-479607Y-2091975D01*
G01X-462698Y-2100705D01*
G01X-444398Y-2105922D01*
G01X-425427Y-2107420D01*
G01X-406535Y-2105138D01*
G01X-388466Y-2099168D01*
G01X-371933Y-2089745D01*
G01X-357589Y-2077240D01*
G01X-345999Y-2062147D01*
G01X-337325Y-2072881D01*
G01X-326794Y-2081799D01*
G01X-314777Y-2088586D01*
G01X-326460Y-2088586D01*
G01X-337527Y-2090338D01*
G01X-347511Y-2095425D01*
G01X-355434Y-2103349D01*
G01X-360521Y-2113332D01*
G01X-362274Y-2124400D01*
G01X-362274Y-2210800D01*
G01X-360521Y-2221867D01*
G01X-355434Y-2231851D01*
G01X-347511Y-2239774D01*
G01X-337527Y-2244861D01*
G01X-326460Y-2246614D01*
G01X-245813Y-2246614D01*
G01X-235576Y-2245120D01*
G01X-226193Y-2240762D01*
G01X-218447Y-2233904D01*
G01X-210786Y-2244397D01*
G01X-200615Y-2252480D01*
G01X-188663Y-2257575D01*
G01X-175787Y-2259314D01*
G01X-95140Y-2259314D01*
G01X-82583Y-2257661D01*
G01X-70883Y-2252815D01*
G01X-60835Y-2245105D01*
G01X-53125Y-2235057D01*
G01X-48279Y-2223357D01*
G01X-46626Y-2210800D01*
G01X-46626Y-2124400D01*
G01X82226Y-2124400D01*
G01X82226Y-2210800D01*
G01X83879Y-2223357D01*
G01X88726Y-2235057D01*
G01X96435Y-2245105D01*
G01X106483Y-2252815D01*
G01X118184Y-2257661D01*
G01X130740Y-2259314D01*
G01X211387Y-2259314D01*
G01X224263Y-2257575D01*
G01X236215Y-2252480D01*
G01X246386Y-2244397D01*
G01X254047Y-2233904D01*
G01X261793Y-2240762D01*
G01X271176Y-2245120D01*
G01X281413Y-2246614D01*
G01X362060Y-2246614D01*
G01X373127Y-2244861D01*
G01X383111Y-2239774D01*
G01X391034Y-2231851D01*
G01X396121Y-2221867D01*
G01X397874Y-2210800D01*
G01X397874Y-2124400D01*
G01X396121Y-2113332D01*
G01X391034Y-2103349D01*
G01X383111Y-2095425D01*
G01X373127Y-2090338D01*
G01X362060Y-2088586D01*
G01X324978Y-2088586D01*
G01X336994Y-2081799D01*
G01X347525Y-2072881D01*
G01X356199Y-2062147D01*
G01X367789Y-2077240D01*
G01X382134Y-2089745D01*
G01X398666Y-2099168D01*
G01X416735Y-2105138D01*
G01X435627Y-2107420D01*
G01X454598Y-2105922D01*
G01X472899Y-2100705D01*
G01X489807Y-2091975D01*
G01X504657Y-2080075D01*
G01X516862Y-2065475D01*
G01X525941Y-2048750D01*
G01X531535Y-2030562D01*
G01X533425Y-2011626D01*
G01X533425Y-1931626D01*
G01X531584Y-1912934D01*
G01X526132Y-1894960D01*
G01X517278Y-1878395D01*
G01X505362Y-1863876D01*
G01X490843Y-1851960D01*
G01X474278Y-1843106D01*
G01X456304Y-1837653D01*
G01X437611Y-1835812D01*
G01X418919Y-1837653D01*
G01X400945Y-1843106D01*
G01X384380Y-1851960D01*
G01X369861Y-1863876D01*
G01X357945Y-1878395D01*
G01X349091Y-1894960D01*
G01X343638Y-1912934D01*
G01X341797Y-1931626D01*
G01X341797Y-1965127D01*
G01X328067Y-1956159D01*
G01X312686Y-1950467D01*
G01X296425Y-1948337D01*
G01X280097Y-1949874D01*
G01X264519Y-1955003D01*
G01X250472Y-1963466D01*
G01X238657Y-1974840D01*
G01X238657Y-1974840D01*
G01X227358Y-1963232D01*
G01X213802Y-1954364D01*
G01X198639Y-1948662D01*
G01X182599Y-1946400D01*
G01X166451Y-1947686D01*
G01X150971Y-1952460D01*
G01X136903Y-1960491D01*
G01X124922Y-1971394D01*
G01X115604Y-1984645D01*
G01X109396Y-1999607D01*
G01X106597Y-2015563D01*
G01X107341Y-2031745D01*
G01X111592Y-2047376D01*
G01X119146Y-2061706D01*
G01X119146Y-2077292D01*
G01X107175Y-2081994D01*
G01X96860Y-2089676D01*
G01X88926Y-2099799D01*
G01X83931Y-2111651D01*
G01X82226Y-2124400D01*
G01X-46626Y-2124400D01*
G01X-47954Y-2113126D01*
G01X-51865Y-2102470D01*
G01X-58146Y-2093014D01*
G01X-58146Y-2082026D01*
G01X-50793Y-2068202D01*
G01X-46517Y-2053138D01*
G01X-45510Y-2037513D01*
G01X-47818Y-2022025D01*
G01X-53336Y-2007372D01*
G01X-61817Y-1994209D01*
G01X-72881Y-1983129D01*
G01X-86030Y-1974627D01*
G01X-100675Y-1969087D01*
G01X-116159Y-1966755D01*
G01X-131786Y-1967738D01*
G01X-146856Y-1971991D01*
G01X-160692Y-1979322D01*
G01X-172673Y-1989404D01*
G01X-182261Y-2001783D01*
G01X-189026Y-2015904D01*
G01X-192665Y-2031134D01*
G01X-193014Y-2046788D01*
G01X-190058Y-2062165D01*
G01X-183929Y-2076574D01*
G01X-194459Y-2079623D01*
G01X-204036Y-2084958D01*
G01X-212171Y-2092308D01*
G01X-218447Y-2101296D01*
G01X-226193Y-2094438D01*
G01X-235576Y-2090080D01*
G01X-245813Y-2088586D01*
G01X-245813Y-2088586D01*
G01X-255006Y-2088586D01*
G01X-241513Y-2080743D01*
G01X-229986Y-2070222D01*
G01X-220947Y-2057500D01*
G01X-214805Y-2043153D01*
G01X-211839Y-2027831D01*
G01X-212184Y-2012228D01*
G01X-215823Y-1997052D01*
G01X-222592Y-1982989D01*
G01X-232184Y-1970679D01*
G01X-244165Y-1960677D01*
G01X-257991Y-1953438D01*
G01X-273036Y-1949289D01*
G01X-288618Y-1948419D01*
G01X-304032Y-1950867D01*
G01X-318578Y-1956521D01*
G01X-331597Y-1965127D01*
G01X-331597Y-1931626D01*
G01X-333438Y-1912934D01*
G01X-338891Y-1894960D01*
G01X-347745Y-1878395D01*
G01X-359660Y-1863876D01*
G01X-374180Y-1851960D01*
G01X-390745Y-1843106D01*
G01X-408719Y-1837653D01*
G01X-427411Y-1835812D01*
G01X-446103Y-1837653D01*
G01X-464078Y-1843106D01*
G01X-480642Y-1851960D01*
G01X-495162Y-1863876D01*
G01X-507077Y-1878395D01*
G01X-515932Y-1894960D01*
G01X-521384Y-1912934D01*
G01X-523225Y-1931626D01*
G01X-1608741Y-1931626D01*
G01X-1665768Y-1883175D01*
G01X-1739522Y-1815267D01*
G01X-1810510Y-1744473D01*
G01X-1878619Y-1670904D01*
G01X-1943741Y-1594679D01*
G01X-2005772Y-1515918D01*
G01X-2064614Y-1434747D01*
G01X-2120173Y-1351294D01*
G01X-2172361Y-1265693D01*
G01X-2221095Y-1178079D01*
G01X-2266296Y-1088592D01*
G01X-2307895Y-997373D01*
G01X-2345823Y-904569D01*
G01X-2380021Y-810327D01*
G01X-2410435Y-714796D01*
G01X-2437016Y-618128D01*
G01X-2438548Y-611539D01*
G01X-2136850Y-611539D01*
G01X-2136850Y-736540D01*
G01X-2135097Y-747607D01*
G01X-2130010Y-757591D01*
G01X-2122087Y-765514D01*
G01X-2112103Y-770601D01*
G01X-2101036Y-772354D01*
G01X-2031036Y-772354D01*
G01X-2019969Y-770601D01*
G01X-2009985Y-765514D01*
G01X-2002062Y-757591D01*
G01X-1996975Y-747607D01*
G01X-1995222Y-736540D01*
G01X-1995222Y-611539D01*
G01X-1996593Y-601726D01*
G01X-2000600Y-592664D01*
G01X-2006937Y-585046D01*
G01X-2006040Y-585055D01*
G01X-1951691Y-585055D01*
G01X-1957550Y-597725D01*
G01X-1959558Y-611539D01*
G01X-1959558Y-736540D01*
G01X-1957905Y-749097D01*
G01X-1953058Y-760797D01*
G01X-1945349Y-770845D01*
G01X-1935301Y-778555D01*
G01X-1923600Y-783401D01*
G01X-1911044Y-785054D01*
G01X-1841044Y-785054D01*
G01X-1828414Y-783382D01*
G01X-1816656Y-778479D01*
G01X-1806579Y-770684D01*
G01X-1798879Y-760534D01*
G01X-1794086Y-748730D01*
G01X-1778281Y-749398D01*
G01X-1762695Y-746688D01*
G01X-1748043Y-740723D01*
G01X-1734997Y-731776D01*
G01X-1724152Y-720259D01*
G01X-1716007Y-706697D01*
G01X-1710935Y-691713D01*
G01X-1709167Y-675992D01*
G01X-1710785Y-660256D01*
G01X-1715714Y-645224D01*
G01X-1723730Y-631585D01*
G01X-1734464Y-619965D01*
G01X-1747425Y-610894D01*
G01X-1762019Y-604790D01*
G01X-1777578Y-601931D01*
G01X-1793389Y-602448D01*
G01X-1797680Y-589786D01*
G01X-1805264Y-578776D01*
G01X-1815566Y-570254D01*
G01X-1827802Y-564867D01*
G01X-1841044Y-563025D01*
G01X-1895393Y-563025D01*
G01X-1889534Y-550355D01*
G01X-1887526Y-536541D01*
G01X-1887526Y-411540D01*
G01X-1889034Y-399538D01*
G01X-1893465Y-388282D01*
G01X-1900542Y-378472D01*
G01X-1909826Y-370718D01*
G01X-1909826Y-369173D01*
G01X-1889940Y-357209D01*
G01X-1872332Y-342093D01*
G01X-1857493Y-324249D01*
G01X-1845843Y-304179D01*
G01X-1837706Y-282445D01*
G01X-1833312Y-259658D01*
G01X-1832785Y-236456D01*
G01X-1836138Y-213493D01*
G01X-1843279Y-191412D01*
G01X-1854005Y-170832D01*
G01X-1868017Y-152333D01*
G01X-1884921Y-136432D01*
G01X-1904242Y-123577D01*
G01X-1925438Y-114127D01*
G01X-1947915Y-108350D01*
G01X-1971040Y-106406D01*
G01X-1994165Y-108350D01*
G01X-2016642Y-114127D01*
G01X-2037838Y-123577D01*
G01X-2057159Y-136432D01*
G01X-2074063Y-152333D01*
G01X-2088075Y-170832D01*
G01X-2098801Y-191412D01*
G01X-2105942Y-213493D01*
G01X-2109295Y-236456D01*
G01X-2108768Y-259658D01*
G01X-2104374Y-282445D01*
G01X-2096237Y-304179D01*
G01X-2084587Y-324249D01*
G01X-2069748Y-342093D01*
G01X-2052140Y-357209D01*
G01X-2032254Y-369173D01*
G01X-2032254Y-370718D01*
G01X-2032254Y-370718D01*
G01X-2041538Y-378472D01*
G01X-2048615Y-388282D01*
G01X-2053046Y-399538D01*
G01X-2054554Y-411540D01*
G01X-2054554Y-536541D01*
G01X-2053220Y-547840D01*
G01X-2049291Y-558517D01*
G01X-2042983Y-567986D01*
G01X-2034644Y-575725D01*
G01X-2101036Y-575725D01*
G01X-2112103Y-577478D01*
G01X-2122087Y-582565D01*
G01X-2130010Y-590488D01*
G01X-2135097Y-600472D01*
G01X-2136850Y-611539D01*
G01X-2438548Y-611539D01*
G01X-2459722Y-520478D01*
G01X-2478517Y-422000D01*
G01X-2493371Y-322851D01*
G01X-2504260Y-223189D01*
G01X-2504260Y-223189D01*
G01X-2511167Y-123171D01*
G01X-2514081Y-22958D01*
G01X-2512998Y77291D01*
G01X-2507918Y177418D01*
G01X-2498851Y277263D01*
G01X-2485810Y376667D01*
G01X-2468817Y475471D01*
G01X-2447898Y573520D01*
G01X-2423087Y670657D01*
G01X-2394423Y766727D01*
G01X-2361951Y861579D01*
G01X-2325724Y955060D01*
G01X-2285799Y1047023D01*
G01X-2242239Y1137320D01*
G01X-2231098Y1158240D01*
G01X-2212594Y1158240D01*
G01X-2212594Y422720D01*
G01X-2211174Y408300D01*
G01X-2206968Y394434D01*
G01X-2200137Y381655D01*
G01X-2190945Y370454D01*
G01X-2106139Y285648D01*
G01X-2109293Y263572D01*
G01X-2108864Y241276D01*
G01X-2104863Y219338D01*
G01X-2097393Y198326D01*
G01X-2086648Y178785D01*
G01X-2072907Y161222D01*
G01X-2056525Y146092D01*
G01X-2037928Y133786D01*
G01X-2017597Y124624D01*
G01X-1996059Y118844D01*
G01X-1973872Y116595D01*
G01X-1951613Y117935D01*
G01X-1929856Y122830D01*
G01X-1923859Y125242D01*
G01X-1790234Y125242D01*
G01X-1790234Y45242D01*
G01X-1788925Y34049D01*
G01X-1785069Y23460D01*
G01X-1778874Y14046D01*
G01X-1770674Y6316D01*
G01X-1775776Y-3679D01*
G01X-1777534Y-14762D01*
G01X-1777534Y-14762D01*
G01X-1777534Y-94762D01*
G01X-1775781Y-105829D01*
G01X-1770694Y-115813D01*
G01X-1762771Y-123736D01*
G01X-1752787Y-128823D01*
G01X-1741720Y-130576D01*
G01X-1651720Y-130576D01*
G01X-1640653Y-128823D01*
G01X-1630669Y-123736D01*
G01X-1622746Y-115813D01*
G01X-1617659Y-105829D01*
G01X-1615906Y-94762D01*
G01X-1615906Y-14762D01*
G01X-1617664Y-3679D01*
G01X-1622766Y6316D01*
G01X-1614449Y14186D01*
G01X-1608208Y23787D01*
G01X-1550387Y23787D01*
G01X-1538393Y11144D01*
G01X-1524359Y812D01*
G01X-1508723Y-6885D01*
G01X-1524146Y-15947D01*
G01X-1537355Y-28009D01*
G01X-1547777Y-42548D01*
G01X-1554958Y-58931D01*
G01X-1558586Y-76447D01*
G01X-1558505Y-94335D01*
G01X-1554716Y-111817D01*
G01X-1547386Y-128134D01*
G01X-1536832Y-142577D01*
G01X-1523513Y-154518D01*
G01X-1508008Y-163438D01*
G01X-1490991Y-168951D01*
G01X-1473200Y-170815D01*
G01X-1455409Y-168951D01*
G01X-1438392Y-163438D01*
G01X-1422887Y-154518D01*
G01X-1409568Y-142577D01*
G01X-1399014Y-128134D01*
G01X-1391684Y-111817D01*
G01X-1387895Y-94335D01*
G01X-1387814Y-76447D01*
G01X-1391442Y-58931D01*
G01X-1397154Y-45900D01*
G01X-1218914Y-45900D01*
G01X-1218914Y-687982D01*
G01X-1217738Y-699924D01*
G01X-1214254Y-711407D01*
G01X-1208598Y-721990D01*
G01X-1200985Y-731266D01*
G01X-144586Y-1787665D01*
G01X-139794Y-1803142D01*
G01X-131744Y-1817204D01*
G01X-120824Y-1829173D01*
G01X-107558Y-1838476D01*
G01X-92585Y-1844665D01*
G01X-76622Y-1847443D01*
G01X-60438Y-1846675D01*
G01X-44809Y-1842400D01*
G01X-30488Y-1834823D01*
G01X-18162Y-1824307D01*
G01X-8423Y-1811358D01*
G01X-1740Y-1796598D01*
G01X1567Y-1780737D01*
G01X8722Y-1787892D01*
G01X13425Y-1803161D01*
G01X21298Y-1817063D01*
G01X31975Y-1828948D01*
G01X44956Y-1838261D01*
G01X59635Y-1844568D01*
G01X75327Y-1847572D01*
G01X91298Y-1847135D01*
G01X106801Y-1843276D01*
G01X121113Y-1836175D01*
G01X133565Y-1826165D01*
G01X143575Y-1813713D01*
G01X150676Y-1799401D01*
G01X154535Y-1783898D01*
G01X154972Y-1767927D01*
G01X151968Y-1752235D01*
G01X145661Y-1737556D01*
G01X136348Y-1724575D01*
G01X124463Y-1713898D01*
G01X110561Y-1706025D01*
G01X95292Y-1701322D01*
G01X-879753Y-726277D01*
G01X-403581Y-726277D01*
G01X-401854Y-742160D01*
G01X-396755Y-757301D01*
G01X-388521Y-770992D01*
G01X-377537Y-782595D01*
G01X-364317Y-791566D01*
G01X-349478Y-797486D01*
G01X-333713Y-800080D01*
G01X-317760Y-799226D01*
G01X-302362Y-794963D01*
G01X-288240Y-787491D01*
G01X-15359Y-787491D01*
G01X111506Y-914356D01*
G01X111506Y-1131751D01*
G01X99354Y-1146005D01*
G01X90305Y-1162406D01*
G01X84729Y-1180287D01*
G01X82849Y-1198924D01*
G01X84744Y-1217559D01*
G01X90336Y-1235436D01*
G01X99399Y-1251829D01*
G01X111563Y-1266072D01*
G01X126336Y-1277588D01*
G01X143117Y-1285909D01*
G01X161226Y-1290697D01*
G01X179927Y-1291757D01*
G01X198461Y-1289048D01*
G01X216075Y-1282678D01*
G01X232055Y-1272906D01*
G01X245752Y-1260129D01*
G01X256610Y-1244866D01*
G01X264187Y-1227736D01*
G01X268177Y-1209435D01*
G01X268417Y-1190705D01*
G01X264897Y-1172308D01*
G01X257762Y-1154989D01*
G01X247299Y-1139453D01*
G01X233934Y-1126329D01*
G01X233934Y-889000D01*
G01X232758Y-877058D01*
G01X229274Y-865574D01*
G01X223618Y-854991D01*
G01X216005Y-845715D01*
G01X130831Y-760541D01*
G01X577717Y-760541D01*
G01X579608Y-779196D01*
G01X585204Y-797092D01*
G01X594277Y-813501D01*
G01X606459Y-827756D01*
G01X621253Y-839276D01*
G01X638058Y-847593D01*
G01X656191Y-852369D01*
G01X674912Y-853409D01*
G01X693462Y-850671D01*
G01X711085Y-844266D01*
G01X727064Y-834455D01*
G01X755455Y-834455D01*
G01X766772Y-850397D01*
G01X780220Y-864586D01*
G01X795532Y-876741D01*
G01X812403Y-886620D01*
G01X783780Y-886620D01*
G01X783780Y-886620D01*
G01X772713Y-888372D01*
G01X762729Y-893459D01*
G01X754806Y-901383D01*
G01X749719Y-911366D01*
G01X747966Y-922434D01*
G01X747966Y-1102433D01*
G01X749719Y-1113500D01*
G01X754806Y-1123484D01*
G01X762729Y-1131407D01*
G01X772713Y-1136494D01*
G01X783780Y-1138247D01*
G01X963780Y-1138247D01*
G01X974847Y-1136494D01*
G01X984831Y-1131407D01*
G01X992754Y-1123484D01*
G01X997841Y-1113500D01*
G01X999594Y-1102433D01*
G01X999594Y-922434D01*
G01X997841Y-911366D01*
G01X992754Y-901383D01*
G01X984831Y-893459D01*
G01X974847Y-888372D01*
G01X963780Y-886620D01*
G01X935157Y-886620D01*
G01X954944Y-874689D01*
G01X972473Y-859636D01*
G01X987256Y-841878D01*
G01X998881Y-821910D01*
G01X1007025Y-800287D01*
G01X1011461Y-777612D01*
G01X1012066Y-754514D01*
G01X1008824Y-731637D01*
G01X1001824Y-709618D01*
G01X991260Y-689068D01*
G01X977428Y-670560D01*
G01X960712Y-654609D01*
G01X941577Y-641659D01*
G01X920555Y-632070D01*
G01X898232Y-626108D01*
G01X875228Y-623940D01*
G01X852185Y-625627D01*
G01X829742Y-631120D01*
G01X808524Y-640267D01*
G01X789122Y-652815D01*
G01X772076Y-668413D01*
G01X757860Y-686627D01*
G01X727064Y-686627D01*
G01X711085Y-676816D01*
G01X693462Y-670411D01*
G01X674912Y-667673D01*
G01X656191Y-668713D01*
G01X638058Y-673489D01*
G01X621253Y-681806D01*
G01X606459Y-693326D01*
G01X594277Y-707581D01*
G01X585204Y-723990D01*
G01X579608Y-741886D01*
G01X577717Y-760541D01*
G01X130831Y-760541D01*
G01X53282Y-682992D01*
G01X44006Y-675379D01*
G01X33423Y-669723D01*
G01X21939Y-666239D01*
G01X9997Y-665063D01*
G01X-288240Y-665063D01*
G01X-288240Y-665063D01*
G01X-302362Y-657591D01*
G01X-317760Y-653328D01*
G01X-333713Y-652474D01*
G01X-349478Y-655067D01*
G01X-364317Y-660988D01*
G01X-377537Y-669959D01*
G01X-388521Y-681562D01*
G01X-396755Y-695253D01*
G01X-401854Y-710394D01*
G01X-403581Y-726277D01*
G01X-879753Y-726277D01*
G01X-1014886Y-591144D01*
G01X-1014886Y-117156D01*
G01X-1006008Y-108278D01*
G01X-991751Y-104003D01*
G01X-978640Y-96959D01*
G01X-967205Y-87430D01*
G01X-957912Y-75804D01*
G01X-951136Y-62552D01*
G01X-947153Y-48211D01*
G01X-946123Y-33363D01*
G01X-948089Y-18610D01*
G01X-952971Y-4549D01*
G01X-960571Y8248D01*
G01X-970580Y19263D01*
G01X-982594Y28050D01*
G01X-969489Y37837D01*
G01X-958858Y50267D01*
G01X-958759Y50455D01*
G01X-42713Y50455D01*
G01X-42126Y34513D01*
G01X-38132Y19067D01*
G01X-30917Y4839D01*
G01X-20817Y-7510D01*
G01X-8302Y-17404D01*
G01X6044Y-24382D01*
G01X21554Y-28120D01*
G01X441364Y-447929D01*
G01X446402Y-463088D01*
G01X454579Y-476810D01*
G01X465513Y-488455D01*
G01X478695Y-497479D01*
G01X493507Y-503460D01*
G01X509258Y-506119D01*
G01X525212Y-505332D01*
G01X540625Y-501135D01*
G01X554777Y-493725D01*
G01X567005Y-483447D01*
G01X576740Y-470782D01*
G01X583527Y-456321D01*
G01X587048Y-440740D01*
G01X587139Y-424767D01*
G01X583796Y-409146D01*
G01X577176Y-394609D01*
G01X567586Y-381833D01*
G01X555476Y-371417D01*
G01X541410Y-363845D01*
G01X526046Y-359472D01*
G01X102774Y63800D01*
G01X1289686Y63800D01*
G01X1289686Y-136200D01*
G01X1291339Y-148756D01*
G01X1296186Y-160457D01*
G01X1303896Y-170504D01*
G01X1313943Y-178214D01*
G01X1325644Y-183061D01*
G01X1338200Y-184714D01*
G01X1352654Y-184714D01*
G01X1336579Y-200097D01*
G01X1323231Y-217899D01*
G01X1312968Y-237642D01*
G01X1306067Y-258795D01*
G01X1302713Y-280791D01*
G01X1302994Y-303039D01*
G01X1306905Y-324943D01*
G01X1314340Y-345915D01*
G01X1325099Y-365391D01*
G01X1338894Y-382848D01*
G01X1355354Y-397820D01*
G01X1374038Y-409902D01*
G01X1394444Y-418772D01*
G01X1416025Y-424191D01*
G01X1438200Y-426014D01*
G01X1460376Y-424191D01*
G01X1481956Y-418772D01*
G01X1502362Y-409902D01*
G01X1521046Y-397820D01*
G01X1537506Y-382848D01*
G01X1551301Y-365390D01*
G01X1562060Y-345914D01*
G01X1569495Y-324943D01*
G01X1573406Y-303039D01*
G01X1573687Y-280791D01*
G01X1570333Y-258795D01*
G01X1563432Y-237641D01*
G01X1553169Y-217899D01*
G01X1539821Y-200097D01*
G01X1523745Y-184714D01*
G01X1538200Y-184714D01*
G01X1538200Y-184714D01*
G01X1550756Y-183061D01*
G01X1562457Y-178214D01*
G01X1572504Y-170504D01*
G01X1580214Y-160457D01*
G01X1585061Y-148756D01*
G01X1586714Y-136200D01*
G01X1586714Y63800D01*
G01X1585061Y76356D01*
G01X1580214Y88057D01*
G01X1572504Y98104D01*
G01X1562457Y105814D01*
G01X1550756Y110661D01*
G01X1538200Y112314D01*
G01X1338200Y112314D01*
G01X1325644Y110661D01*
G01X1313943Y105814D01*
G01X1303896Y98104D01*
G01X1296186Y88057D01*
G01X1291339Y76356D01*
G01X1289686Y63800D01*
G01X102774Y63800D01*
G01X102464Y64109D01*
G01X96739Y79000D01*
G01X87953Y92316D01*
G01X76514Y103436D01*
G01X62955Y111843D01*
G01X47908Y117144D01*
G01X32074Y119093D01*
G01X16191Y117599D01*
G01X998Y112732D01*
G01X-12796Y104718D01*
G01X-24550Y93931D01*
G01X-24550Y93931D01*
G01X-33715Y80873D01*
G01X-39865Y66153D01*
G01X-42713Y50455D01*
G01X-958759Y50455D01*
G01X-951221Y64731D01*
G01X-946952Y80520D01*
G01X-946260Y96861D01*
G01X-949178Y112955D01*
G01X-955565Y128013D01*
G01X-965106Y141297D01*
G01X-977336Y152158D01*
G01X-991655Y160063D01*
G01X-1007362Y164625D01*
G01X-1023687Y165622D01*
G01X-1039833Y163003D01*
G01X-1055007Y156898D01*
G01X-1068466Y147606D01*
G01X-1079553Y135580D01*
G01X-1087723Y121411D01*
G01X-1092577Y105792D01*
G01X-1200985Y-2615D01*
G01X-1200985Y-2615D01*
G01X-1208598Y-11891D01*
G01X-1214254Y-22474D01*
G01X-1217738Y-33958D01*
G01X-1218914Y-45900D01*
G01X-1397154Y-45900D01*
G01X-1398623Y-42548D01*
G01X-1409045Y-28009D01*
G01X-1422254Y-15947D01*
G01X-1437677Y-6885D01*
G01X-1421494Y1147D01*
G01X-1407050Y12000D01*
G01X-1394831Y25308D01*
G01X-1385248Y40623D01*
G01X-1378622Y57431D01*
G01X-1375178Y75167D01*
G01X-1375030Y93233D01*
G01X-1378185Y111022D01*
G01X-1384534Y127936D01*
G01X-1393866Y143406D01*
G01X-1405866Y156912D01*
G01X-1420130Y167999D01*
G01X-1436180Y176295D01*
G01X-1453474Y181520D01*
G01X-1471432Y183499D01*
G01X-1489449Y182166D01*
G01X-1506920Y177564D01*
G01X-1523257Y169850D01*
G01X-1537910Y159282D01*
G01X-1550387Y146215D01*
G01X-1607974Y146215D01*
G01X-1614867Y156793D01*
G01X-1624256Y165234D01*
G01X-1635506Y170967D01*
G01X-1635506Y413095D01*
G01X-1622042Y409615D01*
G01X-1608165Y408719D01*
G01X-1594366Y410437D01*
G01X-1581133Y414710D01*
G01X-1568934Y421386D01*
G01X1569764Y421386D01*
G01X1752346Y238804D01*
G01X1752346Y157871D01*
G01X1741001Y145641D01*
G01X1731882Y131671D01*
G01X1725252Y116363D01*
G01X1721299Y100156D01*
G01X1720137Y83514D01*
G01X1721800Y66915D01*
G01X1726241Y50834D01*
G01X1733330Y35734D01*
G01X1742867Y22046D01*
G01X1754576Y10163D01*
G01X1768122Y426D01*
G01X1783117Y-6885D01*
G01X1767694Y-15947D01*
G01X1754485Y-28009D01*
G01X1744063Y-42548D01*
G01X1736882Y-58931D01*
G01X1733254Y-76447D01*
G01X1733335Y-94335D01*
G01X1737124Y-111817D01*
G01X1744454Y-128134D01*
G01X1755008Y-142577D01*
G01X1768327Y-154518D01*
G01X1783832Y-163438D01*
G01X1800849Y-168951D01*
G01X1818640Y-170815D01*
G01X1836431Y-168951D01*
G01X1853448Y-163438D01*
G01X1868953Y-154518D01*
G01X1882272Y-142577D01*
G01X1892826Y-128134D01*
G01X1900156Y-111817D01*
G01X1903945Y-94335D01*
G01X1904026Y-76447D01*
G01X1900398Y-58931D01*
G01X1893217Y-42548D01*
G01X1882795Y-28009D01*
G01X1869586Y-15947D01*
G01X1854163Y-6885D01*
G01X1869799Y812D01*
G01X1883833Y11144D01*
G01X1895827Y23787D01*
G01X1963808Y23787D01*
G01X1970049Y14186D01*
G01X1978366Y6316D01*
G01X1973264Y-3679D01*
G01X1971506Y-14762D01*
G01X1971506Y-94762D01*
G01X1973259Y-105829D01*
G01X1978346Y-115813D01*
G01X1986269Y-123736D01*
G01X1996253Y-128823D01*
G01X2007320Y-130576D01*
G01X2097320Y-130576D01*
G01X2108387Y-128823D01*
G01X2118371Y-123736D01*
G01X2126294Y-115813D01*
G01X2131381Y-105829D01*
G01X2133134Y-94762D01*
G01X2133134Y-14762D01*
G01X2131376Y-3679D01*
G01X2126274Y6316D01*
G01X2134474Y14046D01*
G01X2140669Y23460D01*
G01X2144525Y34049D01*
G01X2145834Y45242D01*
G01X2145834Y125242D01*
G01X2144181Y137799D01*
G01X2139334Y149499D01*
G01X2131624Y159547D01*
G01X2121577Y167257D01*
G01X2109876Y172103D01*
G01X2097320Y173756D01*
G01X2007320Y173756D01*
G01X1993869Y171854D01*
G01X1981473Y166298D01*
G01X1971104Y157522D01*
G01X1963574Y146215D01*
G01X1895827Y146215D01*
G01X1886027Y156862D01*
G01X1874774Y165958D01*
G01X1874774Y264160D01*
G01X1873598Y276102D01*
G01X1870114Y287586D01*
G01X1864458Y298169D01*
G01X1856845Y307445D01*
G01X1638405Y525885D01*
G01X1629129Y533498D01*
G01X1618546Y539154D01*
G01X1607062Y542638D01*
G01X1595120Y543814D01*
G01X-1549146Y543814D01*
G01X-1549146Y726484D01*
G01X-1229404Y1046226D01*
G01X-1062506Y1046226D01*
G01X-1047562Y1038433D01*
G01X-1031241Y1034228D01*
G01X-1014392Y1033829D01*
G01X-997890Y1037258D01*
G01X-982594Y1044336D01*
G01X-969300Y1054695D01*
G01X-958697Y1067796D01*
G01X-951338Y1082958D01*
G01X-947605Y1099394D01*
G01X-947693Y1116248D01*
G01X-951596Y1132644D01*
G01X-959112Y1147729D01*
G01X-969849Y1160720D01*
G01X-983251Y1170940D01*
G01X-969849Y1181160D01*
G01X-959112Y1194151D01*
G01X-951596Y1209236D01*
G01X-947693Y1225632D01*
G01X-947605Y1242486D01*
G01X-951338Y1258922D01*
G01X-958697Y1274084D01*
G01X-969300Y1287185D01*
G01X-982594Y1297544D01*
G01X-997890Y1304622D01*
G01X-1014392Y1308051D01*
G01X-1031241Y1307652D01*
G01X-1047562Y1303447D01*
G01X-1062506Y1295654D01*
G01X-1264920Y1295654D01*
G01X-1276862Y1294478D01*
G01X-1288346Y1290994D01*
G01X-1298929Y1285338D01*
G01X-1308205Y1277725D01*
G01X-1740005Y845925D01*
G01X-1747618Y836649D01*
G01X-1753274Y826066D01*
G01X-1756758Y814582D01*
G01X-1757934Y802640D01*
G01X-1757934Y170967D01*
G01X-1768581Y165641D01*
G01X-1777611Y157884D01*
G01X-1784479Y148160D01*
G01X-1788773Y137057D01*
G01X-1790234Y125242D01*
G01X-1923859Y125242D01*
G01X-1909168Y131152D01*
G01X-1890083Y142687D01*
G01X-1873096Y157135D01*
G01X-1858648Y174122D01*
G01X-1847113Y193207D01*
G01X-1838790Y213896D01*
G01X-1833895Y235652D01*
G01X-1832555Y257912D01*
G01X-1834804Y280098D01*
G01X-1840585Y301636D01*
G01X-1849746Y321967D01*
G01X-1862052Y340565D01*
G01X-1877183Y356946D01*
G01X-1894746Y370688D01*
G01X-1914287Y381433D01*
G01X-1935298Y388902D01*
G01X-1957237Y392904D01*
G01X-1979533Y393333D01*
G01X-2001608Y390178D01*
G01X-2064766Y453336D01*
G01X-2064766Y558452D01*
G01X-2048535Y550079D01*
G01X-2031038Y544846D01*
G01X-2012875Y542932D01*
G01X-1994671Y544404D01*
G01X-1977052Y549212D01*
G01X-1960623Y557188D01*
G01X-1945948Y568061D01*
G01X-1933533Y581455D01*
G01X-1923803Y596911D01*
G01X-1917094Y613897D01*
G01X-1913636Y631830D01*
G01X-1913547Y650093D01*
G01X-1916831Y668059D01*
G01X-1923375Y685110D01*
G01X-1932953Y700660D01*
G01X-1945238Y714174D01*
G01X-1959806Y725189D01*
G01X-1976157Y733325D01*
G01X-1960559Y742516D01*
G01X-1947237Y754775D01*
G01X-1936783Y769555D01*
G01X-1929662Y786200D01*
G01X-1926192Y803968D01*
G01X-1926527Y822069D01*
G01X-1930651Y839697D01*
G01X-1938382Y856067D01*
G01X-1949376Y870451D01*
G01X-1963142Y882209D01*
G01X-1979069Y890817D01*
G01X-1996447Y895892D01*
G01X-2014503Y897209D01*
G01X-2032433Y894708D01*
G01X-2049440Y888501D01*
G01X-2064766Y878864D01*
G01X-2064766Y1127624D01*
G01X-1804457Y1387933D01*
G01X-1785415Y1390404D01*
G01X-1767134Y1396281D01*
G01X-1750218Y1405370D01*
G01X-1735227Y1417370D01*
G01X-1722655Y1431884D01*
G01X-1712918Y1448434D01*
G01X-1706336Y1466474D01*
G01X-1703821Y1481316D01*
G01X-730263Y1481316D01*
G01X-727236Y1462363D01*
G01X-720829Y1444270D01*
G01X-711255Y1427635D01*
G01X-698831Y1413006D01*
G01X-683965Y1400866D01*
G01X-667148Y1391616D01*
G01X-648935Y1385560D01*
G01X-629927Y1382899D01*
G01X-610751Y1383719D01*
G01X-592041Y1387996D01*
G01X-574412Y1395586D01*
G01X-558447Y1406240D01*
G01X-544673Y1419606D01*
G01X-254136Y1419606D01*
G01X394775Y770695D01*
G01X405976Y761503D01*
G01X418754Y754672D01*
G01X432620Y750466D01*
G01X447040Y749046D01*
G01X1630544Y749046D01*
G01X2181606Y197984D01*
G01X2181606Y-605211D01*
G01X2169156Y-619842D01*
G01X2159561Y-636486D01*
G01X2153137Y-654592D01*
G01X2150099Y-673561D01*
G01X2150545Y-692767D01*
G01X2154461Y-711575D01*
G01X2161718Y-729363D01*
G01X2172076Y-745543D01*
G01X2185192Y-759580D01*
G01X2200633Y-771010D01*
G01X2217889Y-779456D01*
G01X2236388Y-784638D01*
G01X2255520Y-786384D01*
G01X2274652Y-784638D01*
G01X2293151Y-779456D01*
G01X2310407Y-771010D01*
G01X2325848Y-759580D01*
G01X2338964Y-745543D01*
G01X2349322Y-729363D01*
G01X2356579Y-711575D01*
G01X2360495Y-692767D01*
G01X2360941Y-673561D01*
G01X2357903Y-654592D01*
G01X2351479Y-636486D01*
G01X2341884Y-619842D01*
G01X2329434Y-605211D01*
G01X2329434Y228600D01*
G01X2328014Y243020D01*
G01X2323808Y256886D01*
G01X2316977Y269664D01*
G01X2307785Y280865D01*
G01X1713425Y875225D01*
G01X1702224Y884417D01*
G01X1689446Y891248D01*
G01X1675580Y895454D01*
G01X1661160Y896874D01*
G01X477656Y896874D01*
G01X407070Y967460D01*
G01X1068846Y967460D01*
G01X1070499Y954904D01*
G01X1075346Y943203D01*
G01X1083056Y933156D01*
G01X1093103Y925446D01*
G01X1104804Y920599D01*
G01X1117360Y918946D01*
G01X1287360Y918946D01*
G01X1299916Y920599D01*
G01X1311617Y925446D01*
G01X1321664Y933156D01*
G01X1329374Y943203D01*
G01X1334221Y954904D01*
G01X1335874Y967460D01*
G01X1335874Y1137460D01*
G01X1334221Y1150016D01*
G01X1329374Y1161717D01*
G01X1321664Y1171764D01*
G01X1311617Y1179474D01*
G01X1299916Y1184321D01*
G01X1287360Y1185974D01*
G01X1259884Y1185974D01*
G01X1278947Y1197096D01*
G01X1295917Y1211207D01*
G01X1310330Y1227921D01*
G01X1321793Y1246781D01*
G01X1329993Y1267271D01*
G01X1334705Y1288833D01*
G01X1335801Y1310876D01*
G01X1333250Y1332798D01*
G01X1327123Y1354001D01*
G01X1317587Y1373905D01*
G01X1304902Y1391965D01*
G01X1289415Y1407690D01*
G01X1271549Y1420648D01*
G01X1251793Y1430486D01*
G01X1230686Y1436935D01*
G01X1208805Y1439818D01*
G01X1230494Y1442968D01*
G01X1251258Y1449984D01*
G01X1270412Y1460636D01*
G01X1287327Y1474573D01*
G01X1301445Y1491336D01*
G01X1312303Y1510375D01*
G01X1319542Y1531062D01*
G01X1322925Y1552716D01*
G01X1322341Y1574625D01*
G01X1317807Y1596068D01*
G01X1309475Y1616339D01*
G01X1297617Y1634771D01*
G01X1282624Y1650757D01*
G01X1264990Y1663772D01*
G01X1245295Y1673387D01*
G01X1224187Y1679286D01*
G01X1202360Y1681274D01*
G01X1180534Y1679286D01*
G01X1159425Y1673387D01*
G01X1139730Y1663772D01*
G01X1122096Y1650757D01*
G01X1107103Y1634771D01*
G01X1095246Y1616339D01*
G01X1086913Y1596068D01*
G01X1082380Y1574625D01*
G01X1081795Y1552716D01*
G01X1085178Y1531062D01*
G01X1092417Y1510375D01*
G01X1103275Y1491336D01*
G01X1117393Y1474573D01*
G01X1134308Y1460636D01*
G01X1153462Y1449984D01*
G01X1174226Y1442968D01*
G01X1195915Y1439818D01*
G01X1174034Y1436935D01*
G01X1152927Y1430486D01*
G01X1133171Y1420648D01*
G01X1115305Y1407690D01*
G01X1099818Y1391965D01*
G01X1087133Y1373905D01*
G01X1077597Y1354001D01*
G01X1071470Y1332798D01*
G01X1068919Y1310876D01*
G01X1070015Y1288833D01*
G01X1074727Y1267271D01*
G01X1082927Y1246781D01*
G01X1094390Y1227921D01*
G01X1108803Y1211207D01*
G01X1125773Y1197096D01*
G01X1144836Y1185974D01*
G01X1144836Y1185974D01*
G01X1117360Y1185974D01*
G01X1104804Y1184321D01*
G01X1093103Y1179474D01*
G01X1083056Y1171764D01*
G01X1075346Y1161717D01*
G01X1070499Y1150016D01*
G01X1068846Y1137460D01*
G01X1068846Y967460D01*
G01X407070Y967460D01*
G01X-171255Y1545785D01*
G01X-182456Y1554977D01*
G01X-195234Y1561808D01*
G01X-209100Y1566014D01*
G01X-223520Y1567434D01*
G01X-554663Y1567434D01*
G01X-554663Y1567434D01*
G01X-570110Y1578825D01*
G01X-587363Y1587235D01*
G01X-605853Y1592384D01*
G01X-624969Y1594104D01*
G01X-644081Y1592337D01*
G01X-662557Y1587143D01*
G01X-679790Y1578692D01*
G01X-695209Y1567263D01*
G01X-708307Y1553233D01*
G01X-718651Y1537065D01*
G01X-725899Y1519293D01*
G01X-729813Y1500504D01*
G01X-730263Y1481316D01*
G01X-1703821Y1481316D01*
G01X-1703128Y1485406D01*
G01X-1703399Y1504606D01*
G01X-1707141Y1523441D01*
G01X-1714229Y1541287D01*
G01X-1724430Y1557555D01*
G01X-1737407Y1571709D01*
G01X-1752731Y1583281D01*
G01X-1769897Y1591888D01*
G01X-1788336Y1597246D01*
G01X-1807441Y1599179D01*
G01X-1826580Y1597622D01*
G01X-1845122Y1592627D01*
G01X-1862453Y1584360D01*
G01X-1878002Y1573092D01*
G01X-1891254Y1559196D01*
G01X-1901773Y1543131D01*
G01X-1909211Y1525428D01*
G01X-1913323Y1506671D01*
G01X-1913971Y1487479D01*
G01X-2190945Y1210505D01*
G01X-2190945Y1210505D01*
G01X-2200137Y1199304D01*
G01X-2206968Y1186526D01*
G01X-2211174Y1172660D01*
G01X-2212594Y1158240D01*
G01X-2231098Y1158240D01*
G01X-2195113Y1225810D01*
G01X-2144497Y1312350D01*
G01X-2090472Y1396803D01*
G01X-2033122Y1479036D01*
G01X-1972539Y1558916D01*
G01X-1908820Y1636318D01*
G01X-1842066Y1711118D01*
G01X-1772382Y1783197D01*
G01X-1699881Y1852441D01*
G01X-1624676Y1918739D01*
G01X-1546888Y1981986D01*
G01X-1466641Y2042081D01*
G01X-1384061Y2098930D01*
G01X-1299280Y2152441D01*
G01X-1212434Y2202529D01*
G01X-1123660Y2249116D01*
G01X-1033099Y2292125D01*
G01X-940895Y2331491D01*
G01X-940895Y2331491D01*
G01X-940895Y1756895D01*
G01X-939142Y1745828D01*
G01X-934055Y1735844D01*
G01X-926132Y1727921D01*
G01X-916148Y1722834D01*
G01X-905081Y1721081D01*
G01X894921Y1721081D01*
G01X905988Y1722834D01*
G01X915972Y1727921D01*
G01X923895Y1735844D01*
G01X928982Y1745828D01*
G01X930735Y1756895D01*
G37*
G54D10*
G01X930735Y1756895D02*
G01X930735Y2335565D01*
G02X2505234Y-211979I-930735J-2335565D01*
G02X525067Y-2458747I-2505234J211979D01*
G03X533425Y-2419609I-87456J39138D01*
G01X533425Y-2359609D01*
G03X341797Y-2359609I-95814J0D01*
G01X341797Y-2419609D01*
G03X369404Y-2486900I95814J0D01*
G02X-360516Y-2488204I-369404J2486900D01*
G03X-331597Y-2419609I-66895J68595D01*
G01X-331597Y-2359609D01*
G03X-523225Y-2359609I-95814J0D01*
G01X-523225Y-2419609D01*
G03X-513759Y-2461135I95814J0D01*
G02X-2504260Y-223189I513759J2461135D01*
G02X-940895Y2331491I2504260J223189D01*
G01X-940895Y1756895D01*
G03X-905081Y1721081I35814J0D01*
G01X894921Y1721081D01*
G03X930735Y1756895I0J35814D01*
G01X-2190945Y1210505D02*
G03X-2212594Y1158240I52265J-52265D01*
G01X-2212594Y422720D01*
G03X-2190945Y370454I73914J0D01*
G01X-2106139Y285648D01*
G03X-1873096Y157135I135099J-30568D01*
G03X-2001608Y390178I-97944J97944D01*
G01X-2064766Y453336D01*
G01X-2064766Y558452D01*
G03X-1923803Y596911I53086J82987D01*
G03X-1976157Y733325I-87877J44528D01*
G03X-1938382Y856067I-35523J78116D01*
G03X-2064766Y878864I-73298J-44626D01*
G01X-2064766Y1127624D01*
G01X-1804457Y1387933D01*
G03X-1737407Y1571709I-4023J105587D01*
G03X-1913971Y1487479I-71073J-78189D01*
G01X-2190945Y1210505D01*
G01X-2032254Y-370718D02*
G03X-2054554Y-411540I26214J-40822D01*
G01X-2054554Y-536541D01*
G03X-2034644Y-575725I48514J0D01*
G01X-2101036Y-575725D01*
G03X-2136850Y-611539I0J-35814D01*
G01X-2136850Y-736540D01*
G03X-2101036Y-772354I35814J0D01*
G01X-2031036Y-772354D01*
G03X-1995222Y-736540I0J35814D01*
G01X-1995222Y-611539D01*
G03X-2006937Y-585046I-35814J0D01*
G01X-2006040Y-585055D01*
G01X-1951691Y-585055D01*
G03X-1959558Y-611539I40647J-26485D01*
G01X-1959558Y-736540D01*
G03X-1911044Y-785054I48514J0D01*
G01X-1841044Y-785054D01*
G03X-1794086Y-748730I0J48514D01*
G03X-1709167Y-675992I11006J73090D01*
G03X-1793389Y-602448I-73913J352D01*
G03X-1841044Y-563025I-47655J-9091D01*
G01X-1895393Y-563025D01*
G03X-1887526Y-536541I-40647J26485D01*
G01X-1887526Y-411540D01*
G03X-1909826Y-370718I-48514J0D01*
G01X-1909826Y-369173D01*
G03X-1971040Y-106406I-61214J124253D01*
G03X-2032254Y-369173I0J-138514D01*
G01X-2032254Y-370718D01*
G01X-1777534Y-14762D02*
G01X-1777534Y-94762D01*
G03X-1741720Y-130576I35814J0D01*
G01X-1651720Y-130576D01*
G03X-1615906Y-94762I0J35814D01*
G01X-1615906Y-14762D01*
G03X-1622766Y6316I-35814J-0D01*
G03X-1608208Y23787I-28954J38927D01*
G01X-1550387Y23787D01*
G03X-1508723Y-6885I77187J61214D01*
G03X-1473200Y-170815I35523J-78116D01*
G03X-1437677Y-6885I0J85814D01*
G03X-1393866Y143406I-35523J91886D01*
G03X-1550387Y146215I-79334J-58405D01*
G01X-1607974Y146215D01*
G03X-1635506Y170967I-43746J-20973D01*
G01X-1635506Y413095D01*
G03X-1568934Y421386I25146J69505D01*
G01X1569764Y421386D01*
G01X1752346Y238804D01*
G01X1752346Y157871D01*
G03X1721800Y66915I66294J-72870D01*
G03X1783117Y-6885I96840J18086D01*
G03X1818640Y-170815I35523J-78116D01*
G03X1854163Y-6885I0J85814D01*
G03X1895827Y23787I-35524J91886D01*
G01X1963808Y23787D01*
G03X1978366Y6316I43512J21455D01*
G03X1971506Y-14762I28954J-21079D01*
G01X1971506Y-94762D01*
G03X2007320Y-130576I35814J0D01*
G01X2097320Y-130576D01*
G03X2133134Y-94762I0J35814D01*
G01X2133134Y-14762D01*
G03X2126274Y6316I-35814J-0D01*
G03X2145834Y45242I-28954J38927D01*
G01X2145834Y125242D01*
G03X2097320Y173756I-48514J0D01*
G01X2007320Y173756D01*
G03X1963574Y146215I0J-48514D01*
G01X1895827Y146215D01*
G03X1874774Y165958I-77187J-61214D01*
G01X1874774Y264160D01*
G03X1856845Y307445I-61214J0D01*
G01X1638405Y525885D01*
G03X1595120Y543814I-43285J-43285D01*
G01X-1549146Y543814D01*
G01X-1549146Y726484D01*
G01X-1229404Y1046226D01*
G01X-1062506Y1046226D01*
G03X-958697Y1067796I41426J61214D01*
G03X-983251Y1170940I-62383J39644D01*
G03X-958697Y1274084I-37829J63500D01*
G03X-1062506Y1295654I-62383J-39644D01*
G01X-1264920Y1295654D01*
G03X-1308205Y1277725I0J-61214D01*
G01X-1740005Y845925D01*
G03X-1757934Y802640I43285J-43285D01*
G01X-1757934Y170967D01*
G03X-1790234Y125242I16214J-45724D01*
G01X-1790234Y45242D01*
G03X-1770674Y6316I48514J0D01*
G03X-1777534Y-14762I28954J-21079D01*
G01X-1200985Y-2615D02*
G03X-1218914Y-45900I43285J-43285D01*
G01X-1218914Y-687982D01*
G03X-1200985Y-731266I61214J0D01*
G01X-144586Y-1787665D01*
G03X1567Y-1780737I72577J13992D01*
G01X8722Y-1787892D01*
G03X133565Y-1826165I72578J13992D01*
G03X95292Y-1701322I-52265J52265D01*
G01X-1014886Y-591144D01*
G01X-1014886Y-117156D01*
G01X-1006008Y-108278D01*
G03X-947153Y-48211I-13992J72578D01*
G03X-982594Y28050I-72847J12511D01*
G03X-977336Y152158I-37406J63750D01*
G03X-1092577Y105792I-42664J-60358D01*
G01X-1200985Y-2615D01*
G01X-554663Y1567434D02*
G03X-730263Y1481316I-70177J-78994D01*
G03X-544673Y1419606I105423J7124D01*
G01X-254136Y1419606D01*
G01X394775Y770695D01*
G03X447040Y749046I52265J52265D01*
G01X1630544Y749046D01*
G01X2181606Y197984D01*
G01X2181606Y-605211D01*
G03X2255520Y-786384I73914J-75509D01*
G03X2329434Y-605211I0J105664D01*
G01X2329434Y228600D01*
G03X2307785Y280865I-73914J0D01*
G01X1713425Y875225D01*
G03X1661160Y896874I-52265J-52265D01*
G01X477656Y896874D01*
G01X-171255Y1545785D01*
G03X-223520Y1567434I-52265J-52265D01*
G01X-554663Y1567434D01*
G01X-245813Y-2088586D02*
G01X-255006Y-2088586D01*
G03X-222592Y-1982989I-29886J66947D01*
G03X-331597Y-1965127I-62300J-38649D01*
G01X-331597Y-1931626D01*
G03X-523225Y-1931626I-95814J0D01*
G01X-523225Y-2011626D01*
G03X-345999Y-2062147I95814J0D01*
G03X-314777Y-2088586I61107J40508D01*
G01X-326460Y-2088586D01*
G03X-362274Y-2124400I0J-35814D01*
G01X-362274Y-2210800D01*
G03X-326460Y-2246614I35814J0D01*
G01X-245813Y-2246614D01*
G03X-218447Y-2233904I0J35814D01*
G03X-175787Y-2259314I42660J23103D01*
G01X-95140Y-2259314D01*
G03X-46626Y-2210800I0J48514D01*
G01X-46626Y-2124400D01*
G03X-58146Y-2093014I-48514J0D01*
G01X-58146Y-2082026D01*
G03X-116159Y-1966755I-61214J41426D01*
G03X-183929Y-2076574I-3201J-73845D01*
G03X-218447Y-2101296I8142J-47826D01*
G03X-245813Y-2088586I-27366J-23103D01*
G01X-288240Y-665063D02*
G03X-403581Y-726277I-41426J-61214D01*
G03X-288240Y-787491I73914J0D01*
G01X-15359Y-787491D01*
G01X111506Y-914356D01*
G01X111506Y-1131751D01*
G03X179927Y-1291757I64307J-67133D01*
G03X233934Y-1126329I-4113J92873D01*
G01X233934Y-889000D01*
G03X216005Y-845715I-61214J0D01*
G01X53282Y-682992D01*
G03X9997Y-665063I-43285J-43285D01*
G01X-288240Y-665063D01*
G01X-24550Y93931D02*
G03X21554Y-28120I55563J-48744D01*
G01X441364Y-447929D01*
G03X567005Y-483447I72250J15596D01*
G03X526046Y-359472I-53392J51114D01*
G01X102464Y64109D01*
G03X-24550Y93931I-71451J-18923D01*
G01X238657Y-1974840D02*
G03X136903Y-1960491I-58297J-45440D01*
G03X119146Y-2061706I43457J-59789D01*
G01X119146Y-2077292D01*
G03X82226Y-2124400I11594J-47108D01*
G01X82226Y-2210800D01*
G03X130740Y-2259314I48514J0D01*
G01X211387Y-2259314D01*
G03X254047Y-2233904I0J48514D01*
G03X281413Y-2246614I27366J23103D01*
G01X362060Y-2246614D01*
G03X397874Y-2210800I0J35814D01*
G01X397874Y-2124400D01*
G03X362060Y-2088586I-35814J0D01*
G01X324978Y-2088586D01*
G03X356199Y-2062147I-29885J66947D01*
G03X533425Y-2011626I81412J50521D01*
G01X533425Y-1931626D01*
G03X341797Y-1931626I-95814J0D01*
G01X341797Y-1965127D01*
G03X238657Y-1974840I-46706J-56512D01*
G01X783780Y-886620D02*
G03X747966Y-922434I0J-35814D01*
G01X747966Y-1102433D01*
G03X783780Y-1138247I35814J0D01*
G01X963780Y-1138247D01*
G03X999594Y-1102433I0J35814D01*
G01X999594Y-922434D01*
G03X963780Y-886620I-35814J0D01*
G01X935157Y-886620D01*
G03X977428Y-670560I-61377J124173D01*
G03X757860Y-686627I-103648J-91886D01*
G01X727064Y-686627D01*
G03X577717Y-760541I-56383J-73914D01*
G03X727064Y-834455I92964J0D01*
G01X755455Y-834455D01*
G03X812403Y-886620I118325J72008D01*
G01X783780Y-886620D01*
G01X1144836Y1185974D02*
G01X1117360Y1185974D01*
G03X1068846Y1137460I0J-48514D01*
G01X1068846Y967460D01*
G03X1117360Y918946I48514J0D01*
G01X1287360Y918946D01*
G03X1335874Y967460I0J48514D01*
G01X1335874Y1137460D01*
G03X1287360Y1185974I-48514J0D01*
G01X1259884Y1185974D01*
G03X1208805Y1439818I-57524J120486D01*
G03X1202360Y1681274I-6445J120642D01*
G03X1195915Y1439818I0J-120814D01*
G03X1144836Y1185974I6445J-133358D01*
G01X1538200Y-184714D02*
G03X1586714Y-136200I0J48514D01*
G01X1586714Y63800D01*
G03X1538200Y112314I-48514J0D01*
G01X1338200Y112314D01*
G03X1289686Y63800I0J-48514D01*
G01X1289686Y-136200D01*
G03X1338200Y-184714I48514J0D01*
G01X1352654Y-184714D01*
G03X1438200Y-426014I85546J-105486D01*
G03X1523745Y-184714I0J135814D01*
G01X1538200Y-184714D01*
G54D11*
G01X437611Y-2389609D02*
G01X351957Y-2389609D01*
G01X437611Y-2389609D02*
G01X523265Y-2389609D01*
G01X437611Y-2389609D02*
G01X437611Y-2273955D01*
G01X437611Y-1971626D02*
G01X523265Y-1971626D01*
G01X437611Y-1971626D02*
G01X437611Y-1845972D01*
G01X437611Y-1971626D02*
G01X437611Y-2097280D01*
G01X-427411Y-1971626D02*
G01X-513065Y-1971626D01*
G01X-427411Y-1971626D02*
G01X-427411Y-1845972D01*
G01X-427411Y-1971626D02*
G01X-427411Y-2097280D01*
G01X-427411Y-2389609D02*
G01X-513065Y-2389609D01*
G01X-427411Y-2389609D02*
G01X-341757Y-2389609D01*
G01X-427411Y-2389609D02*
G01X-427411Y-2273955D01*
G01X873780Y-1012433D02*
G01X873780Y-1128087D01*
G01X873780Y-1012433D02*
G01X758126Y-1012433D01*
G01X873780Y-1012433D02*
G01X989434Y-1012433D01*
G01X1202360Y1560460D02*
G01X1202360Y1671114D01*
G01X1202360Y1560460D02*
G01X1091706Y1560460D01*
G01X1202360Y1560460D02*
G01X1313014Y1560460D01*
G01X1438200Y-290200D02*
G01X1438200Y-415854D01*
G01X1438200Y-290200D02*
G01X1563854Y-290200D01*
G01X1438200Y-290200D02*
G01X1312546Y-290200D01*
G01X1818640Y-85001D02*
G01X1818640Y-160655D01*
G01X1818640Y-85001D02*
G01X1894294Y-85001D01*
G01X1818640Y-85001D02*
G01X1742986Y-85001D01*
G01X-2011680Y811441D02*
G01X-2011680Y887095D01*
G01X-2011680Y811441D02*
G01X-1936026Y811441D01*
G01X-1473200Y-85001D02*
G01X-1473200Y-160655D01*
G01X-1473200Y-85001D02*
G01X-1397546Y-85001D01*
G01X-1473200Y-85001D02*
G01X-1548854Y-85001D01*
G01X-286136Y-2167600D02*
G01X-352114Y-2167600D01*
G01X-286136Y-2167600D02*
G01X-286136Y-2236454D01*
G01X321736Y-2167600D02*
G01X387714Y-2167600D01*
G01X321736Y-2167600D02*
G01X321736Y-2236454D01*
G01X-2066036Y-674040D02*
G01X-2066036Y-585885D01*
G01X-2066036Y-674040D02*
G01X-2066036Y-762194D01*
G01X-2066036Y-674040D02*
G01X-2005382Y-674040D01*
G01X-2066036Y-674040D02*
G01X-2126690Y-674040D01*
G01X2052320Y-54762D02*
G01X2052320Y-120416D01*
G01X2052320Y-54762D02*
G01X1981666Y-54762D01*
G01X2052320Y-54762D02*
G01X2122974Y-54762D01*
G01X-1696720Y-54762D02*
G01X-1696720Y-120416D01*
G01X-1696720Y-54762D02*
G01X-1767374Y-54762D01*
G01X-1696720Y-54762D02*
G01X-1626066Y-54762D01*
G04 Copper End*

G04 Pad Start*
G54D12*
G01X-1971040Y255080D03*
G01X-1971040Y-244919D03*
G54D13*
G01X-1696720Y85242D03*
G01X-1696720Y-54762D03*
G01X2052320Y85242D03*
G01X2052320Y-54762D03*
G54D14*
G01X873780Y-1012433D03*
G54D12*
G01X873780Y-762447D03*
G54D15*
G01X1438200Y-36200D03*
G54D16*
G01X1438200Y-290200D03*
G54D17*
G01X-1876044Y-674040D03*
G01X-2066036Y-674040D03*
G01X-1971040Y-474040D03*
G54D18*
G01X-135464Y-2167600D03*
G01X-286136Y-2167600D03*
G01X171064Y-2167600D03*
G01X321736Y-2167600D03*
G54D20*
G01X-1473200Y85001D03*
G01X-1473200Y-85001D03*
G01X1818640Y85001D03*
G01X1818640Y-85001D03*
G01X-2011680Y641439D03*
G01X-2011680Y811441D03*
G54D21*
G01X437611Y-2389609D03*
G54D22*
G01X437611Y-1971626D03*
G01X-427411Y-1971626D03*
G54D21*
G01X-427411Y-2389609D03*
G54D23*
G01X1202360Y1052460D03*
G54D24*
G01X1202360Y1306460D03*
G01X1202360Y1560460D03*
G04 Pad End*

G04 Via Start*
G54D25*
G01X-72009Y-1773673D03*
G01X81300Y-1773900D03*
G01X-119360Y-2040600D03*
G01X180360Y-2020280D03*
G54D26*
G01X670681Y-760541D03*
G54D25*
G01X-1020000Y91800D03*
G01X-1020000Y-35700D03*
G01X-1783080Y-675640D03*
G01X-1610360Y482600D03*
G01X-1021080Y1107440D03*
G01X-1021080Y1234440D03*
G54D27*
G01X2255520Y-680720D03*
G01X-624840Y1488440D03*
G01X-1808480Y1493520D03*
G54D25*
G01X31013Y45187D03*
G01X513613Y-432333D03*
G01X-329667Y-726277D03*
G54D26*
G01X175813Y-1198885D03*
G54D27*
G01X-290017Y983933D03*
G01X-150012Y983933D03*
G01X-10008Y983933D03*
G01X-290017Y843928D03*
G01X-150012Y843928D03*
G01X-10008Y843928D03*
G01X-290017Y703923D03*
G01X-150012Y703923D03*
G01X-10008Y703923D03*
G04 Via End*

G04 Track Start*
G54D11*
G01X-119360Y-2040600D02*
G01X-119360Y-2151496D01*
G01X-135464Y-2167600D01*
G01X180360Y-2020280D02*
G01X180360Y-2158304D01*
G01X171064Y-2167600D01*
G54D25*
G01X670681Y-760541D02*
G01X871875Y-760541D01*
G01X873780Y-762447D01*
G54D11*
G01X-72009Y-1773673D02*
G01X-1157700Y-687982D01*
G01X-1020000Y-35700D02*
G01X-1076100Y-91800D01*
G01X-1076100Y-616500D01*
G01X81300Y-1773900D01*
G01X-1157700Y-687982D02*
G01X-1157700Y-45900D01*
G01X-1020000Y91800D01*
G01X-1783080Y-675640D02*
G01X-1874444Y-675640D01*
G01X-1876044Y-674040D01*
G01X2052320Y85242D02*
G01X2052079Y85001D01*
G01X1818640Y85001D01*
G01X-1473200Y85001D02*
G01X-1696479Y85001D01*
G01X-1696720Y85242D01*
G01X-1696720Y802640D01*
G01X-1264920Y1234440D01*
G01X-1021080Y1234440D01*
G01X-1610360Y482600D02*
G01X-1610360Y751840D01*
G01X-1254760Y1107440D01*
G01X-1021080Y1107440D01*
G01X-1610360Y482600D02*
G01X1595120Y482600D01*
G01X1813560Y264160D01*
G01X1813560Y90081D01*
G01X1818640Y85001D01*
G54D25*
G01X447040Y822960D02*
G01X-223520Y1493520D01*
G01X-619760Y1493520D02*
G01X-624840Y1488440D01*
G01X-223520Y1493520D02*
G01X-619760Y1493520D01*
G01X2255520Y-680720D02*
G01X2255520Y228600D01*
G01X1661160Y822960D01*
G01X447040Y822960D01*
G01X-1808480Y1488440D02*
G01X-1808480Y1493520D01*
G01X-1971040Y255080D02*
G01X-2138680Y422720D01*
G01X-2138680Y1158240D01*
G01X-1808480Y1488440D01*
G54D11*
G01X-1971040Y-244919D02*
G01X-1971040Y-474040D01*
G01X31013Y45187D02*
G01X34817Y45187D01*
G01X512337Y-432333D01*
G01X513613Y-432333D01*
G01X172720Y-1195791D02*
G01X175813Y-1198885D01*
G01X-329667Y-726277D02*
G01X9997Y-726277D01*
G01X172720Y-889000D01*
G01X172720Y-1195791D01*
G04 Track End*

M02*

